<svg width="339" height="231" viewBox="0 0 339 231" fill="none" xmlns="http://www.w3.org/2000/svg">
<mask id="mask0_23_96" style="mask-type:alpha" maskUnits="userSpaceOnUse" x="0" y="0" width="339" height="231">
<rect width="339" height="230.157" transform="matrix(-1 0 0 1 339 0)" fill="#1C2F67"/>
</mask>
<g mask="url(#mask0_23_96)">
<ellipse cx="236.276" cy="233.657" rx="236.276" ry="233.657" transform="matrix(-1 0 0 1 331.993 8.5)" fill="#1C2F67"/>
<path d="M33.8671 73.7717H37.9804V84.9163C37.9804 86.2444 37.703 87.3694 37.1484 88.2913C36.5937 89.2053 35.8163 89.8967 34.8163 90.3655C33.8163 90.8342 32.6405 91.0686 31.289 91.0686C29.953 91.0686 28.7773 90.8342 27.7616 90.3655C26.7538 89.8967 25.9648 89.2053 25.3945 88.2913C24.832 87.3694 24.5507 86.2444 24.5507 84.9163V73.7717H28.6757V84.9163C28.6757 85.6194 28.7773 86.1936 28.9804 86.6389C29.1835 87.0764 29.4804 87.3967 29.871 87.5999C30.2616 87.803 30.7343 87.9045 31.289 87.9045C31.8515 87.9045 32.3241 87.803 32.707 87.5999C33.0898 87.3967 33.3788 87.0764 33.5741 86.6389C33.7695 86.1936 33.8671 85.6194 33.8671 84.9163V73.7717Z" fill="white"/>
<path d="M54.8202 73.7717V90.8342H50.7187L44.6835 80.217V90.8342H40.5702V73.7717H44.6835L50.7187 84.3889V73.7717H54.8202Z" fill="white"/>
<path d="M68.9413 90.8342H65.1562L65.1796 87.6702H68.9413C69.7226 87.6702 70.3827 87.4827 70.9218 87.1077C71.4687 86.7327 71.8827 86.1741 72.164 85.4319C72.453 84.6819 72.5976 83.76 72.5976 82.6663V81.928C72.5976 81.1077 72.5155 80.3889 72.3515 79.7717C72.1952 79.1467 71.9609 78.6272 71.6484 78.2131C71.3359 77.7913 70.9452 77.4749 70.4765 77.2639C70.0155 77.053 69.4843 76.9475 68.8827 76.9475H65.0859V73.7717H68.8827C70.039 73.7717 71.0976 73.9709 72.0585 74.3694C73.0273 74.76 73.8632 75.3225 74.5663 76.0569C75.2773 76.7834 75.8241 77.6467 76.207 78.6467C76.5976 79.6389 76.7929 80.7405 76.7929 81.9514V82.6663C76.7929 83.8694 76.5976 84.9709 76.207 85.9709C75.8241 86.9709 75.2812 87.8342 74.578 88.5608C73.8749 89.2874 73.0429 89.8499 72.082 90.2483C71.1288 90.6389 70.082 90.8342 68.9413 90.8342ZM67.5116 73.7717V90.8342H63.3984V73.7717H67.5116Z" fill="white"/>
<path d="M90.6796 87.6702V90.8342H81.5859V87.6702H90.6796ZM83.0507 73.7717V90.8342H78.9374V73.7717H83.0507ZM89.5077 80.5452V83.6038H81.5859V80.5452H89.5077ZM90.7148 73.7717V76.9475H81.5859V73.7717H90.7148Z" fill="white"/>
<path d="M98.8241 86.8147L102.375 73.7717H106.98L101.226 90.8342H98.2499L98.8241 86.8147ZM95.6015 73.7717L99.1523 86.8147L99.7499 90.8342H96.7382L91.0195 73.7717H95.6015Z" fill="white"/>
<path d="M119.976 87.6702V90.8342H110.883V87.6702H119.976ZM112.348 73.7717V90.8342H108.234V73.7717H112.348ZM118.805 80.5452V83.6038H110.883V80.5452H118.805ZM120.012 73.7717V76.9475H110.883V73.7717H120.012Z" fill="white"/>
<path d="M132.937 87.6702V90.8342H124.312V87.6702H132.937ZM125.777 73.7717V90.8342H121.664V73.7717H125.777Z" fill="white"/>
<path d="M148.359 81.9631V82.6545C148.359 83.9592 148.176 85.1311 147.809 86.1702C147.449 87.2014 146.937 88.0842 146.273 88.8186C145.609 89.5452 144.824 90.1038 143.918 90.4944C143.012 90.8772 142.012 91.0686 140.918 91.0686C139.816 91.0686 138.809 90.8772 137.894 90.4944C136.988 90.1038 136.199 89.5452 135.527 88.8186C134.863 88.0842 134.348 87.2014 133.98 86.1702C133.621 85.1311 133.441 83.9592 133.441 82.6545V81.9631C133.441 80.6584 133.621 79.4866 133.98 78.4475C134.348 77.4084 134.859 76.5256 135.516 75.7991C136.18 75.0647 136.965 74.5061 137.871 74.1233C138.785 73.7327 139.793 73.5374 140.894 73.5374C141.988 73.5374 142.988 73.7327 143.894 74.1233C144.809 74.5061 145.598 75.0647 146.262 75.7991C146.926 76.5256 147.441 77.4084 147.809 78.4475C148.176 79.4866 148.359 80.6584 148.359 81.9631ZM144.187 82.6545V81.9397C144.187 81.0959 144.113 80.3538 143.965 79.7131C143.824 79.0647 143.613 78.5217 143.332 78.0842C143.051 77.6467 142.703 77.3186 142.289 77.0999C141.883 76.8733 141.418 76.76 140.894 76.76C140.348 76.76 139.871 76.8733 139.465 77.0999C139.059 77.3186 138.719 77.6467 138.445 78.0842C138.172 78.5217 137.965 79.0647 137.824 79.7131C137.691 80.3538 137.625 81.0959 137.625 81.9397V82.6545C137.625 83.4905 137.691 84.2327 137.824 84.8811C137.965 85.5217 138.172 86.0647 138.445 86.51C138.726 86.9553 139.07 87.2913 139.476 87.5178C139.891 87.7444 140.371 87.8577 140.918 87.8577C141.441 87.8577 141.906 87.7444 142.312 87.5178C142.719 87.2913 143.059 86.9553 143.332 86.51C143.613 86.0647 143.824 85.5217 143.965 84.8811C144.113 84.2327 144.187 83.4905 144.187 82.6545Z" fill="white"/>
<path d="M157.301 85.0452H153.059V81.8694H157.301C157.879 81.8694 158.348 81.7717 158.707 81.5764C159.066 81.3811 159.328 81.1116 159.492 80.7678C159.664 80.4163 159.75 80.0217 159.75 79.5842C159.75 79.1155 159.664 78.6819 159.492 78.2834C159.328 77.885 159.066 77.5647 158.707 77.3225C158.348 77.0725 157.879 76.9475 157.301 76.9475H154.605V90.8342H150.492V73.7717H157.301C158.668 73.7717 159.844 74.0217 160.828 74.5217C161.82 75.0217 162.582 75.7092 163.113 76.5842C163.644 77.4514 163.91 78.4436 163.91 79.5608C163.91 80.6624 163.644 81.6233 163.113 82.4436C162.582 83.2639 161.82 83.9045 160.828 84.3655C159.844 84.8186 158.668 85.0452 157.301 85.0452Z" fill="white"/>
<path d="M172.934 85.0452H168.691V81.8694H172.934C173.512 81.8694 173.98 81.7717 174.34 81.5764C174.699 81.3811 174.961 81.1116 175.125 80.7678C175.297 80.4163 175.383 80.0217 175.383 79.5842C175.383 79.1155 175.297 78.6819 175.125 78.2834C174.961 77.885 174.699 77.5647 174.34 77.3225C173.98 77.0725 173.512 76.9475 172.934 76.9475H170.238V90.8342H166.125V73.7717H172.934C174.301 73.7717 175.476 74.0217 176.461 74.5217C177.453 75.0217 178.215 75.7092 178.746 76.5842C179.277 77.4514 179.543 78.4436 179.543 79.5608C179.543 80.6624 179.277 81.6233 178.746 82.4436C178.215 83.2639 177.453 83.9045 176.461 84.3655C175.476 84.8186 174.301 85.0452 172.934 85.0452Z" fill="white"/>
<path d="M193.5 87.6702V90.8342H184.406V87.6702H193.5ZM185.871 73.7717V90.8342H181.758V73.7717H185.871ZM192.328 80.5452V83.6038H184.406V80.5452H192.328ZM193.535 73.7717V76.9475H184.406V73.7717H193.535Z" fill="white"/>
<path d="M204.445 73.7717H208.559V84.9163C208.559 86.2444 208.281 87.3694 207.726 88.2913C207.172 89.2053 206.394 89.8967 205.394 90.3655C204.394 90.8342 203.219 91.0686 201.867 91.0686C200.531 91.0686 199.355 90.8342 198.34 90.3655C197.332 89.8967 196.543 89.2053 195.973 88.2913C195.41 87.3694 195.129 86.2444 195.129 84.9163V73.7717H199.254V84.9163C199.254 85.6194 199.355 86.1936 199.559 86.6389C199.762 87.0764 200.059 87.3967 200.449 87.5999C200.84 87.803 201.312 87.9045 201.867 87.9045C202.43 87.9045 202.902 87.803 203.285 87.5999C203.668 87.3967 203.957 87.0764 204.152 86.6389C204.348 86.1936 204.445 85.6194 204.445 84.9163V73.7717Z" fill="white"/>
<path d="M211.148 73.7717H217.863C219.176 73.7717 220.316 73.967 221.285 74.3577C222.254 74.7483 223 75.3264 223.523 76.092C224.055 76.8577 224.32 77.803 224.32 78.928C224.32 79.9045 224.168 80.7209 223.863 81.3772C223.559 82.0334 223.133 82.5764 222.586 83.0061C222.047 83.428 221.418 83.7756 220.699 84.0491L219.351 84.8108H213.715L213.691 81.635H217.863C218.387 81.635 218.82 81.5413 219.164 81.3538C219.508 81.1663 219.766 80.9006 219.937 80.5569C220.117 80.2053 220.207 79.7874 220.207 79.303C220.207 78.8108 220.117 78.3889 219.937 78.0374C219.758 77.6858 219.492 77.4163 219.141 77.2288C218.797 77.0413 218.371 76.9475 217.863 76.9475H215.262V90.8342H211.148V73.7717ZM220.488 90.8342L216.715 83.2874L221.074 83.2639L224.894 90.6584V90.8342H220.488Z" fill="white"/>
<path d="M34.1249 123.022L38.8827 126.795L36.328 128.951L31.6523 125.178L34.1249 123.022ZM39.082 116.963V117.655C39.082 118.959 38.8984 120.131 38.5312 121.17C38.1718 122.201 37.6562 123.084 36.9843 123.819C36.3202 124.545 35.5351 125.104 34.6288 125.494C33.7226 125.877 32.7226 126.069 31.6288 126.069C30.5273 126.069 29.5195 125.877 28.6054 125.494C27.6991 125.104 26.9101 124.545 26.2382 123.819C25.5741 123.084 25.0585 122.201 24.6913 121.17C24.332 120.131 24.1523 118.959 24.1523 117.655V116.963C24.1523 115.658 24.332 114.487 24.6913 113.448C25.0585 112.408 25.5702 111.526 26.2265 110.799C26.8905 110.065 27.6757 109.506 28.582 109.123C29.496 108.733 30.5038 108.537 31.6054 108.537C32.6991 108.537 33.6991 108.733 34.6054 109.123C35.5195 109.506 36.3085 110.065 36.9726 110.799C37.6445 111.526 38.164 112.408 38.5312 113.448C38.8984 114.487 39.082 115.658 39.082 116.963ZM34.8984 117.655V116.94C34.8984 116.096 34.8241 115.354 34.6757 114.713C34.5351 114.065 34.3241 113.522 34.0429 113.084C33.7616 112.647 33.414 112.319 32.9999 112.1C32.5937 111.873 32.1288 111.76 31.6054 111.76C31.0585 111.76 30.582 111.873 30.1757 112.1C29.7695 112.319 29.4296 112.647 29.1562 113.084C28.8827 113.522 28.6757 114.065 28.5351 114.713C28.4023 115.354 28.3359 116.096 28.3359 116.94V117.655C28.3359 118.49 28.4023 119.233 28.5351 119.881C28.6757 120.522 28.8827 121.065 29.1562 121.51C29.4374 121.955 29.7812 122.291 30.1874 122.518C30.6015 122.744 31.082 122.858 31.6288 122.858C32.1523 122.858 32.6171 122.744 33.0234 122.518C33.4296 122.291 33.7695 121.955 34.0429 121.51C34.3241 121.065 34.5351 120.522 34.6757 119.881C34.8241 119.233 34.8984 118.49 34.8984 117.655Z" fill="white"/>
<path d="M50.4374 108.772H54.5507V119.916C54.5507 121.244 54.2734 122.369 53.7187 123.291C53.164 124.205 52.3866 124.897 51.3866 125.365C50.3866 125.834 49.2109 126.069 47.8593 126.069C46.5234 126.069 45.3476 125.834 44.332 125.365C43.3241 124.897 42.5351 124.205 41.9648 123.291C41.4023 122.369 41.121 121.244 41.121 119.916V108.772H45.246V119.916C45.246 120.619 45.3476 121.194 45.5507 121.639C45.7538 122.076 46.0507 122.397 46.4413 122.6C46.832 122.803 47.3046 122.905 47.8593 122.905C48.4218 122.905 48.8945 122.803 49.2773 122.6C49.6601 122.397 49.9491 122.076 50.1445 121.639C50.3398 121.194 50.4374 120.619 50.4374 119.916V108.772Z" fill="white"/>
<path d="M61.5116 108.772V125.834H57.4101V108.772H61.5116Z" fill="white"/>
<path d="M77.3437 118.58H72.9491L72.9257 115.885H76.4882C77.1288 115.885 77.6405 115.815 78.0234 115.674C78.4062 115.526 78.6835 115.311 78.8554 115.03C79.0351 114.748 79.1249 114.397 79.1249 113.975C79.1249 113.49 79.0351 113.1 78.8554 112.803C78.6757 112.506 78.3905 112.291 77.9999 112.158C77.6171 112.018 77.121 111.948 76.5116 111.948H74.496V125.834H70.3827V108.772H76.5116C77.5663 108.772 78.5077 108.869 79.3359 109.065C80.164 109.252 80.8671 109.541 81.4452 109.932C82.0312 110.323 82.4765 110.815 82.7812 111.408C83.0859 111.994 83.2382 112.686 83.2382 113.483C83.2382 114.178 83.0898 114.83 82.7929 115.44C82.496 116.049 81.9999 116.545 81.3046 116.928C80.6171 117.303 79.6757 117.498 78.4804 117.514L77.3437 118.58ZM77.1796 125.834H71.953L73.3593 122.67H77.1796C77.7421 122.67 78.1913 122.584 78.5273 122.412C78.871 122.233 79.1171 121.998 79.2655 121.709C79.4218 121.412 79.4999 121.084 79.4999 120.725C79.4999 120.287 79.4257 119.908 79.2773 119.588C79.1366 119.268 78.9101 119.022 78.5976 118.85C78.2851 118.67 77.8671 118.58 77.3437 118.58H73.8866L73.9101 115.885H78.0468L79.0077 116.963C80.1484 116.916 81.0507 117.076 81.7148 117.444C82.3866 117.811 82.8671 118.295 83.1562 118.897C83.4452 119.498 83.5898 120.127 83.5898 120.783C83.5898 121.901 83.3476 122.834 82.8632 123.584C82.3866 124.334 81.6718 124.897 80.7187 125.272C79.7655 125.647 78.5859 125.834 77.1796 125.834Z" fill="white"/>
<path d="M95.1327 108.772H99.246V119.916C99.246 121.244 98.9687 122.369 98.414 123.291C97.8593 124.205 97.082 124.897 96.082 125.365C95.082 125.834 93.9062 126.069 92.5546 126.069C91.2187 126.069 90.0429 125.834 89.0273 125.365C88.0195 124.897 87.2304 124.205 86.6601 123.291C86.0976 122.369 85.8163 121.244 85.8163 119.916V108.772H89.9413V119.916C89.9413 120.619 90.0429 121.194 90.246 121.639C90.4491 122.076 90.746 122.397 91.1366 122.6C91.5273 122.803 91.9999 122.905 92.5546 122.905C93.1171 122.905 93.5898 122.803 93.9726 122.6C94.3554 122.397 94.6445 122.076 94.8398 121.639C95.0351 121.194 95.1327 120.619 95.1327 119.916V108.772Z" fill="white"/>
<path d="M113.109 122.67V125.834H104.484V122.67H113.109ZM105.949 108.772V125.834H101.836V108.772H105.949Z" fill="white"/>
<path d="M126.117 122.67V125.834H117.492V122.67H126.117ZM118.957 108.772V125.834H114.844V108.772H118.957Z" fill="white"/>
<path d="M139.594 122.67V125.834H130.5V122.67H139.594ZM131.965 108.772V125.834H127.851V108.772H131.965ZM138.422 115.545V118.604H130.5V115.545H138.422ZM139.629 108.772V111.948H130.5V108.772H139.629Z" fill="white"/>
<path d="M141.351 123.983C141.351 123.42 141.555 122.951 141.961 122.576C142.367 122.194 142.891 122.002 143.531 122.002C144.18 122.002 144.703 122.194 145.101 122.576C145.508 122.951 145.711 123.42 145.711 123.983C145.711 124.545 145.508 125.018 145.101 125.401C144.703 125.776 144.18 125.963 143.531 125.963C142.891 125.963 142.367 125.776 141.961 125.401C141.555 125.018 141.351 124.545 141.351 123.983Z" fill="white"/>
<path d="M148.617 123.983C148.617 123.42 148.82 122.951 149.226 122.576C149.633 122.194 150.156 122.002 150.797 122.002C151.445 122.002 151.969 122.194 152.367 122.576C152.773 122.951 152.976 123.42 152.976 123.983C152.976 124.545 152.773 125.018 152.367 125.401C151.969 125.776 151.445 125.963 150.797 125.963C150.156 125.963 149.633 125.776 149.226 125.401C148.82 125.018 148.617 124.545 148.617 123.983Z" fill="white"/>
<path d="M155.883 123.983C155.883 123.42 156.086 122.951 156.492 122.576C156.898 122.194 157.422 122.002 158.062 122.002C158.711 122.002 159.234 122.194 159.633 122.576C160.039 122.951 160.242 123.42 160.242 123.983C160.242 124.545 160.039 125.018 159.633 125.401C159.234 125.776 158.711 125.963 158.062 125.963C157.422 125.963 156.898 125.776 156.492 125.401C156.086 125.018 155.883 124.545 155.883 123.983Z" fill="white"/>
<path d="M25.0539 171.003V157.912H29.4772C30.5042 157.912 31.3437 158.097 31.9957 158.468C32.6519 158.834 33.1377 159.331 33.453 159.957C33.7684 160.584 33.9261 161.283 33.9261 162.054C33.9261 162.825 33.7684 163.526 33.453 164.157C33.142 164.787 32.6604 165.29 32.0084 165.665C31.3565 166.036 30.5212 166.221 29.5028 166.221H26.3323V164.815H29.4516C30.1548 164.815 30.7194 164.694 31.1455 164.451C31.5717 164.208 31.8806 163.88 32.0724 163.466C32.2684 163.049 32.3664 162.578 32.3664 162.054C32.3664 161.53 32.2684 161.061 32.0724 160.648C31.8806 160.234 31.5695 159.91 31.1391 159.676C30.7087 159.437 30.1377 159.318 29.4261 159.318H26.6391V171.003H25.0539Z" fill="white"/>
<path d="M40.1583 171.207C39.2719 171.207 38.4942 170.996 37.8252 170.574C37.1604 170.153 36.6405 169.562 36.2655 168.804C35.8948 168.045 35.7094 167.159 35.7094 166.145C35.7094 165.122 35.8948 164.229 36.2655 163.466C36.6405 162.704 37.1604 162.111 37.8252 161.689C38.4942 161.268 39.2719 161.057 40.1583 161.057C41.0447 161.057 41.8202 161.268 42.485 161.689C43.154 162.111 43.6739 162.704 44.0447 163.466C44.4197 164.229 44.6072 165.122 44.6072 166.145C44.6072 167.159 44.4197 168.045 44.0447 168.804C43.6739 169.562 43.154 170.153 42.485 170.574C41.8202 170.996 41.0447 171.207 40.1583 171.207ZM40.1583 169.852C40.8316 169.852 41.3856 169.68 41.8202 169.334C42.2549 168.989 42.5766 168.535 42.7854 167.973C42.9942 167.41 43.0986 166.801 43.0986 166.145C43.0986 165.488 42.9942 164.877 42.7854 164.31C42.5766 163.743 42.2549 163.285 41.8202 162.936C41.3856 162.586 40.8316 162.412 40.1583 162.412C39.485 162.412 38.931 162.586 38.4964 162.936C38.0617 163.285 37.74 163.743 37.5312 164.31C37.3224 164.877 37.218 165.488 37.218 166.145C37.218 166.801 37.3224 167.41 37.5312 167.973C37.74 168.535 38.0617 168.989 38.4964 169.334C38.931 169.68 39.485 169.852 40.1583 169.852Z" fill="white"/>
<path d="M46.9099 171.003V161.185H48.4184V171.003H46.9099ZM47.6769 159.548C47.3829 159.548 47.1294 159.448 46.9163 159.248C46.7075 159.047 46.6031 158.807 46.6031 158.525C46.6031 158.244 46.7075 158.003 46.9163 157.803C47.1294 157.603 47.3829 157.503 47.6769 157.503C47.971 157.503 48.2224 157.603 48.4312 157.803C48.6443 158.003 48.7508 158.244 48.7508 158.525C48.7508 158.807 48.6443 159.047 48.4312 159.248C48.2224 159.448 47.971 159.548 47.6769 159.548Z" fill="white"/>
<path d="M58.1359 163.383L56.7808 163.767C56.6956 163.541 56.5699 163.322 56.4037 163.109C56.2418 162.891 56.0202 162.712 55.7389 162.572C55.4577 162.431 55.0976 162.361 54.6587 162.361C54.0578 162.361 53.5571 162.499 53.1565 162.776C52.7602 163.049 52.5621 163.396 52.5621 163.818C52.5621 164.193 52.6984 164.489 52.9712 164.707C53.2439 164.924 53.67 165.105 54.2496 165.25L55.707 165.608C56.5848 165.821 57.2389 166.147 57.6693 166.586C58.0997 167.02 58.3149 167.581 58.3149 168.267C58.3149 168.829 58.153 169.332 57.8291 169.775C57.5095 170.219 57.0621 170.568 56.4868 170.824C55.9115 171.079 55.2425 171.207 54.4797 171.207C53.4783 171.207 52.6494 170.99 51.9932 170.555C51.3369 170.121 50.9214 169.486 50.7467 168.65L52.1785 168.292C52.3149 168.821 52.5727 169.217 52.952 169.481C53.3355 169.746 53.8362 169.878 54.4541 169.878C55.1572 169.878 55.7155 169.729 56.1288 169.43C56.5464 169.128 56.7552 168.765 56.7552 168.344C56.7552 168.003 56.6359 167.717 56.3973 167.487C56.1587 167.253 55.7922 167.078 55.2979 166.963L53.6615 166.579C52.7624 166.366 52.1018 166.036 51.68 165.589C51.2624 165.137 51.0535 164.572 51.0535 163.895C51.0535 163.341 51.2091 162.851 51.5202 162.425C51.8355 161.998 52.2638 161.664 52.805 161.421C53.3504 161.178 53.9683 161.057 54.6587 161.057C55.6302 161.057 56.393 161.27 56.947 161.696C57.5052 162.122 57.9016 162.685 58.1359 163.383Z" fill="white"/>
<path d="M67.5402 163.383L66.1851 163.767C66.0999 163.541 65.9742 163.322 65.808 163.109C65.6461 162.891 65.4245 162.712 65.1432 162.572C64.862 162.431 64.5019 162.361 64.063 162.361C63.4621 162.361 62.9614 162.499 62.5608 162.776C62.1645 163.049 61.9664 163.396 61.9664 163.818C61.9664 164.193 62.1027 164.489 62.3755 164.707C62.6482 164.924 63.0743 165.105 63.6539 165.25L65.1113 165.608C65.9891 165.821 66.6432 166.147 67.0736 166.586C67.504 167.02 67.7192 167.581 67.7192 168.267C67.7192 168.829 67.5573 169.332 67.2334 169.775C66.9138 170.219 66.4664 170.568 65.8911 170.824C65.3158 171.079 64.6468 171.207 63.884 171.207C62.8826 171.207 62.0537 170.99 61.3975 170.555C60.7412 170.121 60.3257 169.486 60.151 168.65L61.5828 168.292C61.7192 168.821 61.977 169.217 62.3563 169.481C62.7398 169.746 63.2405 169.878 63.8584 169.878C64.5615 169.878 65.1198 169.729 65.5331 169.43C65.9507 169.128 66.1595 168.765 66.1595 168.344C66.1595 168.003 66.0402 167.717 65.8016 167.487C65.563 167.253 65.1965 167.078 64.7022 166.963L63.0658 166.579C62.1666 166.366 61.5061 166.036 61.0843 165.589C60.6666 165.137 60.4578 164.572 60.4578 163.895C60.4578 163.341 60.6134 162.851 60.9245 162.425C61.2398 161.998 61.6681 161.664 62.2093 161.421C62.7547 161.178 63.3726 161.057 64.063 161.057C65.0345 161.057 65.7973 161.27 66.3513 161.696C66.9095 162.122 67.3059 162.685 67.5402 163.383Z" fill="white"/>
<path d="M73.9786 171.207C73.0923 171.207 72.3146 170.996 71.6455 170.574C70.9807 170.153 70.4609 169.562 70.0859 168.804C69.7151 168.045 69.5298 167.159 69.5298 166.145C69.5298 165.122 69.7151 164.229 70.0859 163.466C70.4609 162.704 70.9807 162.111 71.6455 161.689C72.3146 161.268 73.0923 161.057 73.9786 161.057C74.865 161.057 75.6405 161.268 76.3053 161.689C76.9744 162.111 77.4942 162.704 77.865 163.466C78.24 164.229 78.4275 165.122 78.4275 166.145C78.4275 167.159 78.24 168.045 77.865 168.804C77.4942 169.562 76.9744 170.153 76.3053 170.574C75.6405 170.996 74.865 171.207 73.9786 171.207ZM73.9786 169.852C74.6519 169.852 75.2059 169.68 75.6405 169.334C76.0752 168.989 76.3969 168.535 76.6057 167.973C76.8146 167.41 76.919 166.801 76.919 166.145C76.919 165.488 76.8146 164.877 76.6057 164.31C76.3969 163.743 76.0752 163.285 75.6405 162.936C75.2059 162.586 74.6519 162.412 73.9786 162.412C73.3053 162.412 72.7513 162.586 72.3167 162.936C71.882 163.285 71.5603 163.743 71.3515 164.31C71.1427 164.877 71.0383 165.488 71.0383 166.145C71.0383 166.801 71.1427 167.41 71.3515 167.973C71.5603 168.535 71.882 168.989 72.3167 169.334C72.7513 169.68 73.3053 169.852 73.9786 169.852Z" fill="white"/>
<path d="M82.2387 165.096V171.003H80.7302V161.185H82.1876V162.719H82.3154C82.5456 162.22 82.895 161.819 83.3637 161.517C83.8325 161.21 84.4376 161.057 85.1791 161.057C85.8438 161.057 86.4255 161.193 86.9241 161.466C87.4227 161.734 87.8105 162.143 88.0875 162.693C88.3644 163.238 88.5029 163.929 88.5029 164.764V171.003H86.9944V164.866C86.9944 164.095 86.7941 163.494 86.3936 163.064C85.993 162.629 85.4433 162.412 84.7444 162.412C84.2629 162.412 83.8325 162.516 83.4532 162.725C83.0782 162.934 82.7821 163.238 82.5647 163.639C82.3474 164.04 82.2387 164.525 82.2387 165.096Z" fill="white"/>
<path d="M103.686 161.185C103.609 160.537 103.298 160.034 102.752 159.676C102.207 159.318 101.538 159.139 100.745 159.139C100.166 159.139 99.6587 159.233 99.224 159.42C98.7936 159.608 98.457 159.866 98.2141 160.194C97.9754 160.522 97.8561 160.895 97.8561 161.312C97.8561 161.662 97.9392 161.962 98.1054 162.214C98.2758 162.461 98.4932 162.667 98.7574 162.834C99.0216 162.996 99.2986 163.13 99.5883 163.236C99.8781 163.339 100.144 163.422 100.387 163.486L101.717 163.844C102.058 163.933 102.437 164.057 102.855 164.214C103.277 164.372 103.679 164.587 104.063 164.86C104.451 165.128 104.77 165.474 105.022 165.895C105.273 166.317 105.399 166.835 105.399 167.449C105.399 168.156 105.213 168.795 104.843 169.366C104.476 169.937 103.939 170.391 103.232 170.728C102.529 171.064 101.674 171.233 100.669 171.233C99.7311 171.233 98.9193 171.082 98.2332 170.779C97.5514 170.476 97.0145 170.055 96.6224 169.513C96.2347 168.972 96.0152 168.344 95.9641 167.628H97.6004C97.643 168.122 97.8092 168.531 98.099 168.855C98.393 169.175 98.7638 169.413 99.2112 169.571C99.6629 169.724 100.149 169.801 100.669 169.801C101.274 169.801 101.817 169.703 102.299 169.507C102.78 169.307 103.161 169.03 103.443 168.676C103.724 168.318 103.865 167.9 103.865 167.423C103.865 166.988 103.743 166.635 103.5 166.362C103.257 166.089 102.938 165.868 102.541 165.697C102.145 165.527 101.717 165.378 101.257 165.25L99.6459 164.79C98.6231 164.496 97.8135 164.076 97.2169 163.53C96.6203 162.985 96.322 162.271 96.322 161.389C96.322 160.656 96.5202 160.017 96.9165 159.471C97.317 158.922 97.854 158.496 98.5273 158.193C99.2048 157.886 99.9612 157.733 100.796 157.733C101.64 157.733 102.39 157.884 103.046 158.187C103.703 158.485 104.223 158.894 104.606 159.414C104.994 159.934 105.198 160.524 105.22 161.185H103.686Z" fill="white"/>
<path d="M111.789 171.207C110.903 171.207 110.125 170.996 109.456 170.574C108.791 170.153 108.271 169.562 107.896 168.804C107.526 168.045 107.34 167.159 107.34 166.145C107.34 165.122 107.526 164.229 107.896 163.466C108.271 162.704 108.791 162.111 109.456 161.689C110.125 161.268 110.903 161.057 111.789 161.057C112.676 161.057 113.451 161.268 114.116 161.689C114.785 162.111 115.305 162.704 115.676 163.466C116.051 164.229 116.238 165.122 116.238 166.145C116.238 167.159 116.051 168.045 115.676 168.804C115.305 169.562 114.785 170.153 114.116 170.574C113.451 170.996 112.676 171.207 111.789 171.207ZM111.789 169.852C112.462 169.852 113.016 169.68 113.451 169.334C113.886 168.989 114.207 168.535 114.416 167.973C114.625 167.41 114.73 166.801 114.73 166.145C114.73 165.488 114.625 164.877 114.416 164.31C114.207 163.743 113.886 163.285 113.451 162.936C113.016 162.586 112.462 162.412 111.789 162.412C111.116 162.412 110.562 162.586 110.127 162.936C109.693 163.285 109.371 163.743 109.162 164.31C108.953 164.877 108.849 165.488 108.849 166.145C108.849 166.801 108.953 167.41 109.162 167.973C109.371 168.535 109.693 168.989 110.127 169.334C110.562 169.68 111.116 169.852 111.789 169.852Z" fill="white"/>
<path d="M120.049 157.912V171.003H118.541V157.912H120.049Z" fill="white"/>
<path d="M129 166.988V161.185H130.508V171.003H129V169.341H128.897C128.667 169.839 128.309 170.263 127.824 170.613C127.338 170.958 126.724 171.131 125.983 171.131C125.369 171.131 124.824 170.996 124.346 170.728C123.869 170.455 123.494 170.046 123.221 169.501C122.949 168.951 122.812 168.258 122.812 167.423V161.185H124.321V167.321C124.321 168.037 124.521 168.608 124.922 169.034C125.326 169.46 125.842 169.673 126.468 169.673C126.843 169.673 127.225 169.577 127.613 169.385C128.005 169.194 128.333 168.9 128.597 168.503C128.866 168.107 129 167.602 129 166.988Z" fill="white"/>
<path d="M133.476 171.003V157.912H134.984V162.744H135.112C135.223 162.574 135.376 162.356 135.572 162.092C135.773 161.824 136.058 161.585 136.429 161.376C136.804 161.163 137.311 161.057 137.95 161.057C138.777 161.057 139.506 161.263 140.136 161.677C140.767 162.09 141.259 162.676 141.613 163.435C141.967 164.193 142.143 165.088 142.143 166.119C142.143 167.159 141.967 168.06 141.613 168.823C141.259 169.582 140.769 170.17 140.143 170.587C139.516 171.001 138.794 171.207 137.976 171.207C137.345 171.207 136.84 171.103 136.461 170.894C136.082 170.681 135.79 170.44 135.585 170.172C135.381 169.899 135.223 169.673 135.112 169.494H134.933V171.003H133.476ZM134.959 166.094C134.959 166.835 135.067 167.489 135.285 168.056C135.502 168.618 135.82 169.06 136.237 169.379C136.655 169.694 137.166 169.852 137.771 169.852C138.402 169.852 138.928 169.686 139.35 169.354C139.776 169.017 140.096 168.565 140.309 167.998C140.526 167.427 140.635 166.792 140.635 166.094C140.635 165.403 140.528 164.781 140.315 164.227C140.106 163.669 139.789 163.228 139.363 162.904C138.941 162.576 138.41 162.412 137.771 162.412C137.158 162.412 136.642 162.567 136.224 162.878C135.807 163.185 135.491 163.616 135.278 164.17C135.065 164.719 134.959 165.361 134.959 166.094Z" fill="white"/>
<path d="M145.959 157.912V171.003H144.451V157.912H145.959Z" fill="white"/>
<path d="M152.839 171.207C151.893 171.207 151.077 170.998 150.391 170.581C149.709 170.159 149.183 169.571 148.812 168.817C148.445 168.058 148.262 167.176 148.262 166.17C148.262 165.165 148.445 164.278 148.812 163.511C149.183 162.74 149.698 162.139 150.359 161.709C151.024 161.274 151.799 161.057 152.685 161.057C153.197 161.057 153.702 161.142 154.2 161.312C154.699 161.483 155.153 161.76 155.562 162.143C155.971 162.523 156.297 163.025 156.54 163.652C156.783 164.278 156.904 165.05 156.904 165.966V166.605H149.336V165.301H155.37C155.37 164.747 155.259 164.253 155.038 163.818C154.82 163.383 154.509 163.04 154.105 162.789C153.704 162.537 153.231 162.412 152.685 162.412C152.085 162.412 151.565 162.561 151.126 162.859C150.691 163.153 150.357 163.537 150.122 164.01C149.888 164.483 149.771 164.99 149.771 165.531V166.4C149.771 167.142 149.899 167.77 150.154 168.286C150.414 168.797 150.774 169.187 151.234 169.456C151.695 169.72 152.23 169.852 152.839 169.852C153.235 169.852 153.593 169.797 153.913 169.686C154.237 169.571 154.516 169.4 154.75 169.175C154.984 168.944 155.166 168.659 155.293 168.318L156.751 168.727C156.597 169.221 156.34 169.656 155.977 170.031C155.615 170.402 155.168 170.692 154.635 170.9C154.102 171.105 153.504 171.207 152.839 171.207Z" fill="white"/>
<path d="M168.378 171.207C167.432 171.207 166.616 170.998 165.93 170.581C165.248 170.159 164.722 169.571 164.351 168.817C163.984 168.058 163.801 167.176 163.801 166.17C163.801 165.165 163.984 164.278 164.351 163.511C164.722 162.74 165.237 162.139 165.898 161.709C166.563 161.274 167.338 161.057 168.225 161.057C168.736 161.057 169.241 161.142 169.739 161.312C170.238 161.483 170.692 161.76 171.101 162.143C171.51 162.523 171.836 163.025 172.079 163.652C172.322 164.278 172.443 165.05 172.443 165.966V166.605H164.875V165.301H170.909C170.909 164.747 170.798 164.253 170.577 163.818C170.359 163.383 170.048 163.04 169.644 162.789C169.243 162.537 168.77 162.412 168.225 162.412C167.624 162.412 167.104 162.561 166.665 162.859C166.23 163.153 165.896 163.537 165.661 164.01C165.427 164.483 165.31 164.99 165.31 165.531V166.4C165.31 167.142 165.438 167.77 165.693 168.286C165.953 168.797 166.313 169.187 166.774 169.456C167.234 169.72 167.769 169.852 168.378 169.852C168.774 169.852 169.132 169.797 169.452 169.686C169.776 169.571 170.055 169.4 170.289 169.175C170.524 168.944 170.705 168.659 170.832 168.318L172.29 168.727C172.136 169.221 171.879 169.656 171.516 170.031C171.154 170.402 170.707 170.692 170.174 170.9C169.641 171.105 169.043 171.207 168.378 171.207Z" fill="white"/>
<path d="M176.247 165.096V171.003H174.738V161.185H176.195V162.719H176.323C176.553 162.22 176.903 161.819 177.372 161.517C177.84 161.21 178.445 161.057 179.187 161.057C179.852 161.057 180.433 161.193 180.932 161.466C181.43 161.734 181.818 162.143 182.095 162.693C182.372 163.238 182.511 163.929 182.511 164.764V171.003H181.002V164.866C181.002 164.095 180.802 163.494 180.401 163.064C180.001 162.629 179.451 162.412 178.752 162.412C178.271 162.412 177.84 162.516 177.461 162.725C177.086 162.934 176.79 163.238 176.573 163.639C176.355 164.04 176.247 164.525 176.247 165.096Z" fill="white"/>
<path d="M198.358 161.185L194.728 171.003H193.193L189.563 161.185H191.199L193.909 169.008H194.012L196.722 161.185H198.358Z" fill="white"/>
<path d="M203.986 171.207C203.1 171.207 202.322 170.996 201.653 170.574C200.989 170.153 200.469 169.562 200.094 168.804C199.723 168.045 199.538 167.159 199.538 166.145C199.538 165.122 199.723 164.229 200.094 163.466C200.469 162.704 200.989 162.111 201.653 161.689C202.322 161.268 203.1 161.057 203.986 161.057C204.873 161.057 205.648 161.268 206.313 161.689C206.982 162.111 207.502 162.704 207.873 163.466C208.248 164.229 208.435 165.122 208.435 166.145C208.435 167.159 208.248 168.045 207.873 168.804C207.502 169.562 206.982 170.153 206.313 170.574C205.648 170.996 204.873 171.207 203.986 171.207ZM203.986 169.852C204.66 169.852 205.214 169.68 205.648 169.334C206.083 168.989 206.405 168.535 206.614 167.973C206.822 167.41 206.927 166.801 206.927 166.145C206.927 165.488 206.822 164.877 206.614 164.31C206.405 163.743 206.083 163.285 205.648 162.936C205.214 162.586 204.66 162.412 203.986 162.412C203.313 162.412 202.759 162.586 202.324 162.936C201.89 163.285 201.568 163.743 201.359 164.31C201.15 164.877 201.046 165.488 201.046 166.145C201.046 166.801 201.15 167.41 201.359 167.973C201.568 168.535 201.89 168.989 202.324 169.334C202.759 169.68 203.313 169.852 203.986 169.852Z" fill="white"/>
<path d="M211.358 174.685C211.102 174.685 210.874 174.663 210.674 174.621C210.474 174.582 210.335 174.544 210.259 174.506L210.642 173.176C211.009 173.27 211.332 173.304 211.614 173.278C211.895 173.253 212.144 173.127 212.362 172.901C212.583 172.68 212.786 172.319 212.969 171.821L213.25 171.054L209.619 161.185H211.256L213.966 169.008H214.068L216.779 161.185H218.415L214.247 172.435C214.06 172.942 213.828 173.361 213.551 173.694C213.274 174.03 212.952 174.28 212.585 174.442C212.223 174.604 211.814 174.685 211.358 174.685Z" fill="white"/>
<path d="M222.996 171.233C222.374 171.233 221.81 171.116 221.302 170.881C220.795 170.643 220.393 170.3 220.094 169.852C219.796 169.4 219.647 168.855 219.647 168.216C219.647 167.653 219.758 167.197 219.979 166.848C220.201 166.494 220.497 166.217 220.868 166.017C221.239 165.817 221.648 165.667 222.095 165.569C222.547 165.467 223.001 165.386 223.457 165.327C224.053 165.25 224.537 165.192 224.908 165.154C225.283 165.111 225.555 165.041 225.726 164.943C225.9 164.845 225.988 164.675 225.988 164.432V164.381C225.988 163.75 225.815 163.26 225.47 162.91C225.129 162.561 224.611 162.386 223.917 162.386C223.197 162.386 222.632 162.544 222.223 162.859C221.814 163.175 221.526 163.511 221.36 163.869L219.928 163.358C220.184 162.761 220.525 162.297 220.951 161.964C221.381 161.628 221.85 161.393 222.357 161.261C222.869 161.125 223.371 161.057 223.866 161.057C224.181 161.057 224.543 161.095 224.952 161.172C225.366 161.244 225.764 161.395 226.148 161.626C226.535 161.856 226.857 162.203 227.113 162.667C227.369 163.132 227.496 163.754 227.496 164.534V171.003H225.988V169.673H225.911C225.809 169.886 225.638 170.114 225.4 170.357C225.161 170.6 224.844 170.807 224.447 170.977C224.051 171.148 223.567 171.233 222.996 171.233ZM223.226 169.878C223.823 169.878 224.326 169.76 224.735 169.526C225.148 169.292 225.459 168.989 225.668 168.618C225.881 168.248 225.988 167.858 225.988 167.449V166.068C225.924 166.145 225.783 166.215 225.566 166.279C225.353 166.339 225.106 166.392 224.824 166.439C224.548 166.481 224.277 166.52 224.013 166.554C223.753 166.584 223.542 166.609 223.38 166.631C222.988 166.682 222.621 166.765 222.28 166.88C221.944 166.991 221.671 167.159 221.462 167.385C221.258 167.606 221.155 167.909 221.155 168.292C221.155 168.817 221.349 169.213 221.737 169.481C222.129 169.746 222.626 169.878 223.226 169.878Z" fill="white"/>
<path d="M234.213 174.889C233.484 174.889 232.858 174.795 232.334 174.608C231.809 174.425 231.373 174.182 231.023 173.879C230.678 173.581 230.403 173.261 230.199 172.92L231.4 172.077C231.537 172.256 231.709 172.46 231.918 172.69C232.127 172.925 232.412 173.127 232.775 173.297C233.141 173.472 233.62 173.56 234.213 173.56C235.005 173.56 235.66 173.368 236.175 172.984C236.691 172.601 236.949 172 236.949 171.182V169.187H236.821C236.71 169.366 236.552 169.588 236.348 169.852C236.147 170.112 235.858 170.344 235.478 170.549C235.103 170.749 234.596 170.849 233.957 170.849C233.165 170.849 232.453 170.662 231.822 170.287C231.196 169.912 230.699 169.366 230.333 168.65C229.971 167.935 229.79 167.065 229.79 166.042C229.79 165.037 229.966 164.161 230.32 163.415C230.674 162.665 231.166 162.086 231.797 161.677C232.427 161.263 233.156 161.057 233.983 161.057C234.622 161.057 235.129 161.163 235.504 161.376C235.883 161.585 236.173 161.824 236.373 162.092C236.578 162.356 236.736 162.574 236.846 162.744H237V161.185H238.457V171.284C238.457 172.128 238.265 172.814 237.882 173.342C237.503 173.875 236.991 174.265 236.348 174.512C235.709 174.763 234.997 174.889 234.213 174.889ZM234.162 169.494C234.767 169.494 235.278 169.356 235.696 169.079C236.113 168.802 236.431 168.403 236.648 167.883C236.866 167.363 236.974 166.741 236.974 166.017C236.974 165.31 236.868 164.685 236.655 164.144C236.442 163.603 236.126 163.179 235.709 162.872C235.291 162.565 234.775 162.412 234.162 162.412C233.522 162.412 232.99 162.574 232.564 162.898C232.142 163.221 231.824 163.656 231.611 164.202C231.402 164.747 231.298 165.352 231.298 166.017C231.298 166.699 231.405 167.302 231.618 167.826C231.835 168.346 232.155 168.755 232.576 169.053C233.003 169.347 233.531 169.494 234.162 169.494Z" fill="white"/>
<path d="M245.335 171.207C244.389 171.207 243.573 170.998 242.887 170.581C242.205 170.159 241.679 169.571 241.308 168.817C240.942 168.058 240.758 167.176 240.758 166.17C240.758 165.165 240.942 164.278 241.308 163.511C241.679 162.74 242.194 162.139 242.855 161.709C243.52 161.274 244.295 161.057 245.182 161.057C245.693 161.057 246.198 161.142 246.696 161.312C247.195 161.483 247.649 161.76 248.058 162.143C248.467 162.523 248.793 163.025 249.036 163.652C249.279 164.278 249.4 165.05 249.4 165.966V166.605H241.832V165.301H247.866C247.866 164.747 247.755 164.253 247.534 163.818C247.316 163.383 247.005 163.04 246.601 162.789C246.2 162.537 245.727 162.412 245.182 162.412C244.581 162.412 244.061 162.561 243.622 162.859C243.187 163.153 242.853 163.537 242.618 164.01C242.384 164.483 242.267 164.99 242.267 165.531V166.4C242.267 167.142 242.395 167.77 242.65 168.286C242.91 168.797 243.27 169.187 243.731 169.456C244.191 169.72 244.726 169.852 245.335 169.852C245.731 169.852 246.089 169.797 246.409 169.686C246.733 169.571 247.012 169.4 247.246 169.175C247.481 168.944 247.662 168.659 247.79 168.318L249.247 168.727C249.093 169.221 248.836 169.656 248.473 170.031C248.111 170.402 247.664 170.692 247.131 170.9C246.598 171.105 246 171.207 245.335 171.207Z" fill="white"/>
<path d="M27.355 193.188C26.7286 193.188 26.1704 193.079 25.6803 192.862C25.1903 192.64 24.8025 192.314 24.517 191.884C24.2357 191.449 24.0951 190.908 24.0951 190.26C24.0951 189.715 24.1952 189.257 24.3955 188.886C24.5958 188.515 24.8685 188.217 25.2137 187.991C25.5589 187.765 25.9509 187.595 26.3898 187.48C26.833 187.365 27.2975 187.284 27.7833 187.237C28.3543 187.177 28.8146 187.122 29.164 187.071C29.5134 187.015 29.767 186.935 29.9246 186.828C30.0823 186.721 30.1611 186.564 30.1611 186.355V186.317C30.1611 185.912 30.0333 185.599 29.7776 185.377C29.5262 185.155 29.1682 185.045 28.7038 185.045C28.2137 185.045 27.8238 185.153 27.534 185.371C27.2442 185.584 27.0525 185.852 26.9587 186.176L24.4403 185.971C24.5681 185.375 24.8195 184.859 25.1945 184.425C25.5695 183.986 26.0532 183.649 26.6455 183.415C27.2421 183.176 27.9325 183.057 28.7165 183.057C29.262 183.057 29.784 183.121 30.2826 183.248C30.7854 183.376 31.2307 183.574 31.6185 183.843C32.0106 184.111 32.3195 184.457 32.5454 184.878C32.7712 185.296 32.8842 185.797 32.8842 186.381V193.003H30.3018V191.641H30.2251C30.0674 191.948 29.8565 192.219 29.5923 192.453C29.328 192.683 29.0106 192.864 28.6398 192.996C28.2691 193.124 27.8408 193.188 27.355 193.188ZM28.1349 191.309C28.5354 191.309 28.8891 191.23 29.1959 191.072C29.5028 190.91 29.7435 190.693 29.9182 190.42C30.093 190.148 30.1803 189.839 30.1803 189.493V188.452C30.0951 188.507 29.9779 188.558 29.8288 188.605C29.6839 188.648 29.5198 188.688 29.3366 188.726C29.1533 188.761 28.9701 188.792 28.7869 188.822C28.6036 188.848 28.4374 188.871 28.2883 188.893C27.9687 188.939 27.6896 189.014 27.4509 189.116C27.2123 189.219 27.0269 189.357 26.8948 189.532C26.7627 189.702 26.6967 189.915 26.6967 190.171C26.6967 190.542 26.8309 190.825 27.0994 191.021C27.3721 191.213 27.7173 191.309 28.1349 191.309ZM27.8728 181.919L25.9232 179.01H28.4353L29.7968 181.919H27.8728Z" fill="white"/>
<path d="M39.2139 193.003V179.912H44.3787C45.3673 179.912 46.211 180.089 46.9099 180.442C47.613 180.792 48.1478 181.288 48.5143 181.932C48.885 182.571 49.0704 183.323 49.0704 184.188C49.0704 185.057 48.8829 185.805 48.5079 186.432C48.1329 187.054 47.5896 187.531 46.8779 187.863C46.1706 188.196 45.314 188.362 44.3083 188.362H40.8502V186.138H43.8609C44.3893 186.138 44.8282 186.065 45.1777 185.92C45.5271 185.775 45.787 185.558 45.9575 185.268C46.1322 184.979 46.2196 184.618 46.2196 184.188C46.2196 183.753 46.1322 183.387 45.9575 183.089C45.787 182.79 45.525 182.564 45.1713 182.411C44.8218 182.253 44.3808 182.175 43.8481 182.175H41.9816V193.003H39.2139ZM46.2835 187.045L49.537 193.003H46.4816L43.2984 187.045H46.2835Z" fill="white"/>
<path d="M53.6983 187.327V193.003H50.9752V179.912H53.6215V184.917H53.7366C53.9582 184.337 54.3162 183.883 54.8105 183.555C55.3048 183.223 55.9248 183.057 56.6706 183.057C57.3524 183.057 57.9468 183.206 58.4539 183.504C58.9653 183.798 59.3616 184.222 59.6429 184.776C59.9284 185.326 60.069 185.984 60.0647 186.751V193.003H57.3417V187.237C57.346 186.632 57.1926 186.161 56.8815 185.824C56.5747 185.488 56.1443 185.319 55.5903 185.319C55.2196 185.319 54.8914 185.398 54.6059 185.556C54.3247 185.714 54.1031 185.944 53.9412 186.246C53.7835 186.545 53.7025 186.905 53.6983 187.327Z" fill="white"/>
<path d="M66.6437 193.194C65.6508 193.194 64.7922 192.984 64.0677 192.562C63.3476 192.136 62.7915 191.543 62.3994 190.785C62.0074 190.022 61.8114 189.138 61.8114 188.132C61.8114 187.118 62.0074 186.231 62.3994 185.473C62.7915 184.71 63.3476 184.118 64.0677 183.696C64.7922 183.27 65.6508 183.057 66.6437 183.057C67.6366 183.057 68.4932 183.27 69.2133 183.696C69.9378 184.118 70.496 184.71 70.8881 185.473C71.2801 186.231 71.4761 187.118 71.4761 188.132C71.4761 189.138 71.2801 190.022 70.8881 190.785C70.496 191.543 69.9378 192.136 69.2133 192.562C68.4932 192.984 67.6366 193.194 66.6437 193.194ZM66.6565 191.085C67.1082 191.085 67.4854 190.957 67.7879 190.702C68.0905 190.442 68.3185 190.088 68.4719 189.64C68.6295 189.193 68.7084 188.684 68.7084 188.113C68.7084 187.542 68.6295 187.033 68.4719 186.585C68.3185 186.138 68.0905 185.784 67.7879 185.524C67.4854 185.264 67.1082 185.134 66.6565 185.134C66.2006 185.134 65.817 185.264 65.506 185.524C65.1991 185.784 64.9669 186.138 64.8092 186.585C64.6558 187.033 64.5791 187.542 64.5791 188.113C64.5791 188.684 64.6558 189.193 64.8092 189.64C64.9669 190.088 65.1991 190.442 65.506 190.702C65.817 190.957 66.2006 191.085 66.6565 191.085Z" fill="white"/>
<path d="M76.8646 193.162C76.1189 193.162 75.4435 192.971 74.8383 192.587C74.2375 192.199 73.7602 191.631 73.4065 190.881C73.0571 190.126 72.8824 189.202 72.8824 188.106C72.8824 186.981 73.0635 186.046 73.4257 185.3C73.7879 184.55 74.2695 183.99 74.8703 183.619C75.4754 183.244 76.1381 183.057 76.8582 183.057C77.4079 183.057 77.866 183.15 78.2325 183.338C78.6033 183.521 78.9016 183.751 79.1274 184.028C79.3575 184.301 79.5322 184.569 79.6516 184.834H79.7347V179.912H82.4513V193.003H79.7666V191.43H79.6516C79.5237 191.703 79.3426 191.974 79.1082 192.242C78.8781 192.506 78.5777 192.726 78.207 192.9C77.8405 193.075 77.393 193.162 76.8646 193.162ZM77.7276 190.996C78.1665 190.996 78.5372 190.876 78.8398 190.638C79.1466 190.395 79.381 190.056 79.5429 189.621C79.7091 189.187 79.7922 188.677 79.7922 188.094C79.7922 187.51 79.7112 187.003 79.5493 186.572C79.3874 186.142 79.153 185.81 78.8462 185.575C78.5393 185.341 78.1665 185.224 77.7276 185.224C77.2801 185.224 76.903 185.345 76.5962 185.588C76.2893 185.831 76.0571 186.167 75.8994 186.598C75.7418 187.028 75.6629 187.527 75.6629 188.094C75.6629 188.665 75.7418 189.17 75.8994 189.609C76.0614 190.043 76.2936 190.384 76.5962 190.631C76.903 190.874 77.2801 190.996 77.7276 190.996Z" fill="white"/>
<path d="M89.1645 193.194C88.1546 193.194 87.2853 192.99 86.5566 192.581C85.8321 192.167 85.2739 191.584 84.8818 190.829C84.4898 190.071 84.2938 189.174 84.2938 188.138C84.2938 187.128 84.4898 186.242 84.8818 185.479C85.2739 184.716 85.8257 184.122 86.5374 183.696C87.2533 183.27 88.0928 183.057 89.0559 183.057C89.7036 183.057 90.3066 183.161 90.8648 183.37C91.4273 183.574 91.9174 183.883 92.335 184.297C92.7569 184.71 93.085 185.23 93.3194 185.856C93.5537 186.479 93.6709 187.207 93.6709 188.042V188.79H85.3804V187.103H91.1077C91.1077 186.711 91.0225 186.363 90.852 186.061C90.6816 185.758 90.4451 185.522 90.1425 185.351C89.8442 185.177 89.4969 185.089 89.1006 185.089C88.6872 185.089 88.3208 185.185 88.0012 185.377C87.6858 185.564 87.4387 185.818 87.2597 186.138C87.0807 186.453 86.9891 186.805 86.9848 187.192V188.797C86.9848 189.283 87.0743 189.702 87.2533 190.056C87.4365 190.41 87.6943 190.682 88.0267 190.874C88.3591 191.066 88.7533 191.162 89.2093 191.162C89.5118 191.162 89.7888 191.119 90.0402 191.034C90.2917 190.949 90.5068 190.821 90.6858 190.65C90.8648 190.48 91.0012 190.271 91.0949 190.024L93.6134 190.19C93.4855 190.795 93.2235 191.324 92.8272 191.775C92.4351 192.223 91.928 192.572 91.3059 192.824C90.688 193.071 89.9742 193.194 89.1645 193.194Z" fill="white"/>
<path d="M103.617 185.984L101.124 186.138C101.081 185.925 100.99 185.733 100.849 185.562C100.709 185.388 100.523 185.249 100.293 185.147C100.067 185.04 99.7966 184.987 99.4813 184.987C99.0594 184.987 98.7036 185.077 98.4138 185.256C98.124 185.43 97.9791 185.665 97.9791 185.959C97.9791 186.193 98.0729 186.391 98.2604 186.553C98.4479 186.715 98.7696 186.845 99.2256 186.943L101.003 187.301C101.957 187.497 102.669 187.812 103.138 188.247C103.606 188.682 103.841 189.253 103.841 189.96C103.841 190.604 103.651 191.168 103.272 191.654C102.897 192.14 102.381 192.519 101.725 192.792C101.073 193.06 100.321 193.194 99.4685 193.194C98.1688 193.194 97.1333 192.924 96.362 192.383C95.5949 191.837 95.1453 191.096 95.0132 190.158L97.6915 190.018C97.7725 190.414 97.9685 190.716 98.2796 190.925C98.5907 191.13 98.9891 191.232 99.4749 191.232C99.9522 191.232 100.336 191.14 100.625 190.957C100.919 190.77 101.069 190.529 101.073 190.235C101.069 189.988 100.964 189.785 100.76 189.628C100.555 189.466 100.24 189.342 99.8137 189.257L98.1134 188.918C97.1546 188.726 96.4408 188.394 95.972 187.921C95.5076 187.448 95.2753 186.845 95.2753 186.112C95.2753 185.481 95.4458 184.938 95.7867 184.482C96.1318 184.026 96.6155 183.675 97.2377 183.427C97.8641 183.18 98.597 183.057 99.4365 183.057C100.677 183.057 101.652 183.319 102.364 183.843C103.08 184.367 103.498 185.081 103.617 185.984Z" fill="white"/>
<path d="M108.515 191.213L108.445 191.916C108.389 192.479 108.283 193.039 108.125 193.597C107.972 194.16 107.81 194.669 107.639 195.125C107.473 195.581 107.339 195.939 107.236 196.199H105.472C105.536 195.947 105.624 195.596 105.734 195.144C105.845 194.697 105.949 194.194 106.048 193.635C106.146 193.077 106.207 192.508 106.233 191.929L106.265 191.213H108.515Z" fill="white"/>
<path d="M123.287 184.143C123.197 183.832 123.072 183.557 122.91 183.319C122.748 183.076 122.55 182.871 122.315 182.705C122.085 182.535 121.821 182.405 121.523 182.315C121.229 182.226 120.903 182.181 120.545 182.181C119.876 182.181 119.288 182.347 118.78 182.68C118.278 183.012 117.886 183.496 117.604 184.131C117.323 184.761 117.182 185.533 117.182 186.444C117.182 187.356 117.321 188.132 117.598 188.771C117.875 189.41 118.267 189.898 118.774 190.235C119.281 190.567 119.88 190.734 120.57 190.734C121.197 190.734 121.731 190.623 122.175 190.401C122.622 190.175 122.963 189.858 123.197 189.449C123.436 189.04 123.555 188.556 123.555 187.998L124.118 188.081H120.743V185.997H126.221V187.646C126.221 188.797 125.978 189.785 125.492 190.612C125.006 191.435 124.337 192.069 123.485 192.517C122.633 192.96 121.657 193.182 120.557 193.182C119.33 193.182 118.252 192.911 117.323 192.37C116.394 191.824 115.67 191.051 115.15 190.05C114.634 189.044 114.376 187.851 114.376 186.47C114.376 185.409 114.53 184.463 114.837 183.632C115.148 182.797 115.582 182.089 116.141 181.51C116.699 180.93 117.349 180.489 118.09 180.187C118.832 179.884 119.635 179.733 120.5 179.733C121.241 179.733 121.932 179.841 122.571 180.059C123.21 180.272 123.777 180.574 124.271 180.966C124.77 181.359 125.177 181.825 125.492 182.366C125.807 182.903 126.01 183.496 126.099 184.143H123.287Z" fill="white"/>
<path d="M128.249 193.003V183.185H130.889V184.898H130.991C131.17 184.288 131.47 183.828 131.892 183.517C132.314 183.202 132.8 183.044 133.35 183.044C133.486 183.044 133.633 183.052 133.791 183.069C133.948 183.086 134.087 183.11 134.206 183.14V185.556C134.078 185.518 133.901 185.484 133.676 185.454C133.45 185.424 133.243 185.409 133.055 185.409C132.655 185.409 132.297 185.496 131.982 185.671C131.671 185.841 131.423 186.08 131.24 186.387C131.061 186.694 130.972 187.047 130.972 187.448V193.003H128.249Z" fill="white"/>
<path d="M139.631 193.194C138.621 193.194 137.752 192.99 137.023 192.581C136.299 192.167 135.741 191.584 135.349 190.829C134.957 190.071 134.761 189.174 134.761 188.138C134.761 187.128 134.957 186.242 135.349 185.479C135.741 184.716 136.293 184.122 137.004 183.696C137.72 183.27 138.56 183.057 139.523 183.057C140.17 183.057 140.773 183.161 141.332 183.37C141.894 183.574 142.384 183.883 142.802 184.297C143.224 184.71 143.552 185.23 143.786 185.856C144.021 186.479 144.138 187.207 144.138 188.042V188.79H135.847V187.103H141.574C141.574 186.711 141.489 186.363 141.319 186.061C141.148 185.758 140.912 185.522 140.609 185.351C140.311 185.177 139.964 185.089 139.567 185.089C139.154 185.089 138.788 185.185 138.468 185.377C138.153 185.564 137.905 185.818 137.726 186.138C137.548 186.453 137.456 186.805 137.452 187.192V188.797C137.452 189.283 137.541 189.702 137.72 190.056C137.903 190.41 138.161 190.682 138.494 190.874C138.826 191.066 139.22 191.162 139.676 191.162C139.979 191.162 140.256 191.119 140.507 191.034C140.758 190.949 140.974 190.821 141.153 190.65C141.332 190.48 141.468 190.271 141.562 190.024L144.08 190.19C143.952 190.795 143.69 191.324 143.294 191.775C142.902 192.223 142.395 192.572 141.773 192.824C141.155 193.071 140.441 193.194 139.631 193.194ZM138.519 181.919L136.57 179.01H139.082L140.443 181.919H138.519Z" fill="white"/>
<path d="M150.351 193.194C149.345 193.194 148.48 192.981 147.756 192.555C147.035 192.125 146.481 191.528 146.094 190.765C145.71 190.003 145.518 189.125 145.518 188.132C145.518 187.126 145.712 186.244 146.1 185.486C146.492 184.723 147.048 184.128 147.768 183.702C148.489 183.272 149.345 183.057 150.338 183.057C151.195 183.057 151.945 183.212 152.588 183.523C153.231 183.834 153.741 184.271 154.116 184.834C154.491 185.396 154.697 186.057 154.736 186.815H152.166C152.094 186.325 151.902 185.931 151.591 185.633C151.284 185.33 150.881 185.179 150.383 185.179C149.961 185.179 149.592 185.294 149.277 185.524C148.966 185.75 148.723 186.08 148.548 186.515C148.374 186.949 148.286 187.476 148.286 188.094C148.286 188.72 148.371 189.253 148.542 189.692C148.717 190.131 148.962 190.465 149.277 190.695C149.592 190.925 149.961 191.04 150.383 191.04C150.694 191.04 150.973 190.976 151.22 190.849C151.472 190.721 151.678 190.535 151.84 190.292C152.006 190.045 152.115 189.749 152.166 189.404H154.736C154.693 190.154 154.489 190.814 154.122 191.385C153.76 191.952 153.259 192.395 152.62 192.715C151.981 193.035 151.224 193.194 150.351 193.194Z" fill="white"/>
<path d="M160.954 193.194C159.944 193.194 159.074 192.99 158.346 192.581C157.621 192.167 157.063 191.584 156.671 190.829C156.279 190.071 156.083 189.174 156.083 188.138C156.083 187.128 156.279 186.242 156.671 185.479C157.063 184.716 157.615 184.122 158.326 183.696C159.042 183.27 159.882 183.057 160.845 183.057C161.493 183.057 162.096 183.161 162.654 183.37C163.216 183.574 163.706 183.883 164.124 184.297C164.546 184.71 164.874 185.23 165.108 185.856C165.343 186.479 165.46 187.207 165.46 188.042V188.79H157.169V187.103H162.897C162.897 186.711 162.812 186.363 162.641 186.061C162.471 185.758 162.234 185.522 161.932 185.351C161.633 185.177 161.286 185.089 160.89 185.089C160.476 185.089 160.11 185.185 159.79 185.377C159.475 185.564 159.228 185.818 159.049 186.138C158.87 186.453 158.778 186.805 158.774 187.192V188.797C158.774 189.283 158.863 189.702 159.042 190.056C159.226 190.41 159.483 190.682 159.816 190.874C160.148 191.066 160.542 191.162 160.998 191.162C161.301 191.162 161.578 191.119 161.829 191.034C162.081 190.949 162.296 190.821 162.475 190.65C162.654 190.48 162.79 190.271 162.884 190.024L165.402 190.19C165.275 190.795 165.013 191.324 164.616 191.775C164.224 192.223 163.717 192.572 163.095 192.824C162.477 193.071 161.763 193.194 160.954 193.194Z" fill="white"/>
<path d="M170.196 191.213L170.126 191.916C170.071 192.479 169.964 193.039 169.807 193.597C169.653 194.16 169.491 194.669 169.321 195.125C169.155 195.581 169.02 195.939 168.918 196.199H167.154C167.218 195.947 167.305 195.596 167.416 195.144C167.527 194.697 167.631 194.194 167.729 193.635C167.827 193.077 167.889 192.508 167.915 191.929L167.946 191.213H170.196Z" fill="white"/>
<path d="M176.211 193.003V191.008L180.871 186.694C181.268 186.31 181.6 185.965 181.868 185.658C182.141 185.351 182.348 185.051 182.488 184.757C182.629 184.459 182.699 184.137 182.699 183.792C182.699 183.408 182.612 183.078 182.437 182.801C182.263 182.52 182.024 182.305 181.721 182.155C181.419 182.002 181.076 181.925 180.692 181.925C180.292 181.925 179.942 182.006 179.644 182.168C179.346 182.33 179.116 182.562 178.954 182.865C178.792 183.167 178.711 183.528 178.711 183.945H176.084C176.084 183.089 176.277 182.345 176.665 181.714C177.053 181.084 177.596 180.596 178.295 180.251C178.994 179.905 179.799 179.733 180.711 179.733C181.649 179.733 182.465 179.899 183.16 180.231C183.858 180.56 184.402 181.015 184.79 181.599C185.177 182.183 185.371 182.852 185.371 183.606C185.371 184.101 185.273 184.589 185.077 185.07C184.885 185.552 184.542 186.086 184.048 186.675C183.554 187.258 182.857 187.959 181.958 188.778L180.047 190.65V190.74H185.544V193.003H176.211Z" fill="white"/>
<path d="M192.682 193.29C191.583 193.286 190.637 193.015 189.844 192.479C189.056 191.942 188.448 191.164 188.022 190.145C187.6 189.127 187.392 187.902 187.396 186.47C187.396 185.042 187.607 183.826 188.029 182.82C188.455 181.814 189.062 181.05 189.85 180.525C190.643 179.997 191.587 179.733 192.682 179.733C193.777 179.733 194.719 179.997 195.507 180.525C196.3 181.054 196.909 181.821 197.336 182.827C197.762 183.828 197.973 185.042 197.968 186.47C197.968 187.906 197.755 189.133 197.329 190.152C196.907 191.17 196.302 191.948 195.514 192.485C194.725 193.022 193.782 193.29 192.682 193.29ZM192.682 190.996C193.432 190.996 194.031 190.618 194.478 189.864C194.926 189.11 195.147 187.979 195.143 186.47C195.143 185.477 195.041 184.65 194.836 183.99C194.636 183.329 194.35 182.833 193.98 182.501C193.613 182.168 193.181 182.002 192.682 182.002C191.936 182.002 191.34 182.375 190.892 183.121C190.445 183.866 190.219 184.983 190.215 186.47C190.215 187.476 190.315 188.315 190.515 188.988C190.72 189.658 191.007 190.16 191.378 190.497C191.749 190.829 192.184 190.996 192.682 190.996Z" fill="white"/>
<path d="M199.942 193.003V191.008L204.602 186.694C204.998 186.31 205.33 185.965 205.599 185.658C205.872 185.351 206.078 185.051 206.219 184.757C206.359 184.459 206.43 184.137 206.43 183.792C206.43 183.408 206.342 183.078 206.168 182.801C205.993 182.52 205.754 182.305 205.452 182.155C205.149 182.002 204.806 181.925 204.423 181.925C204.022 181.925 203.673 182.006 203.374 182.168C203.076 182.33 202.846 182.562 202.684 182.865C202.522 183.167 202.441 183.528 202.441 183.945H199.814C199.814 183.089 200.008 182.345 200.396 181.714C200.783 181.084 201.327 180.596 202.026 180.251C202.725 179.905 203.53 179.733 204.442 179.733C205.379 179.733 206.195 179.899 206.89 180.231C207.589 180.56 208.132 181.015 208.52 181.599C208.908 182.183 209.102 182.852 209.102 183.606C209.102 184.101 209.004 184.589 208.808 185.07C208.616 185.552 208.273 186.086 207.779 186.675C207.284 187.258 206.587 187.959 205.688 188.778L203.777 190.65V190.74H209.274V193.003H199.942Z" fill="white"/>
<path d="M216.975 179.912V193.003H214.207V182.539H214.131L211.133 184.418V181.964L214.374 179.912H216.975Z" fill="white"/>
</g>
<path d="M232.084 27.8655L235.755 61.0488L199.599 35.5691L232.084 27.8655Z" fill="#1C2F67"/>
</svg>
