<svg width="336" height="228" viewBox="0 0 336 228" fill="none" xmlns="http://www.w3.org/2000/svg">
<mask id="mask0_41_26" style="mask-type:alpha" maskUnits="userSpaceOnUse" x="0" y="0" width="336" height="228">
<rect width="335.5" height="227.283" transform="matrix(-1 0 0 1 335.5 0.5)" fill="#1C2F67"/>
</mask>
<g mask="url(#mask0_41_26)">
<ellipse cx="236.276" cy="233.657" rx="236.276" ry="233.657" transform="matrix(-1 0 0 1 331.993 6.1256)" fill="#1C2F67"/>
<path d="M31.8397 74.9832L27.6796 88.4598H23.2616L29.5311 71.3973H32.3319L31.8397 74.9832ZM35.285 88.4598L31.1132 74.9832L30.5741 71.3973H33.41L39.7147 88.4598H35.285ZM35.121 82.0965V85.2723H26.3671V82.0965H35.121Z" fill="white"/>
<path d="M52.4882 88.4598H48.703L48.7264 85.2957H52.4882C53.2694 85.2957 53.9296 85.1082 54.4686 84.7332C55.0155 84.3582 55.4296 83.7996 55.7108 83.0574C55.9999 82.3074 56.1444 81.3855 56.1444 80.2918V79.5535C56.1444 78.7332 56.0624 78.0145 55.8983 77.3973C55.7421 76.7723 55.5077 76.2527 55.1952 75.8387C54.8827 75.4168 54.4921 75.1004 54.0233 74.8895C53.5624 74.6785 53.0311 74.573 52.4296 74.573H48.6327V71.3973H52.4296C53.5858 71.3973 54.6444 71.5965 55.6053 71.9949C56.5741 72.3855 57.41 72.948 58.1132 73.6824C58.8241 74.409 59.371 75.2723 59.7538 76.2723C60.1444 77.2645 60.3397 78.366 60.3397 79.577V80.2918C60.3397 81.4949 60.1444 82.5965 59.7538 83.5965C59.371 84.5965 58.828 85.4598 58.1249 86.1863C57.4218 86.9129 56.5897 87.4754 55.6288 87.8738C54.6757 88.2645 53.6288 88.4598 52.4882 88.4598ZM51.0585 71.3973V88.4598H46.9452V71.3973H51.0585Z" fill="white"/>
<path d="M74.2264 85.2957V88.4598H65.1327V85.2957H74.2264ZM66.5975 71.3973V88.4598H62.4843V71.3973H66.5975ZM73.0546 78.1707V81.2293H65.1327V78.1707H73.0546ZM74.2616 71.3973V74.573H65.1327V71.3973H74.2616Z" fill="white"/>
<path d="M82.371 84.4402L85.9218 71.3973H90.5272L84.7733 88.4598H81.7968L82.371 84.4402ZM79.1483 71.3973L82.6991 84.4402L83.2968 88.4598H80.285L74.5663 71.3973H79.1483Z" fill="white"/>
<path d="M103.523 85.2957V88.4598H94.4296V85.2957H103.523ZM95.8944 71.3973V88.4598H91.7811V71.3973H95.8944ZM102.351 78.1707V81.2293H94.4296V78.1707H102.351ZM103.558 71.3973V74.573H94.4296V71.3973H103.558Z" fill="white"/>
<path d="M116.484 85.2957V88.4598H107.859V85.2957H116.484ZM109.324 71.3973V88.4598H105.211V71.3973H109.324Z" fill="white"/>
<path d="M131.906 79.5887V80.2801C131.906 81.5848 131.723 82.7566 131.355 83.7957C130.996 84.827 130.484 85.7098 129.82 86.4441C129.156 87.1707 128.371 87.7293 127.465 88.1199C126.558 88.5027 125.558 88.6941 124.465 88.6941C123.363 88.6941 122.355 88.5027 121.441 88.1199C120.535 87.7293 119.746 87.1707 119.074 86.4441C118.41 85.7098 117.894 84.827 117.527 83.7957C117.168 82.7566 116.988 81.5848 116.988 80.2801V79.5887C116.988 78.284 117.168 77.1121 117.527 76.073C117.894 75.034 118.406 74.1512 119.062 73.4246C119.726 72.6902 120.512 72.1316 121.418 71.7488C122.332 71.3582 123.34 71.1629 124.441 71.1629C125.535 71.1629 126.535 71.3582 127.441 71.7488C128.355 72.1316 129.144 72.6902 129.808 73.4246C130.473 74.1512 130.988 75.034 131.355 76.073C131.723 77.1121 131.906 78.284 131.906 79.5887ZM127.734 80.2801V79.5652C127.734 78.7215 127.66 77.9793 127.512 77.3387C127.371 76.6902 127.16 76.1473 126.879 75.7098C126.598 75.2723 126.25 74.9441 125.836 74.7254C125.43 74.4988 124.965 74.3855 124.441 74.3855C123.894 74.3855 123.418 74.4988 123.012 74.7254C122.605 74.9441 122.266 75.2723 121.992 75.7098C121.719 76.1473 121.512 76.6902 121.371 77.3387C121.238 77.9793 121.172 78.7215 121.172 79.5652V80.2801C121.172 81.116 121.238 81.8582 121.371 82.5066C121.512 83.1473 121.719 83.6902 121.992 84.1355C122.273 84.5809 122.617 84.9168 123.023 85.1434C123.437 85.3699 123.918 85.4832 124.465 85.4832C124.988 85.4832 125.453 85.3699 125.859 85.1434C126.266 84.9168 126.605 84.5809 126.879 84.1355C127.16 83.6902 127.371 83.1473 127.512 82.5066C127.66 81.8582 127.734 81.116 127.734 80.2801Z" fill="white"/>
<path d="M140.848 82.6707H136.605V79.4949H140.848C141.426 79.4949 141.894 79.3973 142.254 79.202C142.613 79.0066 142.875 78.7371 143.039 78.3934C143.211 78.0418 143.297 77.6473 143.297 77.2098C143.297 76.741 143.211 76.3074 143.039 75.909C142.875 75.5105 142.613 75.1902 142.254 74.948C141.894 74.698 141.426 74.573 140.848 74.573H138.152V88.4598H134.039V71.3973H140.848C142.215 71.3973 143.391 71.6473 144.375 72.1473C145.367 72.6473 146.129 73.3348 146.66 74.2098C147.191 75.077 147.457 76.0691 147.457 77.1863C147.457 78.2879 147.191 79.2488 146.66 80.0691C146.129 80.8895 145.367 81.5301 144.375 81.991C143.391 82.4441 142.215 82.6707 140.848 82.6707Z" fill="white"/>
<path d="M161.414 85.2957V88.4598H152.32V85.2957H161.414ZM153.785 71.3973V88.4598H149.672V71.3973H153.785ZM160.242 78.1707V81.2293H152.32V78.1707H160.242ZM161.449 71.3973V74.573H152.32V71.3973H161.449Z" fill="white"/>
<path d="M163.101 71.3973H169.816C171.129 71.3973 172.269 71.5926 173.238 71.9832C174.207 72.3738 174.953 72.952 175.476 73.7176C176.008 74.4832 176.273 75.4285 176.273 76.5535C176.273 77.5301 176.121 78.3465 175.816 79.0027C175.512 79.659 175.086 80.202 174.539 80.6316C174 81.0535 173.371 81.4012 172.652 81.6746L171.305 82.4363H165.668L165.644 79.2605H169.816C170.34 79.2605 170.773 79.1668 171.117 78.9793C171.461 78.7918 171.719 78.5262 171.891 78.1824C172.07 77.8309 172.16 77.4129 172.16 76.9285C172.16 76.4363 172.07 76.0145 171.891 75.6629C171.711 75.3113 171.445 75.0418 171.094 74.8543C170.75 74.6668 170.324 74.573 169.816 74.573H167.215V88.4598H163.101V71.3973ZM172.441 88.4598L168.668 80.9129L173.027 80.8895L176.848 88.284V88.4598H172.441Z" fill="white"/>
<path d="M191.965 74.9832L187.805 88.4598H183.387L189.656 71.3973H192.457L191.965 74.9832ZM195.41 88.4598L191.238 74.9832L190.699 71.3973H193.535L199.84 88.4598H195.41ZM195.246 82.0965V85.2723H186.492V82.0965H195.246Z" fill="white"/>
<path d="M207.949 71.3973V88.4598H203.836V71.3973H207.949ZM213.082 71.3973V74.573H198.82V71.3973H213.082Z" fill="white"/>
<path d="M28.5468 121.913L31.9452 106.397H33.9725L35.0741 107.721L31.453 123.46H29.2147L28.5468 121.913ZM27.6444 106.397L30.5155 122.03L29.7772 123.46H27.1874L23.5663 106.397H27.6444ZM36.9374 121.948L39.785 106.397H43.8514L40.2303 123.46H37.6522L36.9374 121.948ZM35.4374 106.397L38.9178 122.007L38.2147 123.46H35.9764L32.2733 107.698L33.4218 106.397H35.4374Z" fill="white"/>
<path d="M59.9061 114.589V115.28C59.9061 116.585 59.7225 117.757 59.3553 118.796C58.996 119.827 58.4843 120.71 57.8202 121.444C57.1561 122.171 56.371 122.729 55.4647 123.12C54.5585 123.503 53.5585 123.694 52.4647 123.694C51.3632 123.694 50.3553 123.503 49.4413 123.12C48.535 122.729 47.746 122.171 47.0741 121.444C46.41 120.71 45.8944 119.827 45.5272 118.796C45.1678 117.757 44.9882 116.585 44.9882 115.28V114.589C44.9882 113.284 45.1678 112.112 45.5272 111.073C45.8944 110.034 46.4061 109.151 47.0624 108.425C47.7264 107.69 48.5116 107.132 49.4178 106.749C50.3319 106.358 51.3397 106.163 52.4413 106.163C53.535 106.163 54.535 106.358 55.4413 106.749C56.3553 107.132 57.1444 107.69 57.8085 108.425C58.4725 109.151 58.9882 110.034 59.3553 111.073C59.7225 112.112 59.9061 113.284 59.9061 114.589ZM55.7343 115.28V114.565C55.7343 113.721 55.66 112.979 55.5116 112.339C55.371 111.69 55.16 111.147 54.8788 110.71C54.5975 110.272 54.2499 109.944 53.8358 109.725C53.4296 109.499 52.9647 109.386 52.4413 109.386C51.8944 109.386 51.4178 109.499 51.0116 109.725C50.6053 109.944 50.2655 110.272 49.9921 110.71C49.7186 111.147 49.5116 111.69 49.371 112.339C49.2382 112.979 49.1718 113.721 49.1718 114.565V115.28C49.1718 116.116 49.2382 116.858 49.371 117.507C49.5116 118.147 49.7186 118.69 49.9921 119.136C50.2733 119.581 50.6171 119.917 51.0233 120.143C51.4374 120.37 51.9178 120.483 52.4647 120.483C52.9882 120.483 53.453 120.37 53.8593 120.143C54.2655 119.917 54.6053 119.581 54.8788 119.136C55.16 118.69 55.371 118.147 55.5116 117.507C55.66 116.858 55.7343 116.116 55.7343 115.28Z" fill="white"/>
<path d="M62.0389 106.397H68.7538C70.0663 106.397 71.2069 106.593 72.1757 106.983C73.1444 107.374 73.8905 107.952 74.4139 108.718C74.9452 109.483 75.2108 110.429 75.2108 111.554C75.2108 112.53 75.0585 113.346 74.7538 114.003C74.4491 114.659 74.0233 115.202 73.4764 115.632C72.9374 116.054 72.3085 116.401 71.5897 116.675L70.2421 117.436H64.6053L64.5819 114.261H68.7538C69.2772 114.261 69.7108 114.167 70.0546 113.979C70.3983 113.792 70.6561 113.526 70.828 113.182C71.0077 112.831 71.0975 112.413 71.0975 111.929C71.0975 111.436 71.0077 111.014 70.828 110.663C70.6483 110.311 70.3827 110.042 70.0311 109.854C69.6874 109.667 69.2616 109.573 68.7538 109.573H66.1522V123.46H62.0389V106.397ZM71.3788 123.46L67.6053 115.913L71.9647 115.889L75.785 123.284V123.46H71.3788Z" fill="white"/>
<path d="M81.8085 106.397V123.46H77.6952V106.397H81.8085ZM91.9921 106.397L85.3827 115.046L81.5155 119.276L80.7655 115.503L83.2382 111.753L86.9178 106.397H91.9921ZM87.1288 123.46L82.7225 115.772L85.9218 113.417L91.9921 123.46H87.1288Z" fill="white"/>
<path d="M93.1171 121.608C93.1171 121.046 93.3202 120.577 93.7264 120.202C94.1327 119.819 94.6561 119.628 95.2968 119.628C95.9452 119.628 96.4686 119.819 96.8671 120.202C97.2733 120.577 97.4764 121.046 97.4764 121.608C97.4764 122.171 97.2733 122.643 96.8671 123.026C96.4686 123.401 95.9452 123.589 95.2968 123.589C94.6561 123.589 94.1327 123.401 93.7264 123.026C93.3202 122.643 93.1171 122.171 93.1171 121.608Z" fill="white"/>
<path d="M100.383 121.608C100.383 121.046 100.586 120.577 100.992 120.202C101.398 119.819 101.922 119.628 102.562 119.628C103.211 119.628 103.734 119.819 104.133 120.202C104.539 120.577 104.742 121.046 104.742 121.608C104.742 122.171 104.539 122.643 104.133 123.026C103.734 123.401 103.211 123.589 102.562 123.589C101.922 123.589 101.398 123.401 100.992 123.026C100.586 122.643 100.383 122.171 100.383 121.608Z" fill="white"/>
<path d="M107.648 121.608C107.648 121.046 107.851 120.577 108.258 120.202C108.664 119.819 109.187 119.628 109.828 119.628C110.476 119.628 111 119.819 111.398 120.202C111.805 120.577 112.008 121.046 112.008 121.608C112.008 122.171 111.805 122.643 111.398 123.026C111 123.401 110.476 123.589 109.828 123.589C109.187 123.589 108.664 123.401 108.258 123.026C107.851 122.643 107.648 122.171 107.648 121.608Z" fill="white"/>
<path d="M24.6064 168.628V155.537H29.7712C30.7641 155.537 31.61 155.727 32.3088 156.106C33.0077 156.481 33.5404 157.003 33.9068 157.672C34.2776 158.337 34.4629 159.104 34.4629 159.973C34.4629 160.843 34.2754 161.61 33.9004 162.275C33.5254 162.939 32.9821 163.457 32.2705 163.828C31.5631 164.199 30.7066 164.384 29.7009 164.384H26.409V162.166H29.2534C29.7861 162.166 30.225 162.074 30.5702 161.891C30.9196 161.704 31.1796 161.446 31.35 161.118C31.5247 160.785 31.6121 160.404 31.6121 159.973C31.6121 159.539 31.5247 159.159 31.35 158.836C31.1796 158.507 30.9196 158.254 30.5702 158.075C30.2208 157.892 29.7776 157.8 29.2406 157.8H27.3742V168.628H24.6064Z" fill="white"/>
<path d="M40.4874 168.82C39.4946 168.82 38.6359 168.609 37.9115 168.187C37.1913 167.761 36.6352 167.169 36.2431 166.41C35.8511 165.647 35.6551 164.763 35.6551 163.757C35.6551 162.743 35.8511 161.857 36.2431 161.098C36.6352 160.336 37.1913 159.743 37.9115 159.321C38.6359 158.895 39.4946 158.682 40.4874 158.682C41.4803 158.682 42.3369 158.895 43.0571 159.321C43.7815 159.743 44.3397 160.336 44.7318 161.098C45.1238 161.857 45.3198 162.743 45.3198 163.757C45.3198 164.763 45.1238 165.647 44.7318 166.41C44.3397 167.169 43.7815 167.761 43.0571 168.187C42.3369 168.609 41.4803 168.82 40.4874 168.82ZM40.5002 166.711C40.9519 166.711 41.3291 166.583 41.6316 166.327C41.9342 166.067 42.1622 165.713 42.3156 165.266C42.4732 164.819 42.5521 164.309 42.5521 163.738C42.5521 163.167 42.4732 162.658 42.3156 162.211C42.1622 161.763 41.9342 161.409 41.6316 161.15C41.3291 160.89 40.9519 160.76 40.5002 160.76C40.0443 160.76 39.6607 160.89 39.3497 161.15C39.0428 161.409 38.8106 161.763 38.6529 162.211C38.4995 162.658 38.4228 163.167 38.4228 163.738C38.4228 164.309 38.4995 164.819 38.6529 165.266C38.8106 165.713 39.0428 166.067 39.3497 166.327C39.6607 166.583 40.0443 166.711 40.5002 166.711Z" fill="white"/>
<path d="M47.0904 168.628V158.81H49.8134V168.628H47.0904ZM48.4583 157.544C48.0535 157.544 47.7062 157.41 47.4164 157.142C47.1309 156.869 46.9882 156.543 46.9882 156.164C46.9882 155.789 47.1309 155.467 47.4164 155.199C47.7062 154.926 48.0535 154.789 48.4583 154.789C48.8632 154.789 49.2083 154.926 49.4938 155.199C49.7836 155.467 49.9285 155.789 49.9285 156.164C49.9285 156.543 49.7836 156.869 49.4938 157.142C49.2083 157.41 48.8632 157.544 48.4583 157.544Z" fill="white"/>
<path d="M60.1638 161.61L57.6709 161.763C57.6283 161.55 57.5366 161.358 57.396 161.188C57.2554 161.013 57.07 160.875 56.8399 160.772C56.614 160.666 56.3435 160.613 56.0281 160.613C55.6062 160.613 55.2504 160.702 54.9606 160.881C54.6709 161.056 54.526 161.29 54.526 161.584C54.526 161.819 54.6197 162.017 54.8072 162.179C54.9947 162.341 55.3165 162.471 55.7724 162.569L57.5494 162.927C58.504 163.123 59.2156 163.438 59.6844 163.873C60.1531 164.307 60.3875 164.878 60.3875 165.586C60.3875 166.229 60.1979 166.794 59.8186 167.279C59.4436 167.765 58.928 168.145 58.2717 168.417C57.6197 168.686 56.8676 168.82 56.0153 168.82C54.7156 168.82 53.6801 168.549 52.9088 168.008C52.1417 167.463 51.6922 166.721 51.5601 165.784L54.2383 165.643C54.3193 166.039 54.5153 166.342 54.8264 166.551C55.1375 166.755 55.5359 166.858 56.0217 166.858C56.499 166.858 56.8825 166.766 57.1723 166.583C57.4663 166.395 57.6155 166.154 57.6197 165.86C57.6155 165.613 57.5111 165.411 57.3065 165.253C57.102 165.091 56.7866 164.968 56.3605 164.882L54.6602 164.544C53.7014 164.352 52.9876 164.02 52.5189 163.547C52.0544 163.074 51.8221 162.471 51.8221 161.738C51.8221 161.107 51.9926 160.564 52.3335 160.108C52.6787 159.652 53.1623 159.3 53.7845 159.053C54.4109 158.806 55.1439 158.682 55.9834 158.682C57.2234 158.682 58.1993 158.944 58.9109 159.468C59.6268 159.993 60.0444 160.706 60.1638 161.61Z" fill="white"/>
<path d="M70.2712 161.61L67.7783 161.763C67.7357 161.55 67.6441 161.358 67.5034 161.188C67.3628 161.013 67.1774 160.875 66.9473 160.772C66.7215 160.666 66.4509 160.613 66.1355 160.613C65.7137 160.613 65.3578 160.702 65.0681 160.881C64.7783 161.056 64.6334 161.29 64.6334 161.584C64.6334 161.819 64.7271 162.017 64.9146 162.179C65.1021 162.341 65.4239 162.471 65.8798 162.569L67.6568 162.927C68.6114 163.123 69.323 163.438 69.7918 163.873C70.2605 164.307 70.4949 164.878 70.4949 165.586C70.4949 166.229 70.3053 166.794 69.926 167.279C69.551 167.765 69.0354 168.145 68.3791 168.417C67.7272 168.686 66.975 168.82 66.1227 168.82C64.823 168.82 63.7875 168.549 63.0162 168.008C62.2492 167.463 61.7996 166.721 61.6675 165.784L64.3458 165.643C64.4267 166.039 64.6227 166.342 64.9338 166.551C65.2449 166.755 65.6433 166.858 66.1291 166.858C66.6064 166.858 66.9899 166.766 67.2797 166.583C67.5737 166.395 67.7229 166.154 67.7271 165.86C67.7229 165.613 67.6185 165.411 67.4139 165.253C67.2094 165.091 66.8941 164.968 66.4679 164.882L64.7676 164.544C63.8088 164.352 63.095 164.02 62.6263 163.547C62.1618 163.074 61.9296 162.471 61.9296 161.738C61.9296 161.107 62.1 160.564 62.4409 160.108C62.7861 159.652 63.2698 159.3 63.8919 159.053C64.5183 158.806 65.2513 158.682 66.0908 158.682C67.3308 158.682 68.3067 158.944 69.0183 159.468C69.7343 159.993 70.1519 160.706 70.2712 161.61Z" fill="white"/>
<path d="M76.6457 168.82C75.6528 168.82 74.7941 168.609 74.0697 168.187C73.3495 167.761 72.7934 167.169 72.4013 166.41C72.0093 165.647 71.8133 164.763 71.8133 163.757C71.8133 162.743 72.0093 161.857 72.4013 161.098C72.7934 160.336 73.3495 159.743 74.0697 159.321C74.7941 158.895 75.6528 158.682 76.6457 158.682C77.6386 158.682 78.4951 158.895 79.2153 159.321C79.9397 159.743 80.4979 160.336 80.89 161.098C81.282 161.857 81.478 162.743 81.478 163.757C81.478 164.763 81.282 165.647 80.89 166.41C80.4979 167.169 79.9397 167.761 79.2153 168.187C78.4951 168.609 77.6386 168.82 76.6457 168.82ZM76.6584 166.711C77.1101 166.711 77.4873 166.583 77.7898 166.327C78.0924 166.067 78.3204 165.713 78.4738 165.266C78.6314 164.819 78.7103 164.309 78.7103 163.738C78.7103 163.167 78.6314 162.658 78.4738 162.211C78.3204 161.763 78.0924 161.409 77.7898 161.15C77.4873 160.89 77.1101 160.76 76.6584 160.76C76.2025 160.76 75.8189 160.89 75.5079 161.15C75.2011 161.409 74.9688 161.763 74.8111 162.211C74.6577 162.658 74.581 163.167 74.581 163.738C74.581 164.309 74.6577 164.819 74.8111 165.266C74.9688 165.713 75.2011 166.067 75.5079 166.327C75.8189 166.583 76.2025 166.711 76.6584 166.711Z" fill="white"/>
<path d="M85.9716 162.952V168.628H83.2486V158.81H85.8438V160.542H85.9589C86.1762 159.971 86.5405 159.52 87.0519 159.187C87.5633 158.851 88.1833 158.682 88.912 158.682C89.5938 158.682 90.1883 158.831 90.6954 159.13C91.2025 159.428 91.5966 159.854 91.8779 160.408C92.1591 160.958 92.2998 161.614 92.2998 162.377V168.628H89.5768V162.863C89.581 162.262 89.4276 161.793 89.1165 161.456C88.8055 161.115 88.3772 160.945 87.8317 160.945C87.4653 160.945 87.1414 161.024 86.8601 161.181C86.5832 161.339 86.3658 161.569 86.2082 161.872C86.0547 162.17 85.9759 162.53 85.9716 162.952Z" fill="white"/>
<path d="M105.765 159.302C105.713 158.787 105.494 158.386 105.106 158.101C104.718 157.815 104.192 157.672 103.527 157.672C103.076 157.672 102.694 157.736 102.383 157.864C102.072 157.988 101.834 158.16 101.667 158.382C101.505 158.603 101.424 158.855 101.424 159.136C101.416 159.37 101.465 159.575 101.571 159.75C101.682 159.924 101.834 160.076 102.025 160.204C102.217 160.327 102.439 160.436 102.69 160.529C102.941 160.619 103.21 160.696 103.495 160.76L104.672 161.041C105.243 161.169 105.767 161.339 106.244 161.552C106.721 161.765 107.135 162.027 107.484 162.338C107.834 162.65 108.104 163.016 108.296 163.438C108.492 163.86 108.592 164.343 108.596 164.889C108.592 165.69 108.387 166.385 107.983 166.973C107.582 167.556 107.003 168.01 106.244 168.334C105.49 168.654 104.58 168.814 103.515 168.814C102.458 168.814 101.537 168.652 100.753 168.328C99.9734 168.004 99.364 167.525 98.9251 166.89C98.4905 166.25 98.2625 165.46 98.2412 164.518H100.919C100.949 164.957 101.075 165.324 101.297 165.618C101.522 165.907 101.823 166.127 102.198 166.276C102.577 166.421 103.005 166.493 103.483 166.493C103.951 166.493 104.358 166.425 104.704 166.289C105.053 166.152 105.324 165.963 105.515 165.72C105.707 165.477 105.803 165.198 105.803 164.882C105.803 164.588 105.716 164.341 105.541 164.141C105.37 163.941 105.119 163.77 104.787 163.63C104.459 163.489 104.056 163.361 103.579 163.246L102.153 162.888C101.049 162.62 100.178 162.2 99.5388 161.629C98.8996 161.058 98.5821 160.289 98.5863 159.321C98.5821 158.529 98.793 157.836 99.2192 157.244C99.6496 156.652 100.24 156.189 100.99 155.857C101.74 155.525 102.592 155.358 103.547 155.358C104.518 155.358 105.366 155.525 106.091 155.857C106.819 156.189 107.386 156.652 107.791 157.244C108.196 157.836 108.405 158.522 108.417 159.302H105.765Z" fill="white"/>
<path d="M114.843 168.82C113.85 168.82 112.991 168.609 112.267 168.187C111.547 167.761 110.991 167.169 110.599 166.41C110.207 165.647 110.011 164.763 110.011 163.757C110.011 162.743 110.207 161.857 110.599 161.098C110.991 160.336 111.547 159.743 112.267 159.321C112.991 158.895 113.85 158.682 114.843 158.682C115.836 158.682 116.692 158.895 117.413 159.321C118.137 159.743 118.695 160.336 119.087 161.098C119.479 161.857 119.675 162.743 119.675 163.757C119.675 164.763 119.479 165.647 119.087 166.41C118.695 167.169 118.137 167.761 117.413 168.187C116.692 168.609 115.836 168.82 114.843 168.82ZM114.856 166.711C115.307 166.711 115.685 166.583 115.987 166.327C116.29 166.067 116.518 165.713 116.671 165.266C116.829 164.819 116.908 164.309 116.908 163.738C116.908 163.167 116.829 162.658 116.671 162.211C116.518 161.763 116.29 161.409 115.987 161.15C115.685 160.89 115.307 160.76 114.856 160.76C114.4 160.76 114.016 160.89 113.705 161.15C113.398 161.409 113.166 161.763 113.008 162.211C112.855 162.658 112.778 163.167 112.778 163.738C112.778 164.309 112.855 164.819 113.008 165.266C113.166 165.713 113.398 166.067 113.705 166.327C114.016 166.583 114.4 166.711 114.856 166.711Z" fill="white"/>
<path d="M124.169 155.537V168.628H121.446V155.537H124.169Z" fill="white"/>
<path d="M132.646 164.448V158.81H135.369V168.628H132.755V166.845H132.653C132.431 167.42 132.063 167.882 131.547 168.232C131.036 168.581 130.411 168.756 129.674 168.756C129.018 168.756 128.44 168.607 127.942 168.309C127.443 168.01 127.053 167.586 126.772 167.037C126.495 166.487 126.354 165.829 126.35 165.061V158.81H129.073V164.576C129.077 165.155 129.233 165.613 129.54 165.95C129.847 166.287 130.258 166.455 130.773 166.455C131.102 166.455 131.408 166.38 131.694 166.231C131.979 166.078 132.21 165.852 132.384 165.554C132.563 165.255 132.651 164.887 132.646 164.448Z" fill="white"/>
<path d="M137.599 168.628V155.537H140.322V160.459H140.405C140.524 160.195 140.697 159.927 140.922 159.654C141.153 159.377 141.451 159.147 141.817 158.963C142.188 158.776 142.648 158.682 143.198 158.682C143.914 158.682 144.574 158.87 145.18 159.245C145.785 159.615 146.268 160.176 146.631 160.926C146.993 161.672 147.174 162.607 147.174 163.732C147.174 164.827 146.997 165.752 146.643 166.506C146.294 167.256 145.817 167.825 145.212 168.213C144.611 168.596 143.937 168.788 143.192 168.788C142.663 168.788 142.214 168.701 141.843 168.526C141.476 168.351 141.176 168.132 140.942 167.868C140.707 167.599 140.528 167.329 140.405 167.056H140.283V168.628H137.599ZM140.264 163.719C140.264 164.303 140.345 164.812 140.507 165.247C140.669 165.681 140.903 166.02 141.21 166.263C141.517 166.502 141.89 166.621 142.329 166.621C142.772 166.621 143.147 166.5 143.454 166.257C143.761 166.01 143.993 165.669 144.15 165.234C144.312 164.795 144.393 164.29 144.393 163.719C144.393 163.152 144.315 162.654 144.157 162.223C143.999 161.793 143.767 161.456 143.46 161.213C143.153 160.971 142.776 160.849 142.329 160.849C141.886 160.849 141.511 160.966 141.204 161.201C140.901 161.435 140.669 161.767 140.507 162.198C140.345 162.628 140.264 163.135 140.264 163.719Z" fill="white"/>
<path d="M151.714 155.537V168.628H148.991V155.537H151.714Z" fill="white"/>
<path d="M158.37 168.82C157.36 168.82 156.49 168.615 155.762 168.206C155.037 167.793 154.479 167.209 154.087 166.455C153.695 165.696 153.499 164.799 153.499 163.764C153.499 162.754 153.695 161.868 154.087 161.105C154.479 160.342 155.031 159.748 155.742 159.321C156.458 158.895 157.298 158.682 158.261 158.682C158.909 158.682 159.512 158.787 160.07 158.995C160.632 159.2 161.122 159.509 161.54 159.922C161.962 160.336 162.29 160.855 162.524 161.482C162.759 162.104 162.876 162.833 162.876 163.668V164.416H154.585V162.728H160.313C160.313 162.336 160.228 161.989 160.057 161.686C159.887 161.384 159.65 161.147 159.348 160.977C159.049 160.802 158.702 160.715 158.306 160.715C157.892 160.715 157.526 160.811 157.206 161.003C156.891 161.19 156.644 161.444 156.465 161.763C156.286 162.079 156.194 162.43 156.19 162.818V164.422C156.19 164.908 156.279 165.328 156.458 165.681C156.642 166.035 156.899 166.308 157.232 166.5C157.564 166.691 157.958 166.787 158.414 166.787C158.717 166.787 158.994 166.745 159.245 166.659C159.497 166.574 159.712 166.446 159.891 166.276C160.07 166.105 160.206 165.897 160.3 165.65L162.818 165.816C162.691 166.421 162.429 166.949 162.032 167.401C161.64 167.848 161.133 168.198 160.511 168.449C159.893 168.696 159.179 168.82 158.37 168.82Z" fill="white"/>
<path d="M174.279 158.81V160.088H169.191V158.81H174.279ZM170.674 156.458H172.183V165.816C172.183 166.242 172.245 166.561 172.368 166.775C172.496 166.983 172.658 167.124 172.854 167.196C173.054 167.265 173.265 167.299 173.487 167.299C173.653 167.299 173.789 167.29 173.896 167.273C174.002 167.252 174.088 167.235 174.152 167.222L174.458 168.577C174.356 168.615 174.213 168.654 174.03 168.692C173.847 168.735 173.615 168.756 173.333 168.756C172.907 168.756 172.49 168.664 172.08 168.481C171.676 168.298 171.339 168.019 171.071 167.644C170.806 167.269 170.674 166.796 170.674 166.225V156.458Z" fill="white"/>
<path d="M176.549 168.628V158.81H178.006V160.293H178.108C178.287 159.807 178.611 159.413 179.08 159.11C179.549 158.808 180.077 158.657 180.665 158.657C180.776 158.657 180.914 158.659 181.08 158.663C181.247 158.667 181.372 158.674 181.458 158.682V160.216C181.406 160.204 181.289 160.184 181.106 160.159C180.927 160.129 180.737 160.114 180.537 160.114C180.06 160.114 179.634 160.214 179.259 160.414C178.888 160.61 178.594 160.883 178.377 161.233C178.164 161.578 178.057 161.972 178.057 162.415V168.628H176.549Z" fill="white"/>
<path d="M186.135 168.858C185.513 168.858 184.948 168.741 184.441 168.507C183.934 168.268 183.531 167.925 183.233 167.478C182.935 167.026 182.786 166.48 182.786 165.841C182.786 165.279 182.896 164.823 183.118 164.473C183.34 164.12 183.636 163.843 184.006 163.642C184.377 163.442 184.786 163.293 185.234 163.195C185.685 163.093 186.139 163.012 186.595 162.952C187.192 162.875 187.675 162.818 188.046 162.779C188.421 162.737 188.694 162.667 188.864 162.569C189.039 162.471 189.126 162.3 189.126 162.057V162.006C189.126 161.375 188.954 160.885 188.609 160.536C188.268 160.186 187.75 160.012 187.055 160.012C186.335 160.012 185.771 160.169 185.362 160.485C184.952 160.8 184.665 161.137 184.499 161.495L183.067 160.983C183.323 160.387 183.663 159.922 184.09 159.59C184.52 159.253 184.989 159.019 185.496 158.887C186.007 158.75 186.51 158.682 187.004 158.682C187.32 158.682 187.682 158.721 188.091 158.797C188.504 158.87 188.903 159.021 189.286 159.251C189.674 159.481 189.996 159.829 190.251 160.293C190.507 160.757 190.635 161.38 190.635 162.159V168.628H189.126V167.299H189.05C188.948 167.512 188.777 167.74 188.538 167.983C188.3 168.226 187.982 168.432 187.586 168.603C187.19 168.773 186.706 168.858 186.135 168.858ZM186.365 167.503C186.962 167.503 187.465 167.386 187.874 167.152C188.287 166.917 188.598 166.615 188.807 166.244C189.02 165.873 189.126 165.483 189.126 165.074V163.694C189.063 163.77 188.922 163.841 188.705 163.904C188.492 163.964 188.244 164.017 187.963 164.064C187.686 164.107 187.416 164.145 187.151 164.179C186.891 164.209 186.68 164.235 186.519 164.256C186.126 164.307 185.76 164.39 185.419 164.505C185.082 164.616 184.81 164.784 184.601 165.01C184.396 165.232 184.294 165.534 184.294 165.918C184.294 166.442 184.488 166.838 184.876 167.107C185.268 167.371 185.764 167.503 186.365 167.503Z" fill="white"/>
<path d="M201.065 158.81L197.435 168.628H195.9L192.27 158.81H193.906L196.616 166.634H196.719L199.429 158.81H201.065Z" fill="white"/>
<path d="M206.821 168.833C205.875 168.833 205.059 168.624 204.373 168.206C203.691 167.784 203.165 167.196 202.794 166.442C202.428 165.684 202.245 164.802 202.245 163.796C202.245 162.79 202.428 161.904 202.794 161.137C203.165 160.365 203.681 159.765 204.341 159.334C205.006 158.9 205.781 158.682 206.668 158.682C207.179 158.682 207.684 158.767 208.183 158.938C208.681 159.108 209.135 159.385 209.544 159.769C209.953 160.148 210.279 160.651 210.522 161.277C210.765 161.904 210.887 162.675 210.887 163.591V164.23H203.318V162.927H209.353C209.353 162.373 209.242 161.878 209.02 161.444C208.803 161.009 208.492 160.666 208.087 160.414C207.686 160.163 207.213 160.037 206.668 160.037C206.067 160.037 205.547 160.186 205.108 160.485C204.674 160.779 204.339 161.162 204.105 161.635C203.87 162.108 203.753 162.615 203.753 163.157V164.026C203.753 164.767 203.881 165.396 204.137 165.912C204.397 166.423 204.757 166.813 205.217 167.081C205.677 167.346 206.212 167.478 206.821 167.478C207.218 167.478 207.576 167.422 207.895 167.311C208.219 167.196 208.498 167.026 208.732 166.8C208.967 166.57 209.148 166.284 209.276 165.944L210.733 166.353C210.58 166.847 210.322 167.282 209.96 167.657C209.598 168.027 209.15 168.317 208.617 168.526C208.085 168.73 207.486 168.833 206.821 168.833Z" fill="white"/>
<path d="M214.69 155.537V168.628H213.181V155.537H214.69Z" fill="white"/>
<path d="M217.453 168.628V158.81H218.961V168.628H217.453ZM218.22 157.174C217.926 157.174 217.672 157.074 217.459 156.873C217.25 156.673 217.146 156.432 217.146 156.151C217.146 155.87 217.25 155.629 217.459 155.429C217.672 155.228 217.926 155.128 218.22 155.128C218.514 155.128 218.765 155.228 218.974 155.429C219.187 155.629 219.294 155.87 219.294 156.151C219.294 156.432 219.187 156.673 218.974 156.873C218.765 157.074 218.514 157.174 218.22 157.174Z" fill="white"/>
<path d="M223.233 162.722V168.628H221.724V158.81H223.182V160.344H223.31C223.54 159.846 223.889 159.445 224.358 159.142C224.827 158.836 225.432 158.682 226.173 158.682C226.838 158.682 227.42 158.819 227.918 159.091C228.417 159.36 228.805 159.769 229.082 160.319C229.359 160.864 229.497 161.554 229.497 162.39V168.628H227.989V162.492C227.989 161.721 227.788 161.12 227.388 160.689C226.987 160.255 226.437 160.037 225.739 160.037C225.257 160.037 224.827 160.142 224.447 160.351C224.072 160.559 223.776 160.864 223.559 161.265C223.341 161.665 223.233 162.151 223.233 162.722Z" fill="white"/>
<path d="M236.217 172.515C235.488 172.515 234.862 172.421 234.337 172.233C233.813 172.05 233.376 171.807 233.027 171.505C232.682 171.206 232.407 170.887 232.202 170.546L233.404 169.702C233.541 169.881 233.713 170.086 233.922 170.316C234.131 170.55 234.416 170.753 234.778 170.923C235.145 171.098 235.624 171.185 236.217 171.185C237.009 171.185 237.663 170.993 238.179 170.61C238.695 170.226 238.952 169.625 238.952 168.807V166.813H238.825C238.714 166.992 238.556 167.213 238.352 167.478C238.151 167.738 237.862 167.97 237.482 168.174C237.107 168.375 236.6 168.475 235.961 168.475C235.168 168.475 234.457 168.287 233.826 167.912C233.2 167.537 232.703 166.992 232.337 166.276C231.974 165.56 231.793 164.691 231.793 163.668C231.793 162.662 231.97 161.787 232.324 161.041C232.678 160.291 233.17 159.711 233.8 159.302C234.431 158.889 235.16 158.682 235.987 158.682C236.626 158.682 237.133 158.789 237.508 159.002C237.887 159.211 238.177 159.449 238.377 159.718C238.582 159.982 238.739 160.199 238.85 160.37H239.004V158.81H240.461V168.909C240.461 169.753 240.269 170.439 239.886 170.968C239.506 171.5 238.995 171.89 238.352 172.137C237.712 172.389 237.001 172.515 236.217 172.515ZM236.166 167.12C236.771 167.12 237.282 166.981 237.7 166.704C238.117 166.427 238.435 166.029 238.652 165.509C238.869 164.989 238.978 164.367 238.978 163.642C238.978 162.935 238.871 162.311 238.658 161.77C238.445 161.228 238.13 160.804 237.712 160.498C237.295 160.191 236.779 160.037 236.166 160.037C235.526 160.037 234.994 160.199 234.568 160.523C234.146 160.847 233.828 161.282 233.615 161.827C233.406 162.373 233.302 162.978 233.302 163.642C233.302 164.324 233.408 164.927 233.622 165.451C233.839 165.971 234.158 166.38 234.58 166.679C235.006 166.973 235.535 167.12 236.166 167.12Z" fill="white"/>
<path d="M24.8493 190.628V180.81H26.3578V190.628H24.8493ZM25.6164 179.174C25.3223 179.174 25.0688 179.074 24.8557 178.873C24.6469 178.673 24.5425 178.432 24.5425 178.151C24.5425 177.87 24.6469 177.629 24.8557 177.429C25.0688 177.228 25.3223 177.128 25.6164 177.128C25.9104 177.128 26.1618 177.228 26.3706 177.429C26.5837 177.629 26.6902 177.87 26.6902 178.151C26.6902 178.432 26.5837 178.673 26.3706 178.873C26.1618 179.074 25.9104 179.174 25.6164 179.174Z" fill="white"/>
<path d="M30.6293 184.722V190.628H29.1208V180.81H30.5782V182.344H30.706C30.9361 181.846 31.2856 181.445 31.7543 181.142C32.2231 180.836 32.8282 180.682 33.5697 180.682C34.2344 180.682 34.8161 180.819 35.3147 181.091C35.8133 181.36 36.2011 181.769 36.478 182.319C36.755 182.864 36.8935 183.554 36.8935 184.39V190.628H35.385V184.492C35.385 183.721 35.1847 183.12 34.7841 182.689C34.3836 182.255 33.8339 182.037 33.135 182.037C32.6535 182.037 32.2231 182.142 31.8438 182.351C31.4688 182.559 31.1726 182.864 30.9553 183.265C30.738 183.665 30.6293 184.151 30.6293 184.722Z" fill="white"/>
<path d="M43.5732 190.628V177.537H48.738C49.7266 177.537 50.5704 177.714 51.2692 178.068C51.9724 178.417 52.5072 178.914 52.8736 179.557C53.2444 180.196 53.4297 180.949 53.4297 181.814C53.4297 182.683 53.2422 183.431 52.8672 184.057C52.4922 184.679 51.9489 185.157 51.2373 185.489C50.5299 185.821 49.6734 185.988 48.6677 185.988H45.2096V183.763H48.2202C48.7486 183.763 49.1876 183.691 49.537 183.546C49.8864 183.401 50.1464 183.184 50.3168 182.894C50.4915 182.604 50.5789 182.244 50.5789 181.814C50.5789 181.379 50.4915 181.012 50.3168 180.714C50.1464 180.416 49.8843 180.19 49.5306 180.037C49.1812 179.879 48.7401 179.8 48.2074 179.8H46.341V190.628H43.5732ZM50.6428 184.671L53.8964 190.628H50.841L47.6577 184.671H50.6428Z" fill="white"/>
<path d="M58.0576 184.952V190.628H55.3346V177.537H57.9809V182.542H58.0959C58.3175 181.963 58.6755 181.509 59.1698 181.181C59.6641 180.848 60.2841 180.682 61.0299 180.682C61.7117 180.682 62.3062 180.831 62.8133 181.13C63.3246 181.424 63.7209 181.848 64.0022 182.402C64.2877 182.951 64.4283 183.61 64.4241 184.377V190.628H61.701V184.863C61.7053 184.257 61.5519 183.787 61.2408 183.45C60.934 183.113 60.5036 182.945 59.9496 182.945C59.5789 182.945 59.2508 183.024 58.9653 183.181C58.684 183.339 58.4624 183.569 58.3005 183.872C58.1428 184.17 58.0618 184.53 58.0576 184.952Z" fill="white"/>
<path d="M71.0031 190.82C70.0102 190.82 69.1515 190.609 68.4271 190.187C67.7069 189.761 67.1508 189.169 66.7588 188.41C66.3667 187.647 66.1707 186.763 66.1707 185.757C66.1707 184.743 66.3667 183.857 66.7588 183.098C67.1508 182.336 67.7069 181.743 68.4271 181.321C69.1515 180.895 70.0102 180.682 71.0031 180.682C71.996 180.682 72.8525 180.895 73.5727 181.321C74.2971 181.743 74.8553 182.336 75.2474 183.098C75.6394 183.857 75.8355 184.743 75.8355 185.757C75.8355 186.763 75.6394 187.647 75.2474 188.41C74.8553 189.169 74.2971 189.761 73.5727 190.187C72.8525 190.609 71.996 190.82 71.0031 190.82ZM71.0159 188.711C71.4676 188.711 71.8447 188.583 72.1473 188.327C72.4498 188.067 72.6778 187.713 72.8312 187.266C72.9889 186.819 73.0677 186.309 73.0677 185.738C73.0677 185.167 72.9889 184.658 72.8312 184.211C72.6778 183.763 72.4498 183.409 72.1473 183.15C71.8447 182.89 71.4676 182.76 71.0159 182.76C70.5599 182.76 70.1764 182.89 69.8653 183.15C69.5585 183.409 69.3262 183.763 69.1686 184.211C69.0151 184.658 68.9384 185.167 68.9384 185.738C68.9384 186.309 69.0151 186.819 69.1686 187.266C69.3262 187.713 69.5585 188.067 69.8653 188.327C70.1764 188.583 70.5599 188.711 71.0159 188.711Z" fill="white"/>
<path d="M81.224 190.788C80.4782 190.788 79.8028 190.596 79.1977 190.213C78.5968 189.825 78.1196 189.256 77.7659 188.506C77.4164 187.752 77.2417 186.827 77.2417 185.732C77.2417 184.607 77.4228 183.672 77.785 182.926C78.1473 182.176 78.6288 181.615 79.2296 181.245C79.8348 180.87 80.4974 180.682 81.2176 180.682C81.7673 180.682 82.2254 180.776 82.5919 180.963C82.9626 181.147 83.2609 181.377 83.4867 181.654C83.7169 181.927 83.8916 182.195 84.0109 182.459H84.094V177.537H86.8106V190.628H84.1259V189.056H84.0109C83.883 189.329 83.7019 189.599 83.4676 189.868C83.2375 190.132 82.937 190.351 82.5663 190.526C82.1998 190.701 81.7524 190.788 81.224 190.788ZM82.0869 188.621C82.5258 188.621 82.8965 188.502 83.1991 188.263C83.5059 188.02 83.7403 187.681 83.9022 187.247C84.0684 186.812 84.1515 186.303 84.1515 185.719C84.1515 185.135 84.0705 184.628 83.9086 184.198C83.7467 183.767 83.5123 183.435 83.2055 183.201C82.8987 182.966 82.5258 182.849 82.0869 182.849C81.6394 182.849 81.2623 182.971 80.9555 183.213C80.6487 183.456 80.4164 183.793 80.2588 184.223C80.1011 184.654 80.0223 185.152 80.0223 185.719C80.0223 186.29 80.1011 186.795 80.2588 187.234C80.4207 187.669 80.6529 188.01 80.9555 188.257C81.2623 188.5 81.6394 188.621 82.0869 188.621Z" fill="white"/>
<path d="M93.5238 190.82C92.5139 190.82 91.6446 190.615 90.9159 190.206C90.1915 189.793 89.6332 189.209 89.2412 188.455C88.8491 187.696 88.6531 186.799 88.6531 185.764C88.6531 184.754 88.8491 183.868 89.2412 183.105C89.6332 182.342 90.1851 181.748 90.8967 181.321C91.6126 180.895 92.4521 180.682 93.4152 180.682C94.0629 180.682 94.6659 180.787 95.2241 180.995C95.7866 181.2 96.2767 181.509 96.6943 181.922C97.1162 182.336 97.4443 182.855 97.6787 183.482C97.9131 184.104 98.0302 184.833 98.0302 185.668V186.416H89.7398V184.728H95.467C95.467 184.336 95.3818 183.989 95.2113 183.686C95.0409 183.384 94.8044 183.147 94.5018 182.977C94.2035 182.802 93.8562 182.715 93.4599 182.715C93.0466 182.715 92.6801 182.811 92.3605 183.003C92.0452 183.19 91.798 183.444 91.619 183.763C91.44 184.079 91.3484 184.43 91.3442 184.818V186.422C91.3442 186.908 91.4336 187.328 91.6126 187.681C91.7959 188.035 92.0537 188.308 92.3861 188.5C92.7184 188.691 93.1126 188.787 93.5686 188.787C93.8712 188.787 94.1481 188.745 94.3996 188.659C94.651 188.574 94.8662 188.446 95.0452 188.276C95.2241 188.105 95.3605 187.897 95.4542 187.65L97.9727 187.816C97.8449 188.421 97.5828 188.949 97.1865 189.401C96.7944 189.848 96.2873 190.198 95.6652 190.449C95.0473 190.696 94.3335 190.82 93.5238 190.82Z" fill="white"/>
<path d="M107.976 183.61L105.483 183.763C105.441 183.55 105.349 183.358 105.209 183.188C105.068 183.013 104.883 182.875 104.652 182.772C104.427 182.666 104.156 182.613 103.841 182.613C103.419 182.613 103.063 182.702 102.773 182.881C102.483 183.056 102.338 183.29 102.338 183.584C102.338 183.819 102.432 184.017 102.62 184.179C102.807 184.341 103.129 184.471 103.585 184.569L105.362 184.927C106.316 185.123 107.028 185.438 107.497 185.873C107.966 186.307 108.2 186.878 108.2 187.586C108.2 188.229 108.01 188.794 107.631 189.279C107.256 189.765 106.74 190.145 106.084 190.417C105.432 190.686 104.68 190.82 103.828 190.82C102.528 190.82 101.493 190.549 100.721 190.008C99.9542 189.463 99.5047 188.721 99.3726 187.784L102.051 187.643C102.132 188.039 102.328 188.342 102.639 188.551C102.95 188.755 103.348 188.858 103.834 188.858C104.311 188.858 104.695 188.766 104.985 188.583C105.279 188.395 105.428 188.154 105.432 187.86C105.428 187.613 105.324 187.411 105.119 187.253C104.914 187.091 104.599 186.968 104.173 186.882L102.473 186.544C101.514 186.352 100.8 186.02 100.331 185.547C99.8669 185.074 99.6346 184.471 99.6346 183.738C99.6346 183.107 99.8051 182.564 100.146 182.108C100.491 181.652 100.975 181.3 101.597 181.053C102.223 180.806 102.956 180.682 103.796 180.682C105.036 180.682 106.012 180.944 106.723 181.468C107.439 181.993 107.857 182.706 107.976 183.61Z" fill="white"/>
<path d="M112.874 188.838L112.804 189.542C112.748 190.104 112.642 190.664 112.484 191.223C112.331 191.785 112.169 192.294 111.998 192.75C111.832 193.206 111.698 193.564 111.596 193.824H109.832C109.895 193.573 109.983 193.221 110.094 192.77C110.204 192.322 110.309 191.819 110.407 191.261C110.505 190.703 110.567 190.134 110.592 189.554L110.624 188.838H112.874Z" fill="white"/>
<path d="M127.646 181.769C127.557 181.458 127.431 181.183 127.269 180.944C127.107 180.701 126.909 180.497 126.675 180.331C126.444 180.16 126.18 180.03 125.882 179.941C125.588 179.851 125.262 179.806 124.904 179.806C124.235 179.806 123.647 179.973 123.14 180.305C122.637 180.637 122.245 181.121 121.964 181.756C121.682 182.387 121.542 183.158 121.542 184.07C121.542 184.982 121.68 185.757 121.957 186.397C122.234 187.036 122.626 187.524 123.133 187.86C123.641 188.193 124.239 188.359 124.93 188.359C125.556 188.359 126.091 188.248 126.534 188.027C126.981 187.801 127.322 187.483 127.557 187.074C127.795 186.665 127.915 186.181 127.915 185.623L128.477 185.706H125.102V183.623H130.58V185.272C130.58 186.422 130.337 187.411 129.851 188.238C129.366 189.06 128.697 189.695 127.844 190.142C126.992 190.586 126.016 190.807 124.917 190.807C123.69 190.807 122.611 190.537 121.682 189.995C120.753 189.45 120.029 188.677 119.509 187.675C118.993 186.669 118.736 185.476 118.736 184.096C118.736 183.034 118.889 182.088 119.196 181.257C119.507 180.422 119.942 179.715 120.5 179.135C121.058 178.556 121.708 178.115 122.449 177.812C123.191 177.51 123.994 177.358 124.859 177.358C125.601 177.358 126.291 177.467 126.93 177.684C127.569 177.897 128.136 178.2 128.631 178.592C129.129 178.984 129.536 179.451 129.851 179.992C130.167 180.529 130.369 181.121 130.459 181.769H127.646Z" fill="white"/>
<path d="M132.608 190.628V180.81H135.248V182.523H135.35C135.529 181.914 135.83 181.454 136.251 181.142C136.673 180.827 137.159 180.669 137.709 180.669C137.845 180.669 137.992 180.678 138.15 180.695C138.308 180.712 138.446 180.735 138.565 180.765V183.181C138.438 183.143 138.261 183.109 138.035 183.079C137.809 183.049 137.602 183.034 137.415 183.034C137.014 183.034 136.656 183.122 136.341 183.297C136.03 183.467 135.783 183.706 135.599 184.012C135.421 184.319 135.331 184.673 135.331 185.074V190.628H132.608Z" fill="white"/>
<path d="M143.991 190.82C142.981 190.82 142.111 190.615 141.383 190.206C140.658 189.793 140.1 189.209 139.708 188.455C139.316 187.696 139.12 186.799 139.12 185.764C139.12 184.754 139.316 183.868 139.708 183.105C140.1 182.342 140.652 181.748 141.364 181.321C142.079 180.895 142.919 180.682 143.882 180.682C144.53 180.682 145.133 180.787 145.691 180.995C146.253 181.2 146.743 181.509 147.161 181.922C147.583 182.336 147.911 182.855 148.145 183.482C148.38 184.104 148.497 184.833 148.497 185.668V186.416H140.207V184.728H145.934C145.934 184.336 145.849 183.989 145.678 183.686C145.508 183.384 145.271 183.147 144.969 182.977C144.67 182.802 144.323 182.715 143.927 182.715C143.513 182.715 143.147 182.811 142.827 183.003C142.512 183.19 142.265 183.444 142.086 183.763C141.907 184.079 141.815 184.43 141.811 184.818V186.422C141.811 186.908 141.9 187.328 142.079 187.681C142.263 188.035 142.52 188.308 142.853 188.5C143.185 188.691 143.579 188.787 144.035 188.787C144.338 188.787 144.615 188.745 144.866 188.659C145.118 188.574 145.333 188.446 145.512 188.276C145.691 188.105 145.827 187.897 145.921 187.65L148.44 187.816C148.312 188.421 148.05 188.949 147.653 189.401C147.261 189.848 146.754 190.198 146.132 190.449C145.514 190.696 144.8 190.82 143.991 190.82Z" fill="white"/>
<path d="M154.748 190.82C153.739 190.82 152.869 190.615 152.141 190.206C151.416 189.793 150.858 189.209 150.466 188.455C150.074 187.696 149.878 186.799 149.878 185.764C149.878 184.754 150.074 183.868 150.466 183.105C150.858 182.342 151.41 181.748 152.121 181.321C152.837 180.895 153.677 180.682 154.64 180.682C155.288 180.682 155.891 180.787 156.449 180.995C157.011 181.2 157.501 181.509 157.919 181.922C158.341 182.336 158.669 182.855 158.903 183.482C159.138 184.104 159.255 184.833 159.255 185.668V186.416H150.964V184.728H156.692C156.692 184.336 156.606 183.989 156.436 183.686C156.266 183.384 156.029 183.147 155.726 182.977C155.428 182.802 155.081 182.715 154.685 182.715C154.271 182.715 153.905 182.811 153.585 183.003C153.27 183.19 153.023 183.444 152.844 183.763C152.665 184.079 152.573 184.43 152.569 184.818V186.422C152.569 186.908 152.658 187.328 152.837 187.681C153.02 188.035 153.278 188.308 153.611 188.5C153.943 188.691 154.337 188.787 154.793 188.787C155.096 188.787 155.373 188.745 155.624 188.659C155.876 188.574 156.091 188.446 156.27 188.276C156.449 188.105 156.585 187.897 156.679 187.65L159.197 187.816C159.069 188.421 158.807 188.949 158.411 189.401C158.019 189.848 157.512 190.198 156.89 190.449C156.272 190.696 155.558 190.82 154.748 190.82Z" fill="white"/>
<path d="M165.468 190.82C164.462 190.82 163.597 190.607 162.873 190.181C162.153 189.75 161.599 189.154 161.211 188.391C160.827 187.628 160.636 186.75 160.636 185.757C160.636 184.752 160.829 183.87 161.217 183.111C161.609 182.348 162.165 181.754 162.886 181.328C163.606 180.897 164.462 180.682 165.455 180.682C166.312 180.682 167.062 180.838 167.705 181.149C168.349 181.46 168.858 181.897 169.233 182.459C169.608 183.022 169.815 183.682 169.853 184.441H167.283C167.211 183.951 167.019 183.556 166.708 183.258C166.401 182.956 165.998 182.804 165.5 182.804C165.078 182.804 164.709 182.919 164.394 183.15C164.083 183.375 163.84 183.706 163.665 184.14C163.491 184.575 163.403 185.101 163.403 185.719C163.403 186.346 163.489 186.878 163.659 187.317C163.834 187.756 164.079 188.091 164.394 188.321C164.709 188.551 165.078 188.666 165.5 188.666C165.811 188.666 166.09 188.602 166.337 188.474C166.589 188.346 166.795 188.161 166.957 187.918C167.123 187.671 167.232 187.375 167.283 187.029H169.853C169.81 187.779 169.606 188.44 169.239 189.011C168.877 189.578 168.376 190.021 167.737 190.341C167.098 190.66 166.341 190.82 165.468 190.82Z" fill="white"/>
<path d="M176.071 190.82C175.061 190.82 174.191 190.615 173.463 190.206C172.738 189.793 172.18 189.209 171.788 188.455C171.396 187.696 171.2 186.799 171.2 185.764C171.2 184.754 171.396 183.868 171.788 183.105C172.18 182.342 172.732 181.748 173.444 181.321C174.159 180.895 174.999 180.682 175.962 180.682C176.61 180.682 177.213 180.787 177.771 180.995C178.334 181.2 178.824 181.509 179.241 181.922C179.663 182.336 179.991 182.855 180.226 183.482C180.46 184.104 180.577 184.833 180.577 185.668V186.416H172.287V184.728H178.014C178.014 184.336 177.929 183.989 177.758 183.686C177.588 183.384 177.351 183.147 177.049 182.977C176.75 182.802 176.403 182.715 176.007 182.715C175.593 182.715 175.227 182.811 174.907 183.003C174.592 183.19 174.345 183.444 174.166 183.763C173.987 184.079 173.895 184.43 173.891 184.818V186.422C173.891 186.908 173.981 187.328 174.16 187.681C174.343 188.035 174.601 188.308 174.933 188.5C175.265 188.691 175.659 188.787 176.115 188.787C176.418 188.787 176.695 188.745 176.946 188.659C177.198 188.574 177.413 188.446 177.592 188.276C177.771 188.105 177.907 187.897 178.001 187.65L180.52 187.816C180.392 188.421 180.13 188.949 179.733 189.401C179.341 189.848 178.834 190.198 178.212 190.449C177.594 190.696 176.88 190.82 176.071 190.82Z" fill="white"/>
<path d="M185.314 188.838L185.243 189.542C185.188 190.104 185.081 190.664 184.924 191.223C184.77 191.785 184.608 192.294 184.438 192.75C184.272 193.206 184.137 193.564 184.035 193.824H182.271C182.335 193.573 182.422 193.221 182.533 192.77C182.644 192.322 182.748 191.819 182.846 191.261C182.944 190.703 183.006 190.134 183.032 189.554L183.064 188.838H185.314Z" fill="white"/>
<path d="M191.329 190.628V188.634L195.988 184.319C196.385 183.936 196.717 183.591 196.985 183.284C197.258 182.977 197.465 182.677 197.606 182.382C197.746 182.084 197.816 181.762 197.816 181.417C197.816 181.034 197.729 180.704 197.554 180.427C197.38 180.145 197.141 179.93 196.838 179.781C196.536 179.628 196.193 179.551 195.809 179.551C195.409 179.551 195.059 179.632 194.761 179.794C194.463 179.956 194.233 180.188 194.071 180.49C193.909 180.793 193.828 181.153 193.828 181.571H191.201C191.201 180.714 191.395 179.971 191.782 179.34C192.17 178.709 192.713 178.221 193.412 177.876C194.111 177.531 194.917 177.358 195.829 177.358C196.766 177.358 197.582 177.525 198.277 177.857C198.976 178.185 199.519 178.641 199.907 179.225C200.294 179.809 200.488 180.478 200.488 181.232C200.488 181.726 200.39 182.214 200.194 182.696C200.003 183.177 199.659 183.712 199.165 184.3C198.671 184.884 197.974 185.585 197.075 186.403L195.164 188.276V188.365H200.661V190.628H191.329Z" fill="white"/>
<path d="M207.799 190.916C206.7 190.912 205.754 190.641 204.961 190.104C204.173 189.567 203.566 188.789 203.139 187.771C202.718 186.753 202.509 185.527 202.513 184.096C202.513 182.668 202.724 181.451 203.146 180.446C203.572 179.44 204.179 178.675 204.968 178.151C205.76 177.623 206.704 177.358 207.799 177.358C208.894 177.358 209.836 177.623 210.625 178.151C211.417 178.679 212.027 179.446 212.453 180.452C212.879 181.454 213.09 182.668 213.085 184.096C213.085 185.532 212.872 186.759 212.446 187.777C212.024 188.796 211.419 189.574 210.631 190.11C209.843 190.647 208.899 190.916 207.799 190.916ZM207.799 188.621C208.549 188.621 209.148 188.244 209.595 187.49C210.043 186.735 210.264 185.604 210.26 184.096C210.26 183.103 210.158 182.276 209.953 181.615C209.753 180.955 209.468 180.458 209.097 180.126C208.73 179.794 208.298 179.628 207.799 179.628C207.054 179.628 206.457 180 206.009 180.746C205.562 181.492 205.336 182.608 205.332 184.096C205.332 185.101 205.432 185.941 205.632 186.614C205.837 187.283 206.125 187.786 206.495 188.123C206.866 188.455 207.301 188.621 207.799 188.621Z" fill="white"/>
<path d="M215.059 190.628V188.634L219.719 184.319C220.115 183.936 220.447 183.591 220.716 183.284C220.989 182.977 221.195 182.677 221.336 182.382C221.477 182.084 221.547 181.762 221.547 181.417C221.547 181.034 221.46 180.704 221.285 180.427C221.11 180.145 220.872 179.93 220.569 179.781C220.266 179.628 219.923 179.551 219.54 179.551C219.139 179.551 218.79 179.632 218.492 179.794C218.193 179.956 217.963 180.188 217.801 180.49C217.639 180.793 217.558 181.153 217.558 181.571H214.931C214.931 180.714 215.125 179.971 215.513 179.34C215.901 178.709 216.444 178.221 217.143 177.876C217.842 177.531 218.647 177.358 219.559 177.358C220.497 177.358 221.313 177.525 222.007 177.857C222.706 178.185 223.249 178.641 223.637 179.225C224.025 179.809 224.219 180.478 224.219 181.232C224.219 181.726 224.121 182.214 223.925 182.696C223.733 183.177 223.39 183.712 222.896 184.3C222.401 184.884 221.705 185.585 220.805 186.403L218.894 188.276V188.365H224.391V190.628H215.059Z" fill="white"/>
<path d="M232.092 177.537V190.628H229.324V180.164H229.248L226.25 182.044V179.589L229.491 177.537H232.092Z" fill="white"/>
</g>
<path d="M232.084 25.4911L235.755 58.6744L199.599 33.1946L232.084 25.4911Z" fill="#1C2F67"/>
</svg>
