<?xml version="1.0" encoding="utf-8"?>
<!-- Generator: Adobe Illustrator 16.0.0, SVG Export Plug-In . SVG Version: 6.00 Build 0)  -->
<!DOCTYPE svg PUBLIC "-//W3C//DTD SVG 1.1//EN" "http://www.w3.org/Graphics/SVG/1.1/DTD/svg11.dtd">
<svg version="1.1" id="Calque_1" xmlns="http://www.w3.org/2000/svg" xmlns:xlink="http://www.w3.org/1999/xlink" x="0px" y="0px"
	 width="512px" height="512px" viewBox="0 0 512 512" enable-background="new 0 0 512 512" xml:space="preserve">
<linearGradient id="SVGID_1_" gradientUnits="userSpaceOnUse" x1="23.2578" y1="490.1016" x2="494.6439" y2="18.7155">
	<stop  offset="0" style="stop-color:#EC6C83"/>
	<stop  offset="0.1437" style="stop-color:#EC707D"/>
	<stop  offset="0.3319" style="stop-color:#EE7D6D"/>
	<stop  offset="0.5446" style="stop-color:#F09252"/>
	<stop  offset="0.7737" style="stop-color:#F3AF2C"/>
	<stop  offset="1" style="stop-color:#F7D100"/>
</linearGradient>
<path fill="url(#SVGID_1_)" d="M255.917,509.941c-139.229,0-252.5-113.271-252.5-252.501c0-139.229,113.271-252.5,252.5-252.5
	c139.229,0,252.5,113.271,252.5,252.5C508.417,396.67,395.146,509.941,255.917,509.941L255.917,509.941z M255.917,15.041
	c-133.66,0-242.4,108.739-242.4,242.399c0,133.661,108.74,242.402,242.4,242.402S498.316,391.102,498.316,257.44
	C498.316,123.78,389.577,15.041,255.917,15.041z M125.917,366.292c0,2.813,2.281,5.094,5.094,5.094h249.813
	c2.813,0,5.094-2.281,5.094-5.094v-68.807c0-2.813-2.281-5.092-5.094-5.092c-2.812,0-5.092,2.279-5.092,5.092V361.2H136.103v-63.715
	c0-2.813-2.281-5.092-5.092-5.092c-2.813,0-5.094,2.279-5.094,5.092V366.292z M385.917,187.935v-39.344
	c0-2.814-2.281-5.094-5.094-5.094H131.011c-2.813,0-5.094,2.279-5.094,5.094v108.15c0,2.813,2.281,5.094,5.094,5.094
	c2.811,0,5.092-2.281,5.092-5.094v-63.713h239.628v63.713c0,2.813,2.28,5.094,5.092,5.094c2.813,0,5.094-2.281,5.094-5.094V187.935z
	 M375.731,182.843H136.103v-29.16h239.628V182.843z M348.952,173.354h10.479c2.813,0,5.094-2.279,5.094-5.092
	s-2.281-5.094-5.094-5.094h-10.479c-2.813,0-5.095,2.281-5.095,5.094S346.139,173.354,348.952,173.354z M321.788,173.354h10.479
	c2.813,0,5.094-2.279,5.094-5.092s-2.281-5.094-5.094-5.094h-10.479c-2.813,0-5.095,2.281-5.095,5.094
	S318.975,173.354,321.788,173.354z M294.624,173.354h10.479c2.813,0,5.094-2.279,5.094-5.092s-2.281-5.094-5.094-5.094h-10.479
	c-2.813,0-5.094,2.281-5.094,5.094S291.811,173.354,294.624,173.354z M152.902,284.056c-2.813,0-5.094,2.279-5.094,5.093V344.4
	c0,2.813,2.281,5.092,5.094,5.092h55.25c2.813,0,5.094-2.279,5.094-5.092v-55.252c0-2.813-2.281-5.093-5.094-5.093H152.902z
	 M203.061,339.307h-45.066v-45.064h45.066V339.307z M288.635,209.828c0-2.813-2.278-5.095-5.092-5.095H152.902
	c-2.813,0-5.094,2.281-5.094,5.095v59.184c0,2.813,2.281,5.092,5.094,5.092h130.641c2.813,0,5.092-2.278,5.092-5.092V209.828z
	 M278.449,263.918H157.995V214.92h120.455V263.918z M283.543,284.056h-55.252c-2.813,0-5.094,2.279-5.094,5.093V344.4
	c0,2.813,2.281,5.092,5.094,5.092h55.252c2.813,0,5.092-2.279,5.092-5.092v-55.252C288.635,286.335,286.356,284.056,283.543,284.056
	z M278.449,339.307h-45.064v-45.064h45.064V339.307z M358.932,284.056h-55.253c-2.813,0-5.092,2.279-5.092,5.093V344.4
	c0,2.813,2.279,5.092,5.092,5.092h55.253c2.813,0,5.094-2.279,5.094-5.092v-55.252C364.025,286.335,361.744,284.056,358.932,284.056
	z M353.84,339.307h-45.066v-45.064h45.064v45.064H353.84z M358.932,204.733h-55.253c-2.813,0-5.092,2.281-5.092,5.095
	c0,2.813,2.279,5.092,5.092,5.092h55.253c2.813,0,5.094-2.279,5.094-5.092C364.025,207.015,361.744,204.733,358.932,204.733z
	 M358.932,224.463h-55.253c-2.813,0-5.092,2.279-5.092,5.092c0,2.813,2.279,5.095,5.092,5.095h55.253
	c2.813,0,5.094-2.281,5.094-5.095C364.025,226.742,361.744,224.463,358.932,224.463z M358.932,263.918h-55.253
	c-2.813,0-5.092,2.279-5.092,5.094c0,2.813,2.279,5.092,5.092,5.092h55.253c2.813,0,5.094-2.278,5.094-5.092
	C364.025,266.197,361.744,263.918,358.932,263.918z M358.932,244.19h-55.253c-2.813,0-5.092,2.279-5.092,5.092
	c0,2.815,2.279,5.095,5.092,5.095h55.253c2.813,0,5.094-2.279,5.094-5.095C364.025,246.47,361.744,244.19,358.932,244.19z
	 M131.011,282.207c2.805,0,5.092-2.289,5.092-5.094s-2.287-5.092-5.092-5.092c-2.807,0-5.094,2.287-5.094,5.092
	S128.204,282.207,131.011,282.207z M380.823,272.021c-2.805,0-5.092,2.287-5.092,5.092s2.287,5.094,5.092,5.094
	c2.807,0,5.094-2.289,5.094-5.094S383.63,272.021,380.823,272.021z"/>
</svg>
