<?xml version="1.0" encoding="utf-8"?>
<!-- Generator: Adobe Illustrator 16.0.0, SVG Export Plug-In . SVG Version: 6.00 Build 0)  -->
<!DOCTYPE svg PUBLIC "-//W3C//DTD SVG 1.1//EN" "http://www.w3.org/Graphics/SVG/1.1/DTD/svg11.dtd">
<svg version="1.1" id="Calque_1" xmlns="http://www.w3.org/2000/svg" xmlns:xlink="http://www.w3.org/1999/xlink" x="0px" y="0px"
	 width="512px" height="512px" viewBox="0 0 512 512" enable-background="new 0 0 512 512" xml:space="preserve">
<linearGradient id="SVGID_1_" gradientUnits="userSpaceOnUse" x1="23.0684" y1="489.5205" x2="494.4564" y2="18.1325">
	<stop  offset="0" style="stop-color:#EC6C83"/>
	<stop  offset="0.1437" style="stop-color:#EC707D"/>
	<stop  offset="0.3319" style="stop-color:#EE7D6D"/>
	<stop  offset="0.5446" style="stop-color:#F09252"/>
	<stop  offset="0.7737" style="stop-color:#F3AF2C"/>
	<stop  offset="1" style="stop-color:#F7D100"/>
</linearGradient>
<path fill="url(#SVGID_1_)" d="M255.729,509.36c-139.229,0-252.5-113.271-252.5-252.502c0-139.228,113.271-252.499,252.5-252.499
	c139.23,0,252.5,113.271,252.5,252.499C508.23,396.089,394.959,509.36,255.729,509.36L255.729,509.36z M255.729,14.461
	c-133.66,0-242.4,108.739-242.4,242.397c0,133.662,108.74,242.402,242.4,242.402c133.662,0,242.401-108.74,242.401-242.402
	C498.13,123.2,389.391,14.461,255.729,14.461z M255.001,329.662c-7.116,0-12.905,5.788-12.905,12.903
	c0,7.116,5.789,12.905,12.905,12.905s12.904-5.789,12.904-12.905C267.905,335.45,262.116,329.662,255.001,329.662z M255.001,346.534
	c-2.188,0-3.969-1.781-3.969-3.969c0-2.187,1.78-3.967,3.969-3.967s3.968,1.78,3.968,3.967
	C258.968,344.753,257.188,346.534,255.001,346.534z M276.166,158.068h-22.9c-2.605,0-4.717,2.111-4.717,4.716
	c0,2.605,2.112,4.717,4.717,4.717h22.9c2.604,0,4.718-2.112,4.718-4.717C280.884,160.179,278.771,158.068,276.166,158.068z
	 M238.786,157.949c2.735,0,4.952,2.217,4.952,4.952c0,2.735-2.217,4.952-4.952,4.952s-4.952-2.216-4.952-4.952
	C233.834,160.166,236.051,157.949,238.786,157.949z M310.748,140.552H200.709c-8.213,0-14.895,6.682-14.895,14.895v202.828
	c0,8.213,6.682,14.895,14.895,14.895h110.039c8.213,0,14.896-6.682,14.896-14.895V155.446
	C325.644,147.233,318.961,140.552,310.748,140.552z M315.713,358.274c0,2.738-2.226,4.966-4.965,4.966H200.709
	c-2.738,0-4.965-2.228-4.965-4.966V155.446c0-2.738,2.227-4.965,4.965-4.965h110.039c2.736,0,4.964,2.227,4.964,4.965
	L315.713,358.274L315.713,358.274z M263.367,232.922c-1.938-1.938-5.081-1.938-7.021,0l-23.851,23.851
	c-1.938,1.938-1.938,5.082,0,7.021c0.97,0.969,2.241,1.454,3.511,1.454c1.271,0,2.542-0.485,3.51-1.454l23.85-23.85
	C265.307,238.005,265.307,234.861,263.367,232.922z M277.503,246.744c-1.938-1.938-5.082-1.938-7.021,0l-9.501,9.5
	c-1.938,1.939-1.938,5.083,0,7.023c0.971,0.969,2.241,1.453,3.512,1.453c1.27,0,2.541-0.484,3.511-1.453l9.499-9.502
	C279.443,251.827,279.443,248.682,277.503,246.744z M300.145,176.443h-90.289c-2.467,0-4.468,2-4.468,4.469V317.79
	c0,2.468,2.001,4.469,4.468,4.469h90.289c2.469,0,4.468-2.001,4.468-4.469V180.912C304.612,178.444,302.613,176.443,300.145,176.443
	z M295.676,313.321L295.676,313.321h-81.352V185.38h81.352V313.321z"/>
</svg>
