<?xml version="1.0" encoding="utf-8"?>
<!-- Generator: Adobe Illustrator 16.0.0, SVG Export Plug-In . SVG Version: 6.00 Build 0)  -->
<!DOCTYPE svg PUBLIC "-//W3C//DTD SVG 1.1//EN" "http://www.w3.org/Graphics/SVG/1.1/DTD/svg11.dtd">
<svg version="1.1" id="Calque_1" xmlns="http://www.w3.org/2000/svg" xmlns:xlink="http://www.w3.org/1999/xlink" x="0px" y="0px"
	 width="512px" height="512px" viewBox="0 0 512 512" enable-background="new 0 0 512 512" xml:space="preserve">
<linearGradient id="SVGID_1_" gradientUnits="userSpaceOnUse" x1="23.7988" y1="490.3809" x2="495.1857" y2="18.994">
	<stop  offset="0" style="stop-color:#EC6C83"/>
	<stop  offset="0.1437" style="stop-color:#EC707D"/>
	<stop  offset="0.3319" style="stop-color:#EE7D6D"/>
	<stop  offset="0.5446" style="stop-color:#F09252"/>
	<stop  offset="0.7737" style="stop-color:#F3AF2C"/>
	<stop  offset="1" style="stop-color:#F7D100"/>
</linearGradient>
<path fill="url(#SVGID_1_)" d="M256.458,510.221c-139.229,0-252.5-113.271-252.5-252.502c0-139.228,113.271-252.499,252.5-252.499
	c139.23,0,252.5,113.271,252.5,252.499C508.959,396.949,395.688,510.221,256.458,510.221L256.458,510.221z M256.458,15.321
	c-133.66,0-242.4,108.739-242.4,242.398c0,133.662,108.74,242.402,242.4,242.402c133.661,0,242.4-108.74,242.4-242.402
	C498.858,124.06,390.119,15.321,256.458,15.321z M350.244,141.258H162.673c-17.582,0-36.395,9.575-36.395,36.395v125.756
	c0,26.822,18.813,36.395,36.395,36.395h69.43v23.182h-11.535c-3.092,0-5.599,2.508-5.599,5.6s2.507,5.6,5.599,5.6h73.908
	c3.094,0,5.601-2.508,5.601-5.6s-2.507-5.6-5.601-5.6h-13.662v-23.182h69.431c26.818,0,36.395-18.813,36.395-36.395V177.652
	C386.639,150.833,367.825,141.258,350.244,141.258z M269.616,362.984h-26.315v-23.182h26.315V362.984z M375.44,303.408
	c0,7.561-2.464,25.197-25.196,25.197H162.673c-7.559,0-25.196-2.465-25.196-25.197v-8.006H375.44V303.408z M375.44,284.26H137.477
	V177.876c0-22.732,17.637-25.196,25.196-25.196h187.571c7.559,0,25.196,2.463,25.196,25.196V284.26z M347.227,167.686
	c-2.473-1.858-5.981-1.36-7.84,1.112c-0.001,0.003-0.002,0.005-0.005,0.007h0.279l-41.77,55.992l-19.596-25.476
	c-1.021-1.327-2.583-2.129-4.256-2.184c-1.667-0.047-3.268,0.651-4.368,1.904l-31.915,36.283l-23.405-39.978
	c-0.998-1.684-2.802-2.723-4.759-2.744c-1.965-0.011-3.793,1.009-4.815,2.688l-38.635,62.431c-1.988,2.367-1.679,5.9,0.689,7.889
	c2.369,1.988,5.9,1.678,7.889-0.689c0.401-0.477,0.719-1.02,0.941-1.602l33.595-54.759l22.396,38.579
	c1.561,2.669,4.991,3.567,7.66,2.005c0.507-0.296,0.964-0.671,1.354-1.109l32.587-36.451l19.988,25.98
	c1.145,1.295,2.756,2.08,4.479,2.184c1.742-0.017,3.377-0.845,4.423-2.239l46.192-61.982
	C350.198,173.053,349.699,169.543,347.227,167.686z"/>
</svg>
