<?xml version="1.0" encoding="utf-8"?>
<!-- Generator: Adobe Illustrator 16.0.0, SVG Export Plug-In . SVG Version: 6.00 Build 0)  -->
<!DOCTYPE svg PUBLIC "-//W3C//DTD SVG 1.1//EN" "http://www.w3.org/Graphics/SVG/1.1/DTD/svg11.dtd">
<svg version="1.1" id="Calque_1" xmlns="http://www.w3.org/2000/svg" xmlns:xlink="http://www.w3.org/1999/xlink" x="0px" y="0px"
	 width="512px" height="512px" viewBox="0 0 512 512" enable-background="new 0 0 512 512" xml:space="preserve">
<linearGradient id="SVGID_1_" gradientUnits="userSpaceOnUse" x1="220.8335" y1="-297.1196" x2="692.2196" y2="174.2665" gradientTransform="matrix(1 0 0 -1 -197.6602 192.04)">
	<stop  offset="0" style="stop-color:#EC6C83"/>
	<stop  offset="0.144" style="stop-color:#EC707D"/>
	<stop  offset="0.332" style="stop-color:#EE7D6D"/>
	<stop  offset="0.545" style="stop-color:#F09252"/>
	<stop  offset="0.774" style="stop-color:#F3AF2C"/>
	<stop  offset="1" style="stop-color:#F7D100"/>
</linearGradient>
<path fill="url(#SVGID_1_)" d="M255.834,509c-139.229,0-252.5-113.271-252.5-252.501c0-139.229,113.271-252.5,252.5-252.5
	c139.229,0,252.5,113.271,252.5,252.5C508.334,395.729,395.063,509,255.834,509L255.834,509z M255.834,14.099
	c-133.66,0-242.4,108.74-242.4,242.4c0,133.661,108.74,242.402,242.4,242.402S498.233,390.16,498.233,256.499
	C498.233,122.839,389.494,14.099,255.834,14.099z"/>
<g>
	
		<linearGradient id="SVGID_2_" gradientUnits="userSpaceOnUse" x1="242.647" y1="-232.5786" x2="645.7995" y2="170.5739" gradientTransform="matrix(1 0 0 -1 -197.6602 192.04)">
		<stop  offset="0" style="stop-color:#EC6C83"/>
		<stop  offset="0.144" style="stop-color:#EC707D"/>
		<stop  offset="0.332" style="stop-color:#EE7D6D"/>
		<stop  offset="0.545" style="stop-color:#F09252"/>
		<stop  offset="0.774" style="stop-color:#F3AF2C"/>
		<stop  offset="1" style="stop-color:#F7D100"/>
	</linearGradient>
	<path fill="url(#SVGID_2_)" d="M279.261,206.606c-0.013-0.101-0.026-0.198-0.038-0.298c-0.04-0.313-0.078-0.625-0.128-0.936
		c-0.015-0.1-0.034-0.197-0.053-0.296c-0.053-0.308-0.11-0.614-0.173-0.918l-0.074-0.311c-0.065-0.294-0.138-0.587-0.217-0.878
		c-0.026-0.113-0.062-0.224-0.096-0.337c-0.077-0.275-0.162-0.55-0.249-0.822c-0.039-0.125-0.085-0.25-0.125-0.375
		c-0.272-0.787-0.585-1.558-0.937-2.312c-0.091-0.192-0.184-0.38-0.277-0.568c-0.091-0.181-0.18-0.359-0.276-0.536
		c-0.082-0.153-0.168-0.303-0.254-0.456c-0.112-0.204-0.229-0.407-0.347-0.608c-0.062-0.102-0.129-0.201-0.193-0.302
		c-0.734-1.183-1.574-2.297-2.509-3.33c-0.019-0.021-0.034-0.043-0.055-0.065c-0.202-0.223-0.414-0.439-0.622-0.655
		c-0.073-0.071-0.14-0.142-0.208-0.211c-0.192-0.188-0.388-0.375-0.587-0.558c-0.1-0.091-0.197-0.184-0.299-0.274
		c-0.089-0.079-0.172-0.164-0.264-0.242l-0.104-0.093c-0.047-0.04-0.095-0.079-0.142-0.118c-0.18-0.152-0.361-0.301-0.548-0.447
		l-0.214-0.167c-0.005-0.003-0.041-0.033-0.047-0.037c-0.267-0.205-0.536-0.404-0.81-0.598c-0.278-0.197-0.561-0.388-0.846-0.571
		c-0.143-0.092-0.288-0.181-0.423-0.265c-0.027-0.018-0.056-0.034-0.085-0.051l-0.046-0.027l-0.298-0.179
		c-0.104-0.062-0.211-0.122-0.316-0.181l-0.082-0.045l-0.2-0.111c-0.038-0.019-0.072-0.039-0.105-0.057
		c-0.06-0.033-0.115-0.065-0.18-0.098l-0.253-0.129c-0.06-0.031-0.123-0.057-0.18-0.086c-0.288-0.146-0.579-0.284-0.872-0.417
		c-0.112-0.051-0.225-0.103-0.34-0.152c-0.304-0.133-0.612-0.259-0.924-0.377c-0.102-0.038-0.2-0.082-0.303-0.12
		c-0.384-0.141-0.771-0.272-1.159-0.394c-0.2-0.063-0.403-0.115-0.604-0.173c-0.203-0.056-0.404-0.114-0.605-0.165
		c-0.226-0.057-0.455-0.106-0.682-0.158c-0.412-0.091-0.827-0.171-1.245-0.241c-0.203-0.034-0.408-0.064-0.614-0.091
		c-0.212-0.029-0.426-0.059-0.641-0.083c-0.249-0.026-0.502-0.046-0.752-0.066c-0.174-0.014-0.348-0.03-0.52-0.04
		c-0.436-0.024-0.871-0.037-1.306-0.038c-12.99,0-23.558,10.568-23.558,23.558v9.337c0,12.99,10.567,23.557,23.558,23.557
		c12.99,0,23.558-10.567,23.558-23.557V209.1c0-0.419-0.012-0.835-0.034-1.25c-0.005-0.094-0.014-0.187-0.02-0.281
		C279.317,207.248,279.294,206.926,279.261,206.606L279.261,206.606z M256.675,193.956c0.111,0.005,0.222,0.017,0.336,0.025
		c0.161,0.013,0.323,0.026,0.483,0.043c0.141,0.015,0.277,0.034,0.416,0.053c0.394,0.054,0.786,0.124,1.177,0.209
		c0.155,0.034,0.308,0.067,0.462,0.107c0.114,0.028,0.228,0.061,0.34,0.093c0.146,0.04,0.292,0.079,0.437,0.124
		c0.246,0.077,0.489,0.159,0.73,0.249c0.068,0.024,0.137,0.054,0.207,0.08c0.196,0.077,0.395,0.157,0.589,0.241
		c0.063,0.028,0.128,0.058,0.191,0.087c0.206,0.093,0.411,0.189,0.614,0.291c0.12,0.062,0.241,0.122,0.361,0.187l0.13,0.073
		c0.154,0.085,0.309,0.174,0.461,0.264c0.046,0.029,0.089,0.056,0.142,0.087l0.036,0.024c0.161,0.098,0.318,0.199,0.476,0.304
		l0.137,0.094c0.148,0.102,0.293,0.203,0.435,0.309c0.054,0.039,0.108,0.082,0.163,0.125c0.179,0.135,0.354,0.274,0.528,0.418
		c0.082,0.069,0.164,0.14,0.245,0.212c0.313,0.27,0.609,0.552,0.896,0.842l0.13,0.138c0.28,0.292,0.548,0.593,0.803,0.905
		l0.11,0.142c0.256,0.32,0.501,0.651,0.728,0.989l0.058,0.093c0.486,0.735,0.908,1.51,1.26,2.318
		c0.007,0.011,0.013,0.022,0.017,0.034c0.171,0.402,0.325,0.809,0.463,1.224c0.01,0.026,0.018,0.054,0.027,0.08
		c0.132,0.404,0.245,0.814,0.34,1.229l0.029,0.125c0.091,0.406,0.167,0.816,0.225,1.231l0.008,0.064
		c-1.778-1-3.288-2.419-4.396-4.133c-1.261-1.942-3.856-2.496-5.799-1.236c-0.307,0.199-0.586,0.438-0.831,0.71
		c-3.59,3.975-8.693,6.247-14.049,6.253c-1.734,0-3.434-0.232-5.078-0.692c0.005-0.071,0.01-0.143,0.016-0.217
		c0.012-0.117,0.022-0.236,0.036-0.353c0.015-0.132,0.032-0.264,0.05-0.394c0.016-0.115,0.031-0.231,0.05-0.344
		c0.021-0.131,0.045-0.262,0.071-0.392c0.044-0.243,0.095-0.484,0.155-0.724l0.08-0.328c0.035-0.129,0.073-0.257,0.11-0.385
		c0.031-0.105,0.06-0.211,0.093-0.315c0.041-0.129,0.086-0.257,0.131-0.385c0.036-0.1,0.07-0.202,0.107-0.303
		c0.049-0.13,0.101-0.258,0.153-0.387c0.038-0.094,0.076-0.19,0.114-0.283c0.059-0.135,0.12-0.269,0.182-0.401
		c0.04-0.084,0.076-0.171,0.118-0.256c0.072-0.149,0.149-0.294,0.226-0.44c0.034-0.065,0.067-0.132,0.103-0.198
		c0.229-0.421,0.479-0.83,0.746-1.227c0.036-0.052,0.073-0.102,0.108-0.153c0.101-0.145,0.201-0.289,0.305-0.429
		c0.051-0.067,0.105-0.132,0.156-0.2c0.094-0.121,0.188-0.243,0.285-0.36c0.059-0.072,0.121-0.143,0.182-0.213
		c0.093-0.11,0.186-0.22,0.284-0.328c0.065-0.072,0.134-0.143,0.202-0.215c0.095-0.102,0.19-0.203,0.288-0.302
		c0.072-0.072,0.146-0.142,0.216-0.212c0.098-0.095,0.196-0.191,0.298-0.284c0.075-0.069,0.153-0.137,0.229-0.204
		c0.102-0.09,0.203-0.178,0.307-0.265c0.08-0.067,0.161-0.132,0.243-0.198c0.104-0.083,0.209-0.167,0.313-0.249
		c0.085-0.064,0.171-0.125,0.256-0.188c0.193-0.141,0.389-0.277,0.59-0.409c0.109-0.073,0.22-0.143,0.332-0.214
		c0.091-0.057,0.184-0.112,0.276-0.167c0.112-0.067,0.227-0.133,0.343-0.196c0.209-0.119,0.42-0.23,0.636-0.335
		c0.097-0.049,0.196-0.097,0.292-0.143c0.12-0.057,0.241-0.11,0.361-0.164c0.1-0.043,0.199-0.086,0.299-0.129
		c0.123-0.051,0.247-0.099,0.371-0.147l0.307-0.114c0.125-0.045,0.253-0.086,0.381-0.129c0.103-0.034,0.205-0.068,0.31-0.099
		c0.131-0.04,0.262-0.076,0.392-0.112c0.106-0.028,0.209-0.059,0.315-0.085c0.133-0.034,0.271-0.064,0.406-0.093
		c0.103-0.023,0.207-0.048,0.312-0.069c0.141-0.03,0.283-0.053,0.426-0.077c0.102-0.018,0.203-0.037,0.306-0.052
		c0.147-0.022,0.299-0.04,0.447-0.057c0.097-0.012,0.196-0.025,0.295-0.035c0.168-0.018,0.337-0.028,0.505-0.039
		c0.083-0.006,0.165-0.016,0.245-0.018c0.254-0.013,0.509-0.02,0.765-0.02C256.116,193.932,256.396,193.94,256.675,193.956
		L256.675,193.956z M255.834,233.611c-8.364,0-15.17-6.806-15.17-15.172v-1.88c1.679,0.321,3.388,0.49,5.125,0.49
		c6.077-0.005,11.979-2.035,16.774-5.768c2.386,2.279,5.28,3.958,8.442,4.895v2.264C271.006,226.805,264.2,233.611,255.834,233.611
		L255.834,233.611z"/>
	
		<linearGradient id="SVGID_3_" gradientUnits="userSpaceOnUse" x1="257.4141" y1="-247.3364" x2="660.557" y2="155.8065" gradientTransform="matrix(1 0 0 -1 -197.6602 192.04)">
		<stop  offset="0" style="stop-color:#EC6C83"/>
		<stop  offset="0.144" style="stop-color:#EC707D"/>
		<stop  offset="0.332" style="stop-color:#EE7D6D"/>
		<stop  offset="0.545" style="stop-color:#F09252"/>
		<stop  offset="0.774" style="stop-color:#F3AF2C"/>
		<stop  offset="1" style="stop-color:#F7D100"/>
	</linearGradient>
	<path fill="url(#SVGID_3_)" d="M339.782,344.478c2.315,0,4.193-1.877,4.194-4.191v-91.375c0-0.015,0.003-0.03,0.003-0.045
		c0-0.015-0.003-0.027-0.003-0.042v-94.488c0-9.548-7.768-17.316-17.317-17.316h-45.83c-1.913-11.383-11.467-20.326-23.318-21.102
		c-0.56-0.036-1.118-0.054-1.678-0.055c-2.316,0-4.193,1.878-4.193,4.194c0,2.315,1.877,4.193,4.193,4.193l0,0
		c0.378,0,0.759,0.011,1.13,0.036c7.439,0.487,13.528,5.787,15.308,12.732h-15.161c1.04-0.329,1.91-1.051,2.424-2.013
		c1.091-2.042,0.318-4.581-1.723-5.67c-0.001-0.001-0.003-0.002-0.006-0.003l-64.652-34.481c-2.043-1.09-4.583-0.318-5.672,1.725
		c0,0.001,0,0.002-0.001,0.003c-1.091,2.042-0.319,4.582,1.724,5.672c0,0,0.001,0.001,0.002,0.001l45.852,24.454
		c-2.15,3.084-3.59,6.606-4.217,10.313h-45.833c-9.547,0-17.316,7.768-17.316,17.316v15.541c0,2.316,1.878,4.193,4.193,4.193
		c2.316,0,4.194-1.877,4.194-4.193v-15.541c0-4.924,4.005-8.928,8.928-8.928h141.652c4.925,0,8.929,4.005,8.929,8.928v90.338
		h-27.535c2.042-5.856,3.083-12.014,3.081-18.217c0-7.487-1.471-14.751-4.375-21.589c-0.904-2.132-3.365-3.126-5.497-2.221
		c-2.132,0.904-3.127,3.365-2.223,5.498c2.461,5.797,3.706,11.958,3.706,18.313c0,13.547-5.83,26.298-15.841,35.154
		c-2.674-6.338-7.944-11.417-14.602-13.758c-0.116-0.052-0.235-0.097-0.357-0.138c-0.286-0.096-0.573-0.186-0.865-0.271
		c-0.031-0.009-0.06-0.019-0.091-0.028c-0.062-0.019-0.124-0.038-0.188-0.054l-0.731-0.195c-0.012-0.001-0.024-0.004-0.037-0.008
		l-0.08-0.017c-0.681-0.167-1.368-0.304-2.061-0.409c-0.2-0.034-0.4-0.063-0.603-0.089l-0.203-0.025
		c-0.275-0.033-0.558-0.061-0.851-0.086c-0.104-0.011-0.21-0.018-0.313-0.024c-0.198-0.016-0.396-0.029-0.596-0.04h-0.069
		c-0.388-0.021-0.775-0.031-1.163-0.032h-16.522c-0.378,0-0.757,0.012-1.134,0.028l-0.132,0.006
		c-0.126,0.007-0.259,0.018-0.387,0.025c-0.365,0.024-0.729,0.055-1.092,0.097c-0.085,0.01-0.17,0.016-0.256,0.025l-0.147,0.019
		c-0.106,0.014-0.207,0.031-0.312,0.048c-0.551,0.077-1.099,0.172-1.644,0.285c-0.259,0.054-0.526,0.116-0.812,0.185l-0.028,0.005
		l-0.081,0.019l-0.684,0.182c-0.063,0.017-0.125,0.034-0.187,0.054c-0.031,0.009-0.06,0.02-0.092,0.028
		c-0.291,0.086-0.579,0.176-0.867,0.271c-0.121,0.042-0.238,0.086-0.353,0.138c-6.659,2.341-11.93,7.42-14.606,13.758
		c-10.076-8.905-15.846-21.707-15.842-35.154c0-25.869,21.045-46.914,46.913-46.914c13.293,0.011,25.959,5.65,34.864,15.521
		c1.579,1.695,4.232,1.789,5.928,0.21c1.655-1.542,1.789-4.119,0.303-5.824c-10.477-11.625-25.453-18.295-41.095-18.295
		c-30.494,0-55.301,24.809-55.301,55.302c-0.002,6.203,1.04,12.36,3.082,18.217h-27.53v-57.707c0-2.316-1.877-4.194-4.193-4.194
		c-2.316,0-4.194,1.877-4.194,4.194v61.857l-0.002,0.042l0.002,0.043v114.417c0,9.546,7.768,17.315,17.315,17.315h141.652
		c9.548,0,17.315-7.77,17.315-17.315v-6.076c0-2.317-1.877-4.193-4.193-4.193c-2.315,0-4.193,1.876-4.193,4.193v6.076
		c0,4.922-4.006,8.928-8.928,8.928H185.008c-4.922,0-8.927-4.006-8.927-8.928V253.062h31.273
		c4.217,7.687,10.199,14.264,17.453,19.187c9.171,6.226,19.901,9.514,31.026,9.514c2.088,0,4.161-0.115,6.211-0.344
		c1.542-0.173,3.074-0.414,4.594-0.718c4.522-0.892,8.914-2.35,13.071-4.339c0.045-0.022,0.09-0.047,0.136-0.068
		c0.571-0.275,1.137-0.559,1.7-0.855c9.621-5.062,17.54-12.844,22.771-22.376h31.272v87.225
		C335.59,342.601,337.467,344.477,339.782,344.478L339.782,344.478z M242.539,130.696l11.324,6.039
		c0.225,0.12,0.458,0.21,0.691,0.285h-15.152C239.995,134.716,241.063,132.562,242.539,130.696z M279.846,266.769
		c-0.125,0.075-0.248,0.149-0.374,0.224c-0.203,0.119-0.404,0.233-0.606,0.348c-0.287,0.162-0.575,0.32-0.864,0.476
		c-0.201,0.11-0.404,0.218-0.609,0.324c-0.298,0.156-0.597,0.305-0.896,0.449c-0.512,0.259-1.03,0.503-1.557,0.73
		c-0.185,0.082-0.371,0.17-0.557,0.249c-0.372,0.159-0.745,0.312-1.121,0.462c-0.138,0.058-0.276,0.115-0.414,0.169
		c-0.516,0.2-1.039,0.395-1.563,0.577l-0.244,0.08c-0.442,0.151-0.883,0.296-1.33,0.436c-0.181,0.056-0.366,0.106-0.549,0.16
		c-0.347,0.104-0.695,0.205-1.045,0.299c-0.209,0.059-0.421,0.111-0.632,0.163c-0.325,0.084-0.65,0.164-0.979,0.241
		c-0.224,0.052-0.447,0.1-0.673,0.15c-0.864,0.188-1.733,0.352-2.608,0.487c-0.231,0.037-0.462,0.073-0.694,0.104
		c-0.162,0.023-0.325,0.045-0.488,0.064l10.171-15.958C275.922,259.132,278.687,262.649,279.846,266.769L279.846,266.769z
		 M263.653,254.828l-7.819,12.268l-7.818-12.268H263.653z M239.457,257.004l10.171,15.956c-0.163-0.02-0.326-0.039-0.489-0.063
		c-0.232-0.031-0.464-0.069-0.696-0.106c-0.552-0.085-1.103-0.182-1.651-0.291c-0.319-0.059-0.638-0.127-0.955-0.196
		c-0.226-0.049-0.451-0.097-0.677-0.148c-0.325-0.077-0.65-0.157-0.974-0.24c-0.213-0.054-0.426-0.106-0.637-0.165
		c-0.348-0.093-0.695-0.192-1.039-0.297c-0.185-0.053-0.372-0.105-0.556-0.161c-0.439-0.138-0.877-0.28-1.313-0.43
		c-0.086-0.029-0.174-0.056-0.261-0.086c-0.522-0.183-1.043-0.376-1.559-0.577c-0.14-0.054-0.279-0.113-0.419-0.169
		c-0.374-0.15-0.746-0.303-1.116-0.459c-0.187-0.082-0.374-0.168-0.559-0.252c-0.321-0.14-0.64-0.285-0.956-0.437
		c-0.202-0.095-0.401-0.194-0.601-0.292c-0.299-0.146-0.597-0.295-0.893-0.449c-0.204-0.105-0.408-0.215-0.611-0.325
		c-0.494-0.265-0.983-0.539-1.467-0.821c-0.126-0.074-0.251-0.151-0.378-0.227C232.983,262.649,235.747,259.132,239.457,257.004
		L239.457,257.004z"/>
	
		<linearGradient id="SVGID_4_" gradientUnits="userSpaceOnUse" x1="291.3672" y1="-281.2827" x2="694.5057" y2="121.8558" gradientTransform="matrix(1 0 0 -1 -197.6602 192.04)">
		<stop  offset="0" style="stop-color:#EC6C83"/>
		<stop  offset="0.144" style="stop-color:#EC707D"/>
		<stop  offset="0.332" style="stop-color:#EE7D6D"/>
		<stop  offset="0.545" style="stop-color:#F09252"/>
		<stop  offset="0.774" style="stop-color:#F3AF2C"/>
		<stop  offset="1" style="stop-color:#F7D100"/>
	</linearGradient>
	<path fill="url(#SVGID_4_)" d="M308.059,303.188c0-2.315-1.877-4.193-4.192-4.193c-0.001,0-0.001,0-0.002,0h-96.058
		c-2.315,0-4.193,1.877-4.193,4.193l0,0V319.2c0,2.315,1.876,4.193,4.192,4.193h0h96.058c2.315,0,4.193-1.876,4.194-4.191
		c0-0.001,0-0.002,0-0.002V303.188z M299.671,315.006H212v-7.625h87.671V315.006z"/>
	
		<linearGradient id="SVGID_5_" gradientUnits="userSpaceOnUse" x1="307.165" y1="-297.0918" x2="710.3127" y2="106.0568" gradientTransform="matrix(1 0 0 -1 -197.6602 192.04)">
		<stop  offset="0" style="stop-color:#EC6C83"/>
		<stop  offset="0.144" style="stop-color:#EC707D"/>
		<stop  offset="0.332" style="stop-color:#EE7D6D"/>
		<stop  offset="0.545" style="stop-color:#F09252"/>
		<stop  offset="0.774" style="stop-color:#F3AF2C"/>
		<stop  offset="1" style="stop-color:#F7D100"/>
	</linearGradient>
	<path fill="url(#SVGID_5_)" d="M308.059,342.8c0-2.314-1.877-4.19-4.192-4.19c-0.001,0-0.001,0-0.002,0h-96.058
		c-2.316,0-4.193,1.876-4.193,4.191s1.877,4.193,4.193,4.193h96.058C306.181,346.994,308.058,345.115,308.059,342.8z"/>
	
		<linearGradient id="SVGID_6_" gradientUnits="userSpaceOnUse" x1="315.8438" y1="-305.771" x2="718.9968" y2="97.3821" gradientTransform="matrix(1 0 0 -1 -197.6602 192.04)">
		<stop  offset="0" style="stop-color:#EC6C83"/>
		<stop  offset="0.144" style="stop-color:#EC707D"/>
		<stop  offset="0.332" style="stop-color:#EE7D6D"/>
		<stop  offset="0.545" style="stop-color:#F09252"/>
		<stop  offset="0.774" style="stop-color:#F3AF2C"/>
		<stop  offset="1" style="stop-color:#F7D100"/>
	</linearGradient>
	<path fill="url(#SVGID_6_)" d="M236.47,355.987c-2.316,0.033-4.167,1.938-4.134,4.254c0.032,2.27,1.864,4.102,4.134,4.134h38.729
		c2.315-0.057,4.147-1.981,4.091-4.297c-0.056-2.236-1.855-4.035-4.091-4.091H236.47L236.47,355.987z"/>
	
		<linearGradient id="SVGID_7_" gradientUnits="userSpaceOnUse" x1="213.2046" y1="-203.1167" x2="616.3406" y2="200.0193" gradientTransform="matrix(1 0 0 -1 -197.6602 192.04)">
		<stop  offset="0" style="stop-color:#EC6C83"/>
		<stop  offset="0.144" style="stop-color:#EC707D"/>
		<stop  offset="0.332" style="stop-color:#EE7D6D"/>
		<stop  offset="0.545" style="stop-color:#F09252"/>
		<stop  offset="0.774" style="stop-color:#F3AF2C"/>
		<stop  offset="1" style="stop-color:#F7D100"/>
	</linearGradient>
	<path fill="url(#SVGID_7_)" d="M284.751,121.809c0.667,0,1.341-0.16,1.972-0.494l35.739-19.063
		c2.044-1.089,2.817-3.629,1.728-5.673c-1.089-2.043-3.629-2.817-5.672-1.728l-35.743,19.062c-2.044,1.09-2.817,3.629-1.727,5.672
		c0,0,0.001,0,0.001,0C281.776,120.955,283.201,121.811,284.751,121.809L284.751,121.809z"/>
</g>
</svg>
