<svg width="17" height="12" viewBox="0 0 17 12" fill="none" xmlns="http://www.w3.org/2000/svg">
<path d="M15.3454 10.1399C14.3088 11.1778 12.9102 11.7517 11.404 11.75C9.87835 11.7489 8.44772 11.16 7.37344 10.0931L4.41818 7.23965L3.24012 6.0978L2.83284 5.70413C2.69161 5.56207 2.51253 5.48754 2.31773 5.48872L2.31368 5.48754C2.13124 5.48714 1.96115 5.55673 1.83425 5.68136C1.70716 5.81133 1.63738 5.98179 1.6359 6.17106C1.6359 6.35072 1.70795 6.52128 1.83653 6.64987C2.01433 6.82815 2.37298 6.85962 2.62549 6.75975L2.62757 6.75905C2.91606 6.60898 3.3436 6.62393 3.5707 6.87101C3.80652 7.1268 3.82836 7.47276 3.63811 7.75063L3.61963 7.77013C3.27461 8.04096 2.8186 8.20291 2.32336 8.2039C1.75292 8.20548 1.21735 7.99582 0.855337 7.63323C0.467328 7.2445 0.254052 6.72669 0.25 6.16868C0.25168 5.61444 0.468415 5.09336 0.854152 4.70183C1.22625 4.32888 1.75924 4.11664 2.31596 4.11636C2.88028 4.11841 3.42543 4.33482 3.80424 4.71344L8.3391 9.09946C9.16085 9.91394 10.2465 10.3617 11.4049 10.3634C12.5416 10.3615 13.596 9.93344 14.3662 9.16143C15.1607 8.35189 15.595 7.29221 15.5973 6.16997C15.5979 5.03892 15.1618 3.98624 14.3682 3.19167C13.6103 2.43471 12.5216 1.99758 11.3842 1.99833C10.245 1.99629 9.1588 2.43054 8.40013 3.19051L5.98573 5.60811C5.98573 5.60811 5.91744 5.66176 5.76524 5.69779C5.76208 5.69848 5.75892 5.69918 5.75605 5.69947L5.75684 5.70155C5.53783 5.74085 5.27286 5.68423 5.10219 5.51377C4.87131 5.28223 4.85343 4.90705 5.00761 4.63343L5.00385 4.62838L7.43441 2.20061C8.44007 1.1901 9.8789 0.612415 11.3821 0.611527C12.888 0.613029 14.3307 1.1927 15.3454 2.21249C16.4041 3.26342 16.9821 4.67016 16.9844 6.17006C16.9821 7.65798 16.4033 9.06728 15.3454 10.1399ZM5.92228 5.54792L5.93147 5.55732H5.93206L5.92228 5.54792Z" fill="white"/>
</svg>
