<svg width="246" height="287" viewBox="0 0 246 287" fill="none" xmlns="http://www.w3.org/2000/svg">
<path d="M12.2371 194.875V195.966C13.9265 193.877 15.6869 192.328 17.5327 191.34C19.3365 190.351 21.4226 189.876 23.736 189.876C26.5141 189.876 29.0764 190.596 31.3913 192.024C33.7466 193.467 35.5924 195.559 36.9402 198.317C38.2996 201.075 38.9756 204.356 38.9756 208.122C38.9756 210.9 38.579 213.459 37.8103 215.788C37.0213 218.114 35.9442 220.064 34.5718 221.637C33.224 223.206 31.5983 224.433 29.7453 225.291C27.8705 226.134 25.8771 226.56 23.7374 226.56C21.1577 226.56 18.9876 226.041 17.2388 224.995C15.4741 223.969 13.8151 222.449 12.2385 220.437V234.007C12.2385 237.977 10.7865 239.974 7.9071 239.974C6.21043 239.974 5.09138 239.466 4.5456 238.434C3.97232 237.41 3.69727 235.914 3.69727 233.959V194.937C3.69727 193.209 4.09393 191.927 4.82066 191.08C5.57345 190.222 6.59406 189.807 7.9071 189.807C9.1825 189.807 10.2379 190.248 11.0225 191.126C11.8274 191.982 12.2371 193.242 12.2371 194.875ZM29.9074 208.019C29.9074 205.632 29.5614 203.586 28.8347 201.878C28.0949 200.166 27.0946 198.851 25.7989 197.937C24.5192 197.032 23.0845 196.562 21.5341 196.562C19.0267 196.562 16.9319 197.54 15.2309 199.506C13.5154 201.472 12.6555 204.356 12.6555 208.187C12.6555 211.779 13.5168 214.573 15.2019 216.578C16.9073 218.566 19.0064 219.575 21.5355 219.575C23.0339 219.575 24.4193 219.132 25.6773 218.253C26.9657 217.389 27.9863 216.095 28.7551 214.337C29.5267 212.594 29.9074 210.497 29.9074 208.019Z" fill="white"/>
<path d="M78.2919 208.187C78.2919 210.861 77.8866 213.359 77.0541 215.631C76.2058 217.911 74.9984 219.852 73.4103 221.51C71.8266 223.125 69.9186 224.385 67.7268 225.267C65.5191 226.112 63.0493 226.56 60.2959 226.56C57.5554 226.56 55.0944 226.112 52.9243 225.233C50.7369 224.36 48.8534 223.084 47.2494 221.468C45.6526 219.81 44.4366 217.866 43.6085 215.615C42.7819 213.374 42.3838 210.9 42.3838 208.189C42.3838 205.448 42.7805 202.937 43.6244 200.662C44.4728 198.387 45.6512 196.449 47.2263 194.837C48.7796 193.242 50.6761 191.982 52.9229 191.128C55.1349 190.249 57.6003 189.808 60.2944 189.808C63.0175 189.808 65.4916 190.262 67.7253 191.137C69.9591 192.015 71.8584 193.268 73.4465 194.917C75.0346 196.545 76.2333 198.478 77.057 200.728C77.8866 202.983 78.2919 205.481 78.2919 208.187ZM69.2396 208.187C69.2396 204.482 68.4419 201.64 66.8278 199.57C65.1933 197.531 63.0189 196.494 60.2959 196.494C58.5225 196.494 56.9691 196.951 55.6257 197.869C54.2866 198.782 53.2486 200.14 52.5219 201.92C51.7879 203.712 51.4332 205.803 51.4332 208.187C51.4332 210.543 51.7879 212.602 52.4972 214.371C53.2196 216.148 54.2489 217.487 55.588 218.431C56.9257 219.374 58.4631 219.841 60.2959 219.841C63.0189 219.841 65.1933 218.808 66.8278 216.735C68.4419 214.676 69.2396 211.825 69.2396 208.187Z" fill="white"/>
<path d="M88.2737 185.621C87.0186 185.621 85.9386 185.216 85.0439 184.449C84.1696 183.685 83.7266 182.584 83.7266 181.163C83.7266 179.886 84.1826 178.838 85.1033 177.998C85.9893 177.17 87.049 176.763 88.2737 176.763C89.4434 176.763 90.4771 177.148 91.3891 177.876C92.2968 178.632 92.7485 179.732 92.7485 181.163C92.7485 182.558 92.3055 183.65 91.4311 184.436C90.5451 185.194 89.4854 185.621 88.2737 185.621ZM92.7499 194.938V221.075C92.7499 222.889 92.3113 224.247 91.4615 225.181C90.5914 226.095 89.5158 226.559 88.1811 226.559C86.855 226.559 85.7779 226.082 84.9643 225.139C84.1319 224.192 83.7266 222.838 83.7266 221.075V195.221C83.7266 193.407 84.1319 192.075 84.9643 191.161C85.7794 190.265 86.8564 189.807 88.1811 189.807C89.5158 189.807 90.5929 190.264 91.4615 191.161C92.3113 192.075 92.7499 193.339 92.7499 194.938Z" fill="white"/>
<path d="M129.433 214.727C129.433 217.234 128.825 219.374 127.609 221.156C126.402 222.939 124.608 224.268 122.247 225.19C119.874 226.112 116.982 226.559 113.6 226.559C110.366 226.559 107.57 226.069 105.269 225.062C102.959 224.072 101.254 222.838 100.147 221.349C99.0406 219.852 98.4746 218.357 98.4746 216.857C98.4746 215.866 98.838 214.996 99.5386 214.306C100.252 213.609 101.13 213.249 102.215 213.249C103.165 213.249 103.896 213.469 104.416 213.939C104.91 214.409 105.408 215.049 105.856 215.91C106.786 217.509 107.896 218.71 109.187 219.497C110.47 220.3 112.239 220.706 114.448 220.706C116.264 220.706 117.742 220.296 118.924 219.497C120.044 218.672 120.634 217.759 120.634 216.731C120.634 215.136 120.035 213.978 118.827 213.251C117.62 212.528 115.657 211.827 112.899 211.154C109.795 210.388 107.266 209.585 105.321 208.731C103.365 207.875 101.794 206.765 100.642 205.373C99.4764 203.982 98.8901 202.268 98.8901 200.238C98.8901 198.437 99.417 196.71 100.494 195.114C101.584 193.49 103.168 192.195 105.283 191.244C107.398 190.288 109.924 189.81 112.901 189.81C115.231 189.81 117.364 190.051 119.197 190.551C121.055 191.037 122.622 191.679 123.858 192.492C125.099 193.304 126.059 194.2 126.709 195.224C127.359 196.214 127.702 197.161 127.702 198.126C127.702 199.158 127.325 200.008 126.638 200.663C125.949 201.336 124.958 201.665 123.679 201.665C122.754 201.665 121.972 201.398 121.304 200.865C120.67 200.35 119.919 199.538 119.088 198.479C118.416 197.601 117.606 196.902 116.685 196.361C115.744 195.827 114.482 195.56 112.902 195.56C111.265 195.56 109.926 195.916 108.84 196.626C107.767 197.316 107.223 198.173 107.223 199.206C107.223 200.153 107.612 200.93 108.414 201.539C109.192 202.144 110.267 202.657 111.631 203.045C112.97 203.45 114.801 203.95 117.167 204.508C119.967 205.203 122.264 205.996 124.023 206.944C125.798 207.9 127.144 209.014 128.078 210.311C128.977 211.615 129.433 213.09 129.433 214.727Z" fill="white"/>
<path d="M164.441 214.727C164.441 217.234 163.816 219.374 162.604 221.156C161.397 222.939 159.618 224.268 157.246 225.19C154.864 226.112 152.002 226.559 148.586 226.559C145.348 226.559 142.574 226.069 140.268 225.062C137.939 224.072 136.261 222.838 135.125 221.349C134.032 219.852 133.479 218.357 133.479 216.857C133.479 215.866 133.838 214.996 134.537 214.306C135.246 213.609 136.136 213.249 137.227 213.249C138.176 213.249 138.903 213.469 139.41 213.939C139.908 214.409 140.394 215.049 140.862 215.91C141.774 217.509 142.888 218.71 144.186 219.497C145.47 220.3 147.237 220.706 149.451 220.706C151.263 220.706 152.737 220.296 153.901 219.497C155.066 218.672 155.632 217.759 155.632 216.731C155.632 215.136 155.033 213.978 153.833 213.251C152.63 212.528 150.654 211.827 147.896 211.154C144.805 210.388 142.259 209.585 140.322 208.731C138.359 207.875 136.799 206.765 135.623 205.373C134.464 203.982 133.878 202.268 133.878 200.238C133.878 198.437 134.424 196.71 135.504 195.114C136.577 193.49 138.186 192.195 140.271 191.244C142.39 190.288 144.924 189.81 147.897 189.81C150.241 189.81 152.327 190.051 154.205 190.551C156.058 191.037 157.608 191.679 158.866 192.492C160.097 193.304 161.051 194.2 161.71 195.224C162.344 196.214 162.675 197.161 162.675 198.126C162.675 199.158 162.335 200.008 161.633 200.663C160.948 201.336 159.952 201.665 158.664 201.665C157.76 201.665 156.971 201.398 156.304 200.865C155.67 200.35 154.914 199.538 154.083 198.479C153.394 197.601 152.601 196.902 151.663 196.361C150.733 195.827 149.48 195.56 147.896 195.56C146.257 195.56 144.922 195.916 143.847 196.626C142.761 197.316 142.212 198.173 142.212 199.206C142.212 200.153 142.609 200.93 143.398 201.539C144.197 202.144 145.268 202.657 146.616 203.045C147.942 203.45 149.808 203.95 152.169 204.508C154.974 205.203 157.245 205.996 159.021 206.944C160.802 207.9 162.145 209.014 163.044 210.311C163.968 211.615 164.441 213.09 164.441 214.727Z" fill="white"/>
<path d="M204.145 208.187C204.145 210.861 203.74 213.359 202.905 215.631C202.077 217.911 200.856 219.852 199.268 221.51C197.671 223.125 195.785 224.385 193.576 225.267C191.38 226.112 188.901 226.56 186.144 226.56C183.416 226.56 180.951 226.112 178.768 225.233C176.593 224.36 174.708 223.084 173.106 221.468C171.513 219.81 170.297 217.866 169.456 215.615C168.634 213.374 168.231 210.9 168.231 208.189C168.231 205.448 168.641 202.937 169.476 200.662C170.329 198.387 171.529 196.449 173.083 194.837C174.649 193.242 176.55 191.982 178.766 191.128C180.996 190.249 183.444 189.808 186.142 189.808C188.875 189.808 191.358 190.262 193.574 191.137C195.8 192.015 197.712 193.268 199.3 194.917C200.892 196.545 202.104 198.478 202.926 200.728C203.74 202.983 204.145 205.481 204.145 208.187ZM195.109 208.187C195.109 204.482 194.298 201.64 192.686 199.57C191.051 197.531 188.877 196.494 186.144 196.494C184.374 196.494 182.825 196.951 181.473 197.869C180.126 198.782 179.101 200.14 178.367 201.92C177.649 203.712 177.29 205.803 177.29 208.187C177.29 210.543 177.649 212.602 178.349 214.371C179.067 216.148 180.094 217.487 181.44 218.431C182.766 219.374 184.337 219.841 186.144 219.841C188.877 219.841 191.051 218.808 192.686 216.735C194.298 214.676 195.109 211.825 195.109 208.187Z" fill="white"/>
<path d="M217.78 194.824V195.898C219.355 193.806 221.089 192.262 222.981 191.28C224.856 190.307 227.03 189.807 229.467 189.807C231.851 189.807 233.983 190.32 235.868 191.367C237.708 192.395 239.123 193.874 240.052 195.762C240.656 196.865 241.028 198.062 241.223 199.335C241.387 200.621 241.477 202.249 241.477 204.259V221.075C241.477 222.889 241.054 224.247 240.232 225.181C239.404 226.095 238.344 226.559 237.022 226.559C235.654 226.559 234.581 226.082 233.724 225.139C232.906 224.192 232.484 222.838 232.484 221.075V205.998C232.484 203.029 232.074 200.746 231.243 199.172C230.412 197.582 228.76 196.79 226.29 196.79C224.702 196.79 223.229 197.251 221.913 198.224C220.587 199.188 219.615 200.517 218.999 202.19C218.55 203.535 218.349 206.056 218.349 209.734V221.073C218.349 222.887 217.904 224.266 217.073 225.188C216.229 226.111 215.122 226.557 213.784 226.557C212.462 226.557 211.411 226.08 210.57 225.138C209.739 224.191 209.325 222.836 209.325 221.073V194.937C209.325 193.209 209.697 191.927 210.444 191.08C211.183 190.222 212.218 189.807 213.509 189.807C214.304 189.807 215.029 189.994 215.646 190.374C216.304 190.751 216.808 191.316 217.203 192.066C217.575 192.803 217.78 193.72 217.78 194.824Z" fill="white"/>
<path d="M43.0569 274.865C43.0569 277.361 42.4532 279.485 41.2372 281.282C40.0255 283.053 38.2434 284.39 35.8576 285.311C33.5052 286.22 30.6171 286.69 27.2237 286.69C23.9896 286.69 21.2115 286.196 18.9054 285.21C16.5833 284.186 14.8736 282.959 13.7676 281.47C12.6789 279.99 12.1201 278.477 12.1201 276.988C12.1201 275.99 12.4791 275.144 13.1798 274.438C13.8935 273.723 14.7795 273.359 15.8609 273.359C16.7976 273.359 17.533 273.612 18.0223 274.053C18.542 274.539 19.027 275.186 19.496 276.017C20.4211 277.619 21.5358 278.841 22.8271 279.627C24.0938 280.414 25.8672 280.82 28.088 280.82C29.8918 280.82 31.3771 280.414 32.5338 279.618C33.6789 278.806 34.2695 277.89 34.2695 276.845C34.2695 275.271 33.6615 274.095 32.4759 273.36C31.2598 272.641 29.2837 271.946 26.5216 271.284C23.4221 270.509 20.9017 269.713 18.9546 268.846C16.9988 268.005 15.4367 266.887 14.2685 265.492C13.0944 264.105 12.5197 262.392 12.5197 260.362C12.5197 258.54 13.0553 256.823 14.1411 255.232C15.2008 253.626 16.8062 252.318 18.9126 251.371C21.0204 250.411 23.5539 249.934 26.5216 249.934C28.8697 249.934 30.9587 250.175 32.8378 250.673C34.6749 251.148 36.2326 251.799 37.479 252.632C38.7457 253.441 39.6911 254.338 40.3338 255.322C40.9752 256.317 41.3009 257.297 41.3009 258.241C41.3009 259.272 40.9592 260.132 40.2629 260.783C39.5695 261.467 38.5908 261.788 37.3111 261.788C36.386 261.788 35.5927 261.517 34.947 260.989C34.2927 260.477 33.5457 259.665 32.7133 258.601C32.03 257.728 31.228 257.017 30.2899 256.489C29.3778 255.957 28.1184 255.69 26.523 255.69C24.8944 255.69 23.5466 256.037 22.4652 256.726C21.4012 257.423 20.8438 258.295 20.8438 259.318C20.8438 260.283 21.2492 261.066 22.0396 261.666C22.8286 262.275 23.8969 262.782 25.2476 263.175C26.5911 263.565 28.4311 264.051 30.8038 264.622C33.6036 265.318 35.8794 266.136 37.6614 267.083C39.4175 268.043 40.7812 269.155 41.6903 270.433C42.6052 271.727 43.0569 273.211 43.0569 274.865Z" fill="white"/>
<path d="M82.7882 268.31C82.7882 270.982 82.3698 273.486 81.5388 275.753C80.6948 278.019 79.4831 279.991 77.8863 281.624C76.3069 283.248 74.4076 284.508 72.2115 285.371C70.0081 286.249 67.5166 286.69 64.7632 286.69C62.0314 286.69 59.5906 286.249 57.3873 285.362C55.2158 284.474 53.3425 283.206 51.7327 281.573C50.1489 279.923 48.9213 277.986 48.0932 275.741C47.2651 273.496 46.8525 271.03 46.8525 268.311C46.8525 265.579 47.2782 263.067 48.1062 260.784C48.9502 258.525 50.1576 256.588 51.7167 254.964C53.2672 253.357 55.1796 252.113 57.3873 251.235C59.6196 250.37 62.0908 249.935 64.7632 249.935C67.4993 249.935 69.969 250.37 72.2115 251.251C74.4322 252.142 76.3576 253.386 77.9124 255.019C79.5092 256.678 80.7281 258.602 81.5475 260.876C82.3886 263.099 82.7882 265.59 82.7882 268.31ZM73.7359 268.31C73.7359 264.618 72.9208 261.743 71.3038 259.7C69.678 257.645 67.4993 256.621 64.7632 256.621C63.0028 256.621 61.448 257.085 60.1103 257.999C58.7683 258.905 57.7289 260.27 56.9993 262.052C56.274 263.844 55.9135 265.925 55.9135 268.31C55.9135 270.665 56.2682 272.725 56.9776 274.488C57.7115 276.27 58.7133 277.619 60.0684 278.554C61.4017 279.485 62.9637 279.974 64.7632 279.974C67.4993 279.974 69.678 278.937 71.3038 276.869C72.9208 274.797 73.7359 271.946 73.7359 268.31Z" fill="white"/>
<path d="M88.2031 281.192V242.005C88.2031 240.178 88.6085 238.804 89.4105 237.869C90.2038 236.955 91.3069 236.498 92.6533 236.498C94.0344 236.498 95.136 236.948 95.9713 237.853C96.8124 238.783 97.225 240.154 97.225 242.005V281.192C97.225 283.016 96.7951 284.389 95.9453 285.311C95.1129 286.22 94.0025 286.69 92.6518 286.69C91.3431 286.69 90.2748 286.2 89.4423 285.262C88.6201 284.309 88.2031 282.961 88.2031 281.192Z" fill="white"/>
<path d="M128.298 281.593V280.414C127.212 281.792 126.081 282.943 124.898 283.874C123.698 284.801 122.398 285.481 120.993 285.946C119.574 286.396 117.981 286.619 116.163 286.619C113.976 286.619 112.026 286.171 110.281 285.262C108.566 284.356 107.232 283.12 106.274 281.513C105.146 279.602 104.598 276.845 104.598 273.25V255.324C104.598 253.51 104.999 252.164 105.827 251.294C106.633 250.37 107.714 249.935 109.061 249.935C110.413 249.935 111.519 250.379 112.363 251.294C113.203 252.195 113.612 253.543 113.612 255.324V269.787C113.612 271.899 113.798 273.649 114.139 275.074C114.49 276.502 115.124 277.62 116.043 278.428C116.964 279.231 118.197 279.629 119.772 279.629C121.288 279.629 122.728 279.18 124.049 278.271C125.417 277.369 126.392 276.198 127 274.739C127.507 273.444 127.765 270.662 127.765 266.313V255.322C127.765 253.54 128.173 252.193 129.027 251.293C129.858 250.378 130.944 249.934 132.295 249.934C133.638 249.934 134.715 250.369 135.542 251.293C136.354 252.164 136.771 253.508 136.771 255.322V281.513C136.771 283.239 136.354 284.529 135.576 285.379C134.795 286.258 133.791 286.69 132.554 286.69C131.328 286.69 130.303 286.225 129.492 285.34C128.687 284.44 128.298 283.201 128.298 281.593Z" fill="white"/>
<path d="M152.4 241.65V255.461C154.077 253.703 155.804 252.35 157.568 251.406C159.337 250.463 161.512 249.998 164.116 249.998C167.106 249.998 169.749 250.716 172.012 252.142C174.259 253.555 176.015 255.615 177.264 258.321C178.494 261.037 179.136 264.243 179.136 267.939C179.136 270.679 178.777 273.201 178.083 275.483C177.394 277.754 176.385 279.763 175.063 281.409C173.743 283.104 172.13 284.39 170.247 285.311C168.346 286.22 166.295 286.69 164.013 286.69C162.638 286.69 161.329 286.522 160.096 286.196C158.865 285.858 157.841 285.43 156.979 284.88C156.118 284.342 155.388 283.776 154.771 283.201C154.172 282.643 153.374 281.776 152.399 280.617V281.514C152.399 283.214 151.963 284.508 151.158 285.371C150.339 286.249 149.305 286.69 148.054 286.69C146.766 286.69 145.761 286.249 144.997 285.371C144.234 284.508 143.857 283.214 143.857 281.514V242.056C143.857 240.212 144.221 238.833 144.968 237.895C145.716 236.957 146.725 236.498 148.056 236.498C149.448 236.498 150.508 236.943 151.265 237.826C152.019 238.731 152.4 239.991 152.4 241.65ZM152.814 268.504C152.814 272.107 153.632 274.865 155.275 276.802C156.923 278.74 159.062 279.713 161.73 279.713C164.015 279.713 165.962 278.722 167.605 276.743C169.253 274.761 170.075 271.932 170.075 268.239C170.075 265.862 169.716 263.802 169.035 262.086C168.348 260.364 167.394 259.049 166.131 258.093C164.882 257.155 163.424 256.69 161.73 256.69C160 256.69 158.493 257.154 157.137 258.093C155.802 259.049 154.744 260.386 153.974 262.149C153.202 263.938 152.814 266.048 152.814 268.504Z" fill="white"/>
<path d="M183.776 281.192V242.005C183.776 240.178 184.182 238.804 184.992 237.869C185.787 236.955 186.876 236.498 188.244 236.498C189.608 236.498 190.709 236.948 191.562 237.853C192.39 238.783 192.803 240.154 192.803 242.005V281.192C192.803 283.016 192.377 284.389 191.519 285.311C190.679 286.22 189.59 286.69 188.242 286.69C186.925 286.69 185.848 286.2 185.029 285.262C184.211 284.309 183.776 282.961 183.776 281.192Z" fill="white"/>
<path d="M225.625 270.518H207.972C207.996 272.582 208.406 274.401 209.217 275.966C210.006 277.522 211.092 278.702 212.413 279.485C213.751 280.288 215.22 280.694 216.839 280.694C217.91 280.694 218.899 280.571 219.785 280.304C220.688 280.072 221.551 279.653 222.386 279.133C223.226 278.57 224.008 278.003 224.701 277.368C225.397 276.768 226.322 275.905 227.449 274.864C227.889 274.464 228.568 274.281 229.425 274.281C230.35 274.281 231.097 274.517 231.685 275.031C232.258 275.55 232.533 276.257 232.533 277.182C232.533 278.002 232.229 278.95 231.583 280.05C230.946 281.132 229.975 282.191 228.674 283.201C227.402 284.187 225.768 285.033 223.835 285.688C221.875 286.361 219.626 286.69 217.092 286.69C211.299 286.69 206.785 285.031 203.571 281.708C200.363 278.416 198.759 273.917 198.759 268.237C198.759 265.578 199.151 263.09 199.957 260.794C200.729 258.524 201.892 256.556 203.403 254.928C204.936 253.304 206.798 252.044 209.018 251.168C211.265 250.292 213.718 249.866 216.455 249.866C219.943 249.866 222.983 250.615 225.507 252.112C228.028 253.584 229.924 255.521 231.178 257.873C232.436 260.245 233.066 262.652 233.066 265.095C233.066 267.366 232.411 268.846 231.111 269.528C229.822 270.188 227.976 270.518 225.625 270.518ZM207.972 265.392H224.333C224.122 262.31 223.278 259.996 221.838 258.474C220.402 256.919 218.505 256.165 216.137 256.165C213.886 256.165 212.046 256.93 210.583 258.49C209.144 260.055 208.279 262.33 207.972 265.392Z" fill="white"/>
<path d="M221.139 23.9835C205.956 8.78023 185.469 0.374574 163.406 0.399224C141.058 0.415174 120.102 9.04122 104.366 24.6693L61.0772 66.467L43.8209 83.1928L37.855 88.9594C35.7863 91.0402 33.1631 92.132 30.3097 92.1146L30.2504 92.132C27.578 92.1378 25.0865 91.1185 23.2277 89.2929C21.366 87.3891 20.3439 84.8922 20.3222 82.1198C20.3222 79.488 21.3776 76.9897 23.261 75.1061C25.8654 72.4947 31.119 72.0336 34.8178 73.4966L34.8482 73.5068C39.074 75.705 45.3366 75.486 48.6633 71.8668C52.1175 68.12 52.4374 63.0523 49.6507 58.9821L49.3799 58.6965C44.3261 54.7293 37.6465 52.3571 30.3922 52.3426C22.0363 52.3194 14.1913 55.3905 8.88849 60.7018C3.20492 66.396 0.080839 73.9809 0.0214844 82.1546C0.0460948 90.2731 3.22084 97.9059 8.87112 103.641C14.3216 109.104 22.1289 112.213 30.2837 112.217C38.5499 112.187 46.5353 109.017 52.0842 103.471L118.511 39.2244C130.548 27.2938 146.451 20.7355 163.419 20.7108C180.069 20.7384 195.514 27.0082 206.796 38.3167C218.434 50.1748 224.796 65.6971 224.829 82.1357C224.838 98.7034 218.45 114.123 206.825 125.762C195.724 136.85 179.776 143.253 163.115 143.242C146.429 143.272 130.518 136.911 119.405 125.779L84.0387 90.3659C84.0387 90.3659 83.0384 89.58 80.809 89.0522C80.7626 89.0421 80.7163 89.0319 80.6743 89.0276L80.6859 88.9971C77.4779 88.4215 73.5966 89.2509 71.0965 91.7478C67.7147 95.1393 67.4527 100.635 69.7111 104.643L69.6561 104.717L105.259 140.279C119.99 155.081 141.066 163.543 163.085 163.556C185.143 163.534 206.276 155.043 221.139 140.105C236.648 124.711 245.114 104.105 245.148 82.1343C245.114 60.3393 236.635 39.6957 221.139 23.9835ZM83.1093 91.2475L83.2439 91.1098H83.2526L83.1093 91.2475Z" fill="white"/>
</svg>
