<?xml version="1.0" encoding="utf-8"?>
<!-- Generator: Adobe Illustrator 16.0.0, SVG Export Plug-In . SVG Version: 6.00 Build 0)  -->
<!DOCTYPE svg PUBLIC "-//W3C//DTD SVG 1.1//EN" "http://www.w3.org/Graphics/SVG/1.1/DTD/svg11.dtd">
<svg version="1.1" id="Calque_1" xmlns="http://www.w3.org/2000/svg" xmlns:xlink="http://www.w3.org/1999/xlink" x="0px" y="0px"
	 width="172px" height="200px" viewBox="0 0 172 200" enable-background="new 0 0 172 200" xml:space="preserve">
<g>
	<g>
		<g>
			<path fill="#1D1D1B" d="M9.521,135.679v0.753c1.167-1.441,2.383-2.509,3.658-3.191c1.246-0.682,2.687-1.009,4.285-1.009
				c1.919,0,3.689,0.496,5.288,1.481c1.627,0.995,2.902,2.438,3.833,4.34c0.939,1.902,1.406,4.165,1.406,6.762
				c0,1.916-0.274,3.681-0.805,5.287c-0.545,1.604-1.289,2.949-2.237,4.034c-0.931,1.082-2.054,1.928-3.334,2.52
				c-1.295,0.581-2.672,0.875-4.15,0.875c-1.782,0-3.281-0.358-4.489-1.079c-1.219-0.708-2.365-1.756-3.454-3.144v9.359
				c0,2.738-1.003,4.115-2.992,4.115c-1.172,0-1.945-0.35-2.322-1.062c-0.396-0.706-0.586-1.738-0.586-3.086v-26.912
				c0-1.192,0.274-2.076,0.776-2.66c0.52-0.592,1.225-0.878,2.132-0.878c0.881,0,1.61,0.304,2.152,0.91
				C9.238,133.684,9.521,134.553,9.521,135.679z M21.727,144.744c0-1.646-0.239-3.057-0.741-4.235
				c-0.511-1.181-1.202-2.088-2.097-2.718c-0.884-0.624-1.875-0.948-2.946-0.948c-1.732,0-3.179,0.674-4.354,2.03
				c-1.185,1.356-1.779,3.345-1.779,5.987c0,2.477,0.595,4.404,1.759,5.787c1.178,1.371,2.628,2.067,4.375,2.067
				c1.035,0,1.992-0.306,2.861-0.912c0.89-0.596,1.595-1.488,2.126-2.701C21.464,147.899,21.727,146.453,21.727,144.744z"/>
			<path fill="#1D1D1B" d="M55.149,144.86c0,1.844-0.28,3.567-0.855,5.134c-0.586,1.572-1.42,2.911-2.517,4.054
				c-1.094,1.114-2.412,1.983-3.926,2.591c-1.525,0.583-3.231,0.892-5.133,0.892c-1.893,0-3.593-0.309-5.092-0.915
				c-1.511-0.602-2.812-1.482-3.92-2.597c-1.103-1.143-1.943-2.484-2.515-4.036c-0.571-1.546-0.846-3.252-0.846-5.122
				c0-1.89,0.274-3.622,0.857-5.191c0.586-1.569,1.4-2.905,2.488-4.017c1.073-1.1,2.383-1.969,3.935-2.558
				c1.528-0.606,3.231-0.91,5.092-0.91c1.881,0,3.59,0.313,5.133,0.916c1.543,0.606,2.855,1.47,3.952,2.607
				c1.097,1.123,1.925,2.456,2.494,4.008C54.869,141.271,55.149,142.994,55.149,144.86z M48.896,144.86
				c0-2.555-0.551-4.515-1.666-5.943c-1.129-1.406-2.631-2.121-4.512-2.121c-1.225,0-2.298,0.315-3.226,0.948
				c-0.925,0.63-1.642,1.566-2.144,2.794c-0.507,1.236-0.752,2.678-0.752,4.322c0,1.625,0.245,3.045,0.735,4.265
				c0.499,1.225,1.21,2.149,2.135,2.8c0.924,0.65,1.986,0.972,3.252,0.972c1.881,0,3.383-0.712,4.512-2.142
				C48.345,149.335,48.896,147.369,48.896,144.86z"/>
			<path fill="#1D1D1B" d="M62.044,129.297c-0.867,0-1.613-0.279-2.231-0.808c-0.604-0.527-0.91-1.286-0.91-2.266
				c0-0.881,0.315-1.604,0.951-2.183c0.612-0.571,1.344-0.852,2.19-0.852c0.808,0,1.522,0.266,2.152,0.768
				c0.627,0.521,0.939,1.28,0.939,2.267c0,0.962-0.306,1.715-0.91,2.257C63.613,129.003,62.881,129.297,62.044,129.297z
				 M65.136,135.723v18.025c0,1.251-0.303,2.188-0.89,2.832c-0.601,0.63-1.344,0.95-2.266,0.95c-0.916,0-1.66-0.329-2.222-0.979
				c-0.575-0.653-0.855-1.587-0.855-2.803v-17.83c0-1.251,0.28-2.17,0.855-2.8c0.563-0.618,1.307-0.934,2.222-0.934
				c0.922,0,1.666,0.315,2.266,0.934C64.833,133.748,65.136,134.62,65.136,135.723z"/>
			<path fill="#1D1D1B" d="M90.476,149.37c0,1.729-0.42,3.205-1.26,4.434c-0.834,1.23-2.073,2.146-3.704,2.782
				c-1.639,0.636-3.637,0.944-5.973,0.944c-2.234,0-4.165-0.338-5.755-1.032c-1.595-0.683-2.773-1.534-3.538-2.561
				c-0.764-1.032-1.155-2.063-1.155-3.098c0-0.683,0.251-1.283,0.735-1.759c0.493-0.481,1.099-0.729,1.849-0.729
				c0.656,0,1.161,0.152,1.52,0.476c0.341,0.324,0.685,0.765,0.995,1.359c0.642,1.103,1.409,1.931,2.301,2.474
				c0.886,0.554,2.108,0.834,3.634,0.834c1.254,0,2.275-0.283,3.092-0.834c0.773-0.569,1.181-1.199,1.181-1.908
				c0-1.1-0.414-1.898-1.248-2.4c-0.834-0.498-2.19-0.982-4.095-1.446c-2.144-0.528-3.891-1.082-5.235-1.671
				c-1.351-0.59-2.436-1.356-3.232-2.316c-0.805-0.959-1.21-2.141-1.21-3.541c0-1.242,0.364-2.433,1.108-3.534
				c0.753-1.12,1.847-2.013,3.308-2.669c1.461-0.659,3.206-0.989,5.262-0.989c1.61,0,3.083,0.166,4.349,0.511
				c1.284,0.335,2.366,0.778,3.22,1.339c0.857,0.56,1.52,1.178,1.969,1.884c0.449,0.683,0.686,1.336,0.686,2.001
				c0,0.712-0.26,1.298-0.735,1.75c-0.476,0.464-1.16,0.691-2.044,0.691c-0.639,0-1.179-0.184-1.64-0.552
				c-0.438-0.355-0.957-0.915-1.531-1.645c-0.464-0.606-1.024-1.088-1.66-1.461c-0.65-0.368-1.522-0.552-2.613-0.552
				c-1.131,0-2.056,0.245-2.806,0.735c-0.741,0.476-1.117,1.067-1.117,1.779c0,0.653,0.269,1.189,0.823,1.609
				c0.537,0.417,1.28,0.771,2.222,1.039c0.925,0.279,2.19,0.624,3.824,1.009c1.934,0.479,3.521,1.026,4.736,1.68
				c1.226,0.659,2.156,1.427,2.801,2.322C90.161,147.224,90.476,148.241,90.476,149.37z"/>
			<path fill="#1D1D1B" d="M114.658,149.37c0,1.729-0.432,3.205-1.269,4.434c-0.834,1.23-2.063,2.146-3.701,2.782
				c-1.646,0.636-3.623,0.944-5.982,0.944c-2.237,0-4.153-0.338-5.746-1.032c-1.609-0.683-2.768-1.534-3.553-2.561
				c-0.755-1.032-1.137-2.063-1.137-3.098c0-0.683,0.248-1.283,0.731-1.759c0.49-0.481,1.105-0.729,1.858-0.729
				c0.656,0,1.158,0.152,1.508,0.476c0.344,0.324,0.68,0.765,1.003,1.359c0.63,1.103,1.4,1.931,2.296,2.474
				c0.887,0.554,2.108,0.834,3.637,0.834c1.252,0,2.27-0.283,3.074-0.834c0.805-0.569,1.196-1.199,1.196-1.908
				c0-1.1-0.414-1.898-1.243-2.4c-0.831-0.498-2.196-0.982-4.101-1.446c-2.135-0.528-3.894-1.082-5.232-1.671
				c-1.356-0.59-2.433-1.356-3.246-2.316c-0.8-0.959-1.205-2.141-1.205-3.541c0-1.242,0.377-2.433,1.123-3.534
				c0.741-1.12,1.853-2.013,3.293-2.669c1.464-0.659,3.214-0.989,5.268-0.989c1.619,0,3.06,0.166,4.357,0.511
				c1.28,0.335,2.351,0.778,3.22,1.339c0.85,0.56,1.509,1.178,1.964,1.884c0.438,0.683,0.667,1.336,0.667,2.001
				c0,0.712-0.235,1.298-0.72,1.75c-0.473,0.464-1.161,0.691-2.051,0.691c-0.624,0-1.169-0.184-1.63-0.552
				c-0.438-0.355-0.96-0.915-1.534-1.645c-0.476-0.606-1.024-1.088-1.672-1.461c-0.642-0.368-1.508-0.552-2.602-0.552
				c-1.132,0-2.054,0.245-2.797,0.735c-0.75,0.476-1.129,1.067-1.129,1.779c0,0.653,0.274,1.189,0.819,1.609
				c0.552,0.417,1.292,0.771,2.223,1.039c0.916,0.279,2.205,0.624,3.836,1.009c1.937,0.479,3.506,1.026,4.733,1.68
				c1.23,0.659,2.158,1.427,2.779,2.322C114.331,147.224,114.658,148.241,114.658,149.37z"/>
			<path fill="#1D1D1B" d="M142.084,144.86c0,1.844-0.28,3.567-0.857,5.134c-0.572,1.572-1.415,2.911-2.512,4.054
				c-1.103,1.114-2.406,1.983-3.932,2.591c-1.517,0.583-3.229,0.892-5.134,0.892c-1.884,0-3.587-0.309-5.095-0.915
				c-1.502-0.602-2.804-1.482-3.911-2.597c-1.1-1.143-1.94-2.484-2.521-4.036c-0.568-1.546-0.846-3.252-0.846-5.122
				c0-1.89,0.283-3.622,0.86-5.191c0.589-1.569,1.418-2.905,2.491-4.017c1.082-1.1,2.395-1.969,3.926-2.558
				c1.54-0.606,3.231-0.91,5.095-0.91c1.888,0,3.603,0.313,5.134,0.916c1.537,0.606,2.858,1.47,3.955,2.607
				c1.1,1.123,1.937,2.456,2.505,4.008C141.804,141.271,142.084,142.994,142.084,144.86z M135.842,144.86
				c0-2.555-0.56-4.515-1.674-5.943c-1.129-1.406-2.631-2.121-4.519-2.121c-1.222,0-2.292,0.315-3.226,0.948
				c-0.931,0.63-1.639,1.566-2.146,2.794c-0.496,1.236-0.744,2.678-0.744,4.322c0,1.625,0.248,3.045,0.732,4.265
				c0.496,1.225,1.205,2.149,2.135,2.8c0.916,0.65,2.001,0.972,3.249,0.972c1.888,0,3.39-0.712,4.519-2.142
				C135.282,149.335,135.842,147.369,135.842,144.86z"/>
			<path fill="#1D1D1B" d="M151.502,135.644v0.741c1.088-1.443,2.286-2.508,3.593-3.185c1.295-0.671,2.797-1.016,4.48-1.016
				c1.647,0,3.12,0.354,4.422,1.076c1.271,0.709,2.248,1.729,2.89,3.031c0.417,0.761,0.674,1.586,0.809,2.464
				c0.113,0.887,0.175,2.01,0.175,3.396v11.597c0,1.251-0.292,2.188-0.86,2.832c-0.572,0.63-1.304,0.95-2.217,0.95
				c-0.945,0-1.686-0.329-2.278-0.979c-0.565-0.653-0.857-1.587-0.857-2.803V143.35c0-2.047-0.283-3.622-0.857-4.707
				c-0.574-1.097-1.715-1.643-3.421-1.643c-1.097,0-2.115,0.318-3.024,0.989c-0.916,0.665-1.587,1.581-2.013,2.735
				c-0.31,0.928-0.449,2.666-0.449,5.203v7.82c0,1.251-0.307,2.202-0.881,2.838c-0.583,0.636-1.348,0.944-2.272,0.944
				c-0.913,0-1.639-0.329-2.22-0.979c-0.574-0.653-0.86-1.587-0.86-2.803v-18.025c0-1.192,0.257-2.076,0.773-2.66
				c0.51-0.592,1.225-0.878,2.117-0.878c0.549,0,1.05,0.129,1.476,0.391c0.455,0.26,0.803,0.65,1.076,1.167
				C151.361,134.25,151.502,134.883,151.502,135.644z"/>
		</g>
		<g>
			<path fill="#1D1D1B" d="M30.81,190.845c0,1.721-0.417,3.186-1.257,4.425c-0.837,1.222-2.068,2.144-3.716,2.779
				c-1.625,0.627-3.62,0.951-5.964,0.951c-2.234,0-4.153-0.341-5.746-1.021c-1.604-0.706-2.785-1.552-3.549-2.579
				c-0.752-1.021-1.138-2.064-1.138-3.091c0-0.688,0.248-1.272,0.732-1.759c0.493-0.493,1.105-0.744,1.852-0.744
				c0.647,0,1.155,0.175,1.493,0.479c0.359,0.335,0.694,0.781,1.018,1.354c0.639,1.105,1.409,1.948,2.301,2.49
				c0.875,0.543,2.1,0.823,3.634,0.823c1.246,0,2.272-0.28,3.071-0.829c0.791-0.56,1.199-1.192,1.199-1.913
				c0-1.085-0.42-1.896-1.239-2.403c-0.84-0.496-2.205-0.975-4.113-1.432c-2.141-0.534-3.882-1.083-5.227-1.681
				c-1.351-0.58-2.43-1.351-3.237-2.313c-0.811-0.957-1.208-2.138-1.208-3.538c0-1.257,0.37-2.441,1.12-3.538
				c0.732-1.108,1.841-2.01,3.296-2.663c1.456-0.662,3.206-0.991,5.256-0.991c1.622,0,3.065,0.166,4.363,0.51
				c1.269,0.327,2.345,0.776,3.206,1.351c0.875,0.558,1.528,1.176,1.972,1.855c0.443,0.686,0.668,1.362,0.668,2.013
				c0,0.711-0.236,1.304-0.717,1.753c-0.479,0.472-1.155,0.693-2.039,0.693c-0.639,0-1.187-0.187-1.633-0.551
				c-0.452-0.353-0.968-0.913-1.543-1.647c-0.472-0.602-1.026-1.092-1.674-1.456c-0.63-0.367-1.5-0.551-2.602-0.551
				c-1.125,0-2.056,0.239-2.803,0.714c-0.735,0.481-1.12,1.082-1.12,1.788c0,0.665,0.28,1.205,0.826,1.619
				c0.545,0.42,1.283,0.77,2.216,1.041c0.928,0.269,2.199,0.604,3.838,0.998c1.934,0.48,3.506,1.044,4.737,1.697
				c1.213,0.662,2.155,1.429,2.783,2.31C30.498,188.681,30.81,189.704,30.81,190.845z"/>
			<path fill="#1D1D1B" d="M58.255,186.324c0,1.843-0.289,3.57-0.863,5.133c-0.583,1.563-1.42,2.923-2.523,4.049
				c-1.091,1.12-2.403,1.989-3.92,2.584c-1.522,0.606-3.243,0.91-5.145,0.91c-1.887,0-3.573-0.304-5.095-0.916
				c-1.5-0.612-2.794-1.487-3.906-2.613c-1.094-1.138-1.942-2.474-2.514-4.022c-0.572-1.548-0.857-3.249-0.857-5.124
				c0-1.884,0.294-3.617,0.866-5.191c0.583-1.558,1.417-2.894,2.494-4.014c1.071-1.108,2.392-1.966,3.917-2.572
				c1.542-0.596,3.249-0.896,5.095-0.896c1.89,0,3.596,0.3,5.145,0.907c1.534,0.615,2.864,1.473,3.938,2.599
				c1.103,1.144,1.945,2.471,2.511,4.039C57.979,182.73,58.255,184.448,58.255,186.324z M52.002,186.324
				c0-2.546-0.563-4.529-1.68-5.938c-1.123-1.417-2.628-2.123-4.518-2.123c-1.216,0-2.29,0.32-3.214,0.95
				c-0.927,0.625-1.645,1.566-2.149,2.795c-0.501,1.236-0.75,2.671-0.75,4.316c0,1.624,0.245,3.045,0.735,4.261
				c0.507,1.229,1.199,2.159,2.135,2.804c0.921,0.642,2,0.979,3.243,0.979c1.89,0,3.395-0.715,4.518-2.141
				C51.439,190.798,52.002,188.832,52.002,186.324z"/>
			<path fill="#1D1D1B" d="M61.995,195.208v-27.025c0-1.26,0.28-2.208,0.834-2.853c0.548-0.63,1.31-0.945,2.24-0.945
				c0.954,0,1.715,0.31,2.292,0.934c0.581,0.642,0.866,1.587,0.866,2.864v27.025c0,1.258-0.297,2.205-0.884,2.841
				c-0.575,0.627-1.342,0.951-2.275,0.951c-0.904,0-1.642-0.338-2.217-0.985C62.283,197.358,61.995,196.428,61.995,195.208z"/>
			<path fill="#1D1D1B" d="M89.691,195.485v-0.813c-0.75,0.95-1.531,1.744-2.348,2.386c-0.829,0.639-1.727,1.108-2.698,1.429
				c-0.98,0.31-2.08,0.464-3.336,0.464c-1.511,0-2.858-0.309-4.063-0.936c-1.185-0.625-2.106-1.477-2.768-2.585
				c-0.779-1.318-1.158-3.22-1.158-5.699v-12.363c0-1.251,0.277-2.179,0.849-2.779c0.557-0.637,1.304-0.937,2.234-0.937
				c0.934,0,1.698,0.306,2.281,0.937c0.58,0.621,0.863,1.551,0.863,2.779v9.975c0,1.456,0.128,2.663,0.364,3.646
				c0.242,0.985,0.68,1.756,1.315,2.313c0.636,0.554,1.488,0.828,2.576,0.828c1.047,0,2.042-0.309,2.954-0.936
				c0.945-0.622,1.619-1.43,2.039-2.436c0.35-0.893,0.528-2.812,0.528-5.811v-7.58c0-1.229,0.282-2.158,0.872-2.779
				c0.574-0.631,1.324-0.937,2.257-0.937c0.928,0,1.672,0.3,2.243,0.937c0.561,0.601,0.849,1.528,0.849,2.779v18.063
				c0,1.19-0.288,2.08-0.825,2.666c-0.54,0.606-1.233,0.904-2.088,0.904c-0.847,0-1.555-0.321-2.115-0.931
				C89.96,197.448,89.691,196.594,89.691,195.485z"/>
			<path fill="#1D1D1B" d="M106.34,167.938v9.525c1.158-1.213,2.351-2.146,3.57-2.797c1.222-0.65,2.724-0.971,4.523-0.971
				c2.065,0,3.891,0.495,5.454,1.479c1.552,0.974,2.765,2.395,3.628,4.261c0.85,1.873,1.293,4.084,1.293,6.633
				c0,1.89-0.248,3.629-0.727,5.203c-0.476,1.566-1.173,2.952-2.086,4.087c-0.912,1.169-2.026,2.056-3.327,2.691
				c-1.313,0.627-2.73,0.951-4.306,0.951c-0.95,0-1.854-0.116-2.706-0.341c-0.85-0.233-1.558-0.528-2.153-0.907
				c-0.595-0.371-1.099-0.762-1.525-1.158c-0.414-0.385-0.965-0.983-1.639-1.782v0.618c0,1.173-0.301,2.065-0.857,2.66
				c-0.566,0.606-1.28,0.91-2.144,0.91c-0.89,0-1.584-0.304-2.112-0.91c-0.527-0.595-0.787-1.487-0.787-2.66v-27.212
				c0-1.272,0.251-2.223,0.767-2.87c0.517-0.647,1.214-0.963,2.133-0.963c0.962,0,1.694,0.307,2.217,0.916
				C106.077,165.925,106.34,166.794,106.34,167.938z M106.626,186.458c0,2.485,0.565,4.387,1.7,5.723
				c1.138,1.336,2.616,2.007,4.459,2.007c1.578,0,2.923-0.683,4.058-2.048c1.138-1.367,1.706-3.318,1.706-5.865
				c0-1.639-0.248-3.06-0.718-4.243c-0.475-1.188-1.134-2.095-2.006-2.754c-0.863-0.647-1.87-0.968-3.04-0.968
				c-1.195,0-2.236,0.32-3.173,0.968c-0.922,0.659-1.653,1.581-2.185,2.797C106.894,183.309,106.626,184.764,106.626,186.458z"/>
			<path fill="#1D1D1B" d="M128.014,195.208v-27.025c0-1.26,0.28-2.208,0.84-2.853c0.549-0.63,1.301-0.945,2.246-0.945
				c0.942,0,1.703,0.31,2.292,0.934c0.572,0.642,0.857,1.587,0.857,2.864v27.025c0,1.258-0.294,2.205-0.887,2.841
				c-0.58,0.627-1.332,0.951-2.263,0.951c-0.91,0-1.654-0.338-2.22-0.985C128.314,197.358,128.014,196.428,128.014,195.208z"/>
			<path fill="#1D1D1B" d="M156.921,187.847h-12.194c0.017,1.423,0.3,2.678,0.86,3.757c0.545,1.073,1.295,1.887,2.208,2.427
				c0.924,0.554,1.939,0.834,3.057,0.834c0.74,0,1.423-0.085,2.035-0.269c0.624-0.16,1.22-0.449,1.797-0.808
				c0.58-0.388,1.12-0.779,1.599-1.217c0.481-0.414,1.12-1.009,1.898-1.727c0.304-0.276,0.773-0.402,1.365-0.402
				c0.639,0,1.155,0.163,1.561,0.517c0.396,0.358,0.586,0.846,0.586,1.484c0,0.565-0.21,1.219-0.656,1.978
				c-0.44,0.746-1.111,1.476-2.01,2.173c-0.878,0.68-2.007,1.263-3.342,1.715c-1.354,0.464-2.908,0.691-4.658,0.691
				c-4.002,0-7.12-1.144-9.34-3.436c-2.216-2.27-3.324-5.373-3.324-9.29c0-1.834,0.271-3.55,0.828-5.133
				c0.533-1.566,1.336-2.923,2.38-4.046c1.059-1.12,2.345-1.989,3.879-2.593c1.552-0.604,3.246-0.898,5.137-0.898
				c2.409,0,4.509,0.517,6.253,1.549c1.741,1.015,3.051,2.351,3.917,3.973c0.869,1.636,1.304,3.296,1.304,4.981
				c0,1.566-0.452,2.587-1.35,3.057C159.82,187.619,158.545,187.847,156.921,187.847z M144.727,184.312h11.302
				c-0.146-2.126-0.729-3.722-1.724-4.771c-0.992-1.073-2.302-1.593-3.938-1.593c-1.555,0-2.826,0.528-3.836,1.604
				C145.537,180.631,144.939,182.2,144.727,184.312z"/>
		</g>
	</g>
	<linearGradient id="SVGID_1_" gradientUnits="userSpaceOnUse" x1="42.7412" y1="108.3027" x2="143.5222" y2="7.5217">
		<stop  offset="0" style="stop-color:#EC6C83"/>
		<stop  offset="0.1437" style="stop-color:#EC707D"/>
		<stop  offset="0.3319" style="stop-color:#EE7D6D"/>
		<stop  offset="0.5446" style="stop-color:#F09252"/>
		<stop  offset="0.7737" style="stop-color:#F3AF2C"/>
		<stop  offset="1" style="stop-color:#F7D100"/>
	</linearGradient>
	<path fill="url(#SVGID_1_)" d="M153.823,17.823c-10.488-10.485-24.64-16.282-39.88-16.265C98.506,1.569,84.03,7.518,73.16,18.296
		L43.258,47.122l-11.92,11.535l-4.121,3.977c-1.429,1.435-3.241,2.188-5.212,2.176l-0.041,0.012
		c-1.846,0.004-3.567-0.699-4.851-1.958c-1.286-1.313-1.992-3.035-2.007-4.947c0-1.815,0.729-3.538,2.03-4.837
		c1.799-1.801,5.428-2.119,7.983-1.11l0.021,0.007c2.919,1.516,7.245,1.365,9.543-1.131c2.386-2.584,2.607-6.079,0.682-8.886
		l-0.187-0.197c-3.491-2.736-8.105-4.372-13.116-4.382c-5.772-0.016-11.191,2.102-14.854,5.765
		c-3.926,3.927-6.084,9.158-6.125,14.795c0.017,5.599,2.21,10.863,6.113,14.818c3.765,3.768,9.158,5.912,14.791,5.915
		c5.71-0.021,11.226-2.207,15.059-6.032l45.885-44.308c8.315-8.228,19.3-12.751,31.021-12.768
		c11.501,0.019,22.17,4.343,29.963,12.142c8.039,8.178,12.434,18.883,12.457,30.22c0.006,11.426-4.407,22.06-12.437,30.087
		c-7.668,7.647-18.684,12.063-30.193,12.055c-11.526,0.021-22.517-4.366-30.193-12.043l-24.43-24.423c0,0-0.691-0.542-2.231-0.906
		c-0.032-0.007-0.064-0.014-0.093-0.017l0.008-0.021c-2.216-0.397-4.897,0.175-6.624,1.897c-2.336,2.339-2.517,6.129-0.957,8.893
		l-0.038,0.051l24.593,24.526c10.176,10.208,24.734,16.044,39.944,16.053c15.237-0.015,29.835-5.871,40.102-16.173
		c10.713-10.617,16.561-24.828,16.584-39.98C170.384,42.896,164.527,28.659,153.823,17.823z M58.477,64.212l0.093-0.095h0.006
		L58.477,64.212z"/>
</g>
</svg>
