<?xml version="1.0" encoding="utf-8"?>
<!-- Generator: Adobe Illustrator 16.0.0, SVG Export Plug-In . SVG Version: 6.00 Build 0)  -->
<!DOCTYPE svg PUBLIC "-//W3C//DTD SVG 1.1//EN" "http://www.w3.org/Graphics/SVG/1.1/DTD/svg11.dtd">
<svg version="1.1" id="Calque_1" xmlns="http://www.w3.org/2000/svg" xmlns:xlink="http://www.w3.org/1999/xlink" x="0px" y="0px"
	 width="200px" height="134px" viewBox="0 0 200 134" enable-background="new 0 0 200 134" xml:space="preserve">
<linearGradient id="SVGID_1_" gradientUnits="userSpaceOnUse" x1="49.8472" y1="125.7793" x2="167.2918" y2="8.3347">
	<stop  offset="0" style="stop-color:#EC6C83"/>
	<stop  offset="0.1437" style="stop-color:#EC707D"/>
	<stop  offset="0.3319" style="stop-color:#EE7D6D"/>
	<stop  offset="0.5446" style="stop-color:#F09252"/>
	<stop  offset="0.7737" style="stop-color:#F3AF2C"/>
	<stop  offset="1" style="stop-color:#F7D100"/>
</linearGradient>
<path fill="url(#SVGID_1_)" d="M179.297,20.34C167.074,8.12,150.583,1.365,132.823,1.385c-17.991,0.012-34.86,6.944-47.528,19.505
	L50.449,54.483L36.558,67.925l-4.803,4.636c-1.666,1.672-3.776,2.549-6.074,2.535l-0.047,0.014
	c-2.112,0.018-4.145-0.804-5.652-2.283c-1.499-1.53-2.322-3.535-2.339-5.763c0-2.116,0.85-4.123,2.366-5.637
	c2.097-2.099,6.326-2.469,9.303-1.293l0.024,0.008c3.402,1.766,8.443,1.591,11.121-1.318c2.78-3.012,3.039-7.083,0.795-10.355
	l-0.217-0.229c-4.069-3.188-9.446-5.095-15.285-5.107c-6.727-0.019-13.042,2.449-17.311,6.718C3.863,54.425,1.348,60.521,1.3,67.089
	c0.011,6.47,2.571,12.675,7.125,17.269c4.388,4.393,10.673,6.891,17.236,6.895c6.655-0.023,13.083-2.572,17.549-7.029l53.473-51.634
	c9.69-9.588,22.491-14.86,36.151-14.879c13.402,0.022,25.836,5.061,34.918,14.15c9.367,9.531,14.49,22.005,14.518,35.217
	c0.006,13.315-5.137,25.708-14.494,35.062c-8.936,8.912-21.772,14.06-35.186,14.049c-13.433,0.023-26.24-5.088-35.187-14.035
	l-28.47-28.461c0,0-0.806-0.633-2.6-1.055c-0.038-0.007-0.075-0.018-0.109-0.021l0.01-0.023c-2.583-0.463-5.707,0.203-7.719,2.212
	c-2.722,2.728-2.933,7.143-1.115,10.36l-0.044,0.062l28.66,28.584c11.859,11.895,28.823,18.696,46.548,18.707
	c17.756-0.019,34.769-6.843,46.731-18.849c12.483-12.372,19.3-28.933,19.327-46.591C198.598,49.56,191.771,32.967,179.297,20.34
	L179.297,20.34z M68.185,74.398l0.109-0.111H68.3L68.185,74.398z"/>
</svg>
