<svg width="198" height="65" viewBox="0 0 198 65" fill="none" xmlns="http://www.w3.org/2000/svg">
<g clip-path="url(#clip0_1_92)">
<path d="M20.9448 11.7695L20.9259 11.9007L20.8645 12.0131L20.7747 12.1069L20.6565 12.1678L20.5289 12.1865L20.3965 12.1678L20.2784 12.1069L20.1885 12.0131L20.1271 11.9007L20.1082 11.7695L20.0278 11.4603L19.9569 11.1979H20.4343L19.9806 11.3431L19.9049 11.1464L19.8293 11.0058L20.3303 10.8465L19.9049 11.151L19.8246 11.0761L20.2689 10.7575L19.9475 11.1979L19.8718 11.1698L20.2074 10.7153L20.0326 11.2494H19.9522L20.1318 10.7012V11.2822L20.0467 11.2963V10.7012L20.2311 11.2635L20.1413 11.3057L19.9522 10.7294L20.3114 11.2213L20.198 11.3431L19.8388 10.8465L20.3351 11.2073L20.1838 11.4415L19.9947 11.7929L19.4937 11.4322L20.0798 11.6196L19.8529 12.1022L19.5977 12.7206L19.333 13.4797L19.0494 14.4214L18.7421 15.6115L18.416 17.0733L18.0756 18.7741L17.7069 20.7513L17.3335 22.9488L16.9648 25.3617L16.9979 25.1696L16.6434 27.8778L16.3361 30.8577L16.1187 33.9125L16.0052 36.9439L15.9816 39.8161L16.0289 42.4305L16.1612 44.8435L16.3503 46.9987L16.5536 48.8448L16.7521 50.419L16.9223 51.6841L17.0735 52.6868L17.0452 52.504L17.1822 53.2865L17.3004 53.844L17.3997 54.2095L17.4753 54.4531L17.5273 54.6171L17.0452 54.7717L17.4564 54.4766L17.4989 54.5843L17.1113 54.8654L17.2626 54.411L17.324 54.4672L17.187 54.8936L17.0452 54.4672L17.1492 54.4766L17.2768 54.8701L17.031 54.5328L17.1633 54.4578L17.3855 54.7577L17.083 54.5422L17.2437 54.3688L17.3146 54.2938L17.4091 54.247L17.5131 54.2329L17.6124 54.247L17.7069 54.2938L17.7778 54.3688L17.8251 54.4578L17.844 54.5609L17.8251 54.6593L17.7778 54.753L17.6927 54.9779L17.6077 55.0622L17.5226 55.2028L17.4044 55.259L17.3288 55.3199L17.187 55.3387L17.0452 55.3199H16.9648L16.8324 55.2496L16.7237 55.1466L16.6386 55.0669L16.563 54.9264L16.4685 54.7764L16.355 54.5515L16.2227 54.1908L16.0714 53.6473L15.906 52.8742L15.8729 52.6868L15.7027 51.6888L15.5184 50.419L15.3198 48.8494L15.1166 47.0034L14.9228 44.8435L14.7904 42.4352L14.7432 39.8208L14.7715 36.9486L14.885 33.9172L15.0977 30.8577L15.4049 27.8778L15.7594 25.1743L15.7878 24.9822L16.1565 22.5693L16.5299 20.3765L16.8986 18.3993L17.239 16.6938L17.5651 15.2367L17.8724 14.0419L18.156 13.1001L18.4207 12.3458L18.6759 11.7273L18.9028 11.2447L18.9926 11.0761L19.1817 10.7247L19.3377 10.4904L19.4748 10.3545L19.593 10.2421L19.7631 10.1577L19.8624 10.1343L20.0467 10.1062L20.1318 10.1203L20.3114 10.1484L20.3823 10.1765L20.5383 10.2561L20.5903 10.317L20.7132 10.4342L20.7558 10.5373L20.8314 10.6825L20.8692 10.8324L20.8928 11.048L20.9165 11.1979L20.9307 11.4603L20.9448 11.7695Z" fill="white"/>
<path d="M6.59874 17.5795L6.68382 17.5936L6.75945 17.6311L6.8209 17.692L6.85872 17.7669L6.8729 17.8513L6.85872 17.9356L6.8209 18.0153L6.75945 18.0762L6.68382 18.1136L6.59874 18.1277L6.10242 18.2542L5.64391 18.3245L5.21849 18.3432L4.80252 18.3104L4.64181 18.287L4.21166 18.2261L3.77679 18.1464L3.32773 18.0574L2.87868 17.9543L2.42489 17.8325L1.99002 17.6873L1.59296 17.5327L1.25735 17.3734L1.08246 17.2843L0.813025 17.125L0.590861 16.961L0.453781 16.8252L0.293067 16.6612L0.189076 16.4972L0.0992647 16.3285L0.042542 16.1645L0.0141807 15.9771L0 15.8038L0.0283613 15.6164L0.0898109 15.4383L0.174895 15.2696L0.311975 15.1338L0.510504 14.937L0.869748 14.7214L1.03992 14.6324L1.5646 14.3935L2.26891 14.1077L3.13866 13.7703L4.15494 13.3861L5.31775 12.9363L6.65073 12.4209L8.1208 11.8727L9.72321 11.2918L11.4816 10.692L13.3818 10.0923L15.3671 9.51132L17.48 8.93034L19.6639 8.34936L21.8855 7.79648L24.1308 7.28578L26.3855 6.8313L26.5793 6.80319L28.8624 6.4143L31.2211 6.0957L33.5515 5.86143L35.7637 5.71618L37.7962 5.65527L39.6302 5.65996L41.2941 5.75835L41.4832 5.79115L42.9391 6.00668L44.1397 6.32997L45.1087 6.74228L45.2836 6.8313L46.0305 7.31858L46.1675 7.45445L46.7111 8.02138L46.8009 8.19005L47.1318 8.85537L47.1602 9.04279L47.2736 9.84399L47.2405 10.0314L47.0987 10.9591L46.6402 11.9946L46.5504 12.1679L45.7563 13.3065L44.6691 14.5106L44.532 14.6465L43.1612 15.9068L41.5541 17.2281L39.8146 18.5306L37.9806 19.7816L36.052 20.967L34.01 22.1149L33.8398 22.204L31.6891 23.3097L29.4249 24.3686L27.0709 25.376L24.646 26.3693L22.2022 27.3532L19.7773 28.3184L17.4233 29.2461L15.178 30.1456L13.0557 31.0406L11.0042 31.9448L10.9049 31.9589L10.8009 31.9448L10.7111 31.898L10.6355 31.823L10.5882 31.734L10.5741 31.6309L10.5882 31.5325L10.6355 31.4388L10.7111 31.3685L10.8009 31.3217L12.8193 30.3237L14.9086 29.3351L17.1255 28.3512L19.4653 27.3625L21.876 26.3552L24.3057 25.3338L26.7164 24.3077L29.0656 23.2629L31.3156 22.1805L33.4617 21.0514L33.2915 21.1357L35.3241 19.9831L37.2526 18.7883L39.0867 17.542L40.8214 16.2348L42.4333 14.9182L43.8041 13.6532L43.667 13.7891L44.7542 12.5896L45.5483 11.4464L45.4632 11.6197L45.9217 10.5796L46.0683 9.65657L46.0352 9.84399L45.9265 9.04279L45.9548 9.23489L45.6239 8.56957L45.7138 8.74293L45.1702 8.176L45.3072 8.31187L44.5604 7.8246L44.7306 7.90893L43.7568 7.49662L42.5562 7.17333L41.105 6.9578L41.2941 6.98592L39.6302 6.88752L37.7962 6.87815L35.7637 6.94375L33.5562 7.08431L31.2211 7.32326L28.8624 7.64187L26.5793 8.02607L26.7684 7.99795L24.5137 8.45243L22.2684 8.96314L20.0467 9.51601L17.8676 10.097L15.75 10.678L13.7647 11.259L11.8692 11.854L10.1061 12.4537L8.50368 13.0347L7.03361 13.5876L5.70063 14.0983L4.53782 14.5481L3.52626 14.937L2.65179 15.2743L1.94748 15.5554L1.42752 15.7991L1.23372 15.2181L1.59769 15.7101L1.23845 15.9303L1.03992 16.1224L0.675945 15.6304L1.26681 15.8178L1.20536 15.9912L0.619223 15.8038H1.23845L1.25263 15.9724H0.633403L1.21954 15.785L1.27626 15.949L0.690126 16.1364L1.18645 15.7757L1.29044 15.9396L1.45116 16.1036L0.954832 16.4644L1.31408 15.9678L1.53624 16.1317L1.8104 16.2957L1.44643 16.7924L1.6355 16.2067L1.97111 16.3707L2.36345 16.5347L2.79359 16.6987L3.23792 16.8486L3.67752 16.9845L4.11239 17.111L4.53782 17.2234L4.95851 17.3265L4.80252 17.8044L4.79779 17.2984L5.21849 17.378L5.64391 17.4296L6.10242 17.4905L6.59874 17.5795Z" fill="white"/>
<path d="M30.4081 41.3062L30.3467 41.4234L30.2569 41.5124L30.1387 41.5733L30.0111 41.5921L29.8787 41.5733L29.7653 41.5124L29.6707 41.4234L29.6093 41.3062L29.5904 41.1797L29.6093 41.0486L29.6424 40.7346L29.6755 40.4301L29.6991 40.149L30.1765 40.3036H29.6707L29.6802 40.0553L29.6707 39.8304L29.6566 39.6242L29.6329 39.4227L29.5856 39.2259H30.186L29.614 39.4087L29.5242 39.2259L30.1056 39.0385L29.614 39.3946L29.4769 39.2353L29.978 38.8745L29.614 39.3712L29.4344 39.2259L29.2122 39.1041L29.5762 38.6075L29.3871 39.1885L29.1082 39.0901L28.7915 39.0245L28.9853 38.4388V39.0526L28.6355 39.0151L28.2527 39.001L27.8367 39.0151L27.3924 39.0854L27.3876 38.4716L27.5814 39.0526L27.1088 39.1931L26.6361 39.3946L26.447 38.8136L26.811 39.3056L26.3525 39.5539L25.9223 39.8444L25.5205 40.1677L25.1471 40.5238L24.7831 40.0318L25.2795 40.3879L24.9297 40.7815L24.6177 41.1844L24.353 41.5921L24.1403 42.0091L23.6439 41.653L24.2301 41.8404L24.0552 42.2667L23.9276 42.6931L23.8377 43.1101L23.2516 42.9227H23.8661L23.8141 43.3256L23.7905 43.7005L23.7952 44.0284L23.8377 44.3096H23.2185L23.8094 44.1221L23.9134 44.347L23.3272 44.5345L23.6912 44.0378L23.8614 44.1971L23.4974 44.6984L23.6912 44.1128L23.9181 44.1971L23.729 44.7781L23.7243 44.169L24.0032 44.1784V44.7922L23.8094 44.2112L24.1214 44.1549L24.457 44.0097L24.6508 44.5954L24.2868 44.0987L24.6602 43.8785L25.0762 43.6068L25.53 43.3069L26.0168 42.9836L26.5321 42.6135L27.0568 42.1871L27.5862 41.7139L28.125 41.1844L27.988 41.3203L28.5079 40.7674L28.9806 40.2146L29.3918 39.6898L29.7511 39.2306L30.0442 38.8558L30.2663 38.57L30.4318 38.3545L30.5405 38.1811L31.0415 38.5419L30.4507 38.3545L30.5074 38.242L31.0935 38.4294L30.5074 38.6215L30.4932 38.5747L31.0793 38.3826L31.2732 38.9636L31.1692 39.0151L30.9801 38.4294L31.3441 38.9261L31.1503 39.0948L30.791 38.6028L31.2873 38.9589L31.0368 39.2494L30.7343 39.6289L30.4176 40.074L30.0914 40.566L29.7605 41.1188L29.4628 41.6904L28.9617 41.3344L29.5526 41.5218L29.302 42.0981L29.113 42.6697L28.9853 43.2366L28.3992 43.0492H29.0137L28.9475 43.6068L28.9192 44.1643L28.9475 44.675H28.3283L28.9144 44.4829L29.0279 44.914L28.4417 45.1061L28.9381 44.7453L29.165 45.092L28.6639 45.4575L29.0279 44.9608L29.3682 45.2185L29.0042 45.7152L29.1933 45.1295L29.6329 45.2935L29.4438 45.8745V45.2654L29.978 45.331L30.5972 45.3029V45.912L30.4034 45.331L31.0983 45.1998L31.8404 44.9702L32.6439 44.661L33.5279 44.2955L34.478 43.8832L35.4848 43.4381L36.5342 42.9836L37.5883 42.5198L38.6282 42.0512L39.6445 41.5686L39.531 41.6248L40.5899 41.0954L41.6676 40.5238L41.7479 40.4863L41.833 40.4722L41.9228 40.4816L41.9985 40.5238L42.0646 40.5847L42.1025 40.6644L42.1166 40.7487L42.1025 40.8377L42.0646 40.9127L41.9985 40.9783L41.0011 41.6576L40.0132 42.2808L39.8997 42.3417L38.9071 42.904L37.8908 43.4287L36.8462 43.9394L35.8157 44.4361L34.8183 44.9187L33.8777 45.3685L33.0079 45.7667L32.2138 46.0994L31.4764 46.3524L30.7863 46.4929L30.5972 46.5211L29.978 46.5538L29.4438 46.4883L29.2548 46.4601L28.8152 46.2962L28.6403 46.2118L28.3047 45.9541L28.1676 45.8182L27.9407 45.4668L27.8509 45.2935L27.7422 44.8624L27.7091 44.675L27.6854 44.1643L27.7091 43.6114L27.78 43.0492L27.8083 42.8618L27.936 42.2902L28.125 41.7186L28.3756 41.1423L28.4606 40.9736L28.7632 40.3973L29.0893 39.8491L29.4155 39.3524L29.7322 38.912L30.0347 38.5278L30.29 38.242L30.4223 38.1061L30.6161 37.9375L30.7863 37.8484L30.8903 37.8016L31.0793 37.7688L31.2684 37.8016L31.4433 37.8859L31.5804 38.0218L31.6702 38.1905L31.6844 38.2373L31.7127 38.4294L31.6844 38.6168L31.6277 38.7293L31.5426 38.9027L31.4339 39.0713L31.2684 39.2915L31.0463 39.5727L30.7532 39.9475L30.3939 40.4113L29.978 40.9314L29.51 41.4843L28.9901 42.0418L28.853 42.1777L28.3141 42.7025L27.7894 43.1757L27.26 43.6068L26.7448 43.9769L26.2579 44.3002L25.8041 44.6001L25.3882 44.8718L25.0147 45.0873L24.8446 45.1764L24.5042 45.3169L24.197 45.3778L24.0032 45.4059L23.729 45.3919L23.5352 45.3638L23.3083 45.2794L23.1382 45.1904L22.9633 45.0311L22.8262 44.8952L22.7411 44.7266L22.6324 44.5017L22.5993 44.3142L22.5568 44.0331V43.7051L22.5804 43.3303L22.6324 42.9227L22.6608 42.7353L22.7506 42.3136L22.8782 41.8919L23.0531 41.4609L23.1429 41.2922L23.3556 40.8752L23.6156 40.4629L23.9276 40.0599L24.2821 39.6711L24.4144 39.5352L24.7879 39.1791L25.1944 38.8511L25.6245 38.5653L26.083 38.317L26.2532 38.228L26.7259 38.0265L27.1986 37.8906L27.3876 37.8578L27.8367 37.7922L28.2527 37.7735L28.6355 37.7875L28.9806 37.8297L29.1744 37.8578L29.4911 37.9234L29.7653 38.0218L29.9402 38.1108L30.1623 38.2326L30.3372 38.3826L30.4743 38.5185L30.5972 38.6824L30.687 38.8511L30.7579 39.0385L30.7863 39.2259L30.8052 39.4227L30.791 39.6242L30.7674 39.8257L30.7343 40.0506L30.6823 40.2989L30.6587 40.4582L30.5877 40.7206L30.5027 41.0064L30.4081 41.3062Z" fill="white"/>
<path d="M50.001 23.7315L50.1334 23.7502L50.2468 23.8111L50.3414 23.9001L50.4028 24.0173L50.4217 24.1438L50.4028 24.275L50.3414 24.3921L50.2516 24.4811L50.1334 24.542L50.001 24.5608L49.6796 24.5889L49.3771 24.6357V24.1578L49.5236 24.6076L49.2447 24.7107L49.0888 24.2375L49.3866 24.6404L49.1171 24.8372L48.8477 25.1371L48.5263 24.7013L48.9706 25.0199L48.7106 25.4041L48.4459 25.8821L48.1765 26.4677L48.2615 26.299L47.9732 26.9925L47.6612 27.8124L47.3256 28.7682L46.9617 29.8646L46.5788 31.0875L46.1864 32.3806L45.8036 33.716L45.4396 35.0841L45.1087 36.4756L44.8251 37.811L44.5982 39.0292L44.428 40.1443L44.4564 39.9569L44.3382 40.9595L44.2721 41.817L44.2437 42.5198L44.2531 43.0867L44.3004 43.5037H43.6859L44.2721 43.3116L44.3619 43.6021L43.7757 43.7895L44.2768 43.4287L44.4044 43.6115L43.9081 43.9722L44.2673 43.4756L44.4375 43.5693L44.0735 44.0659V43.4522L44.2815 43.4662V44.08L44.0924 43.4943L44.3382 43.424L44.532 44.0097L44.1681 43.5131L44.4469 43.3491L44.7589 43.1101L45.104 42.829L45.4774 42.501L45.8745 42.1215L46.2384 42.6135L45.7374 42.2574L46.1439 41.8263L46.5646 41.3391L46.9947 40.8002L47.4249 40.2333L47.8598 39.6523L48.2899 39.0854L48.6964 38.5794L49.0698 38.1624L49.2069 38.0265L49.5473 37.6985L49.8403 37.4596L50.0767 37.3003L50.2516 37.2159L50.4406 37.1175L50.5966 37.066L50.7857 37.0379L50.9039 37.0192L51.093 37.052L51.1686 37.0801L51.3435 37.1644L51.4806 37.3003L51.5704 37.4689L51.6082 37.5673L51.6365 37.7548L51.646 37.9328L51.6176 38.1764L51.5893 38.3638L51.5137 38.659L51.3955 38.9776L51.2537 39.3243L51.1071 39.6851L50.9748 40.074L50.8661 40.4769L50.7952 40.8799L50.2043 40.6925L50.8235 40.6878L50.781 41.072L50.7621 41.4281L50.7668 41.7467L50.8093 42.0278H50.1901L50.7763 41.8357L50.8802 42.0747L50.2941 42.2668L50.7904 41.906L50.9512 42.0887L50.4501 42.4495L50.8141 41.9528L51.0221 42.084L50.6581 42.5807L50.8472 41.995L51.0977 42.07L50.9086 42.6556V42.0419L51.2064 42.0653L51.5562 42.0325V42.6463L51.3624 42.0653L51.7594 41.9622L52.1943 41.7982L52.6434 41.5921L53.1066 41.3625L53.3004 41.9435L52.9317 41.4468L53.3997 41.2032L53.8724 40.9455L54.3451 40.6831L54.8036 40.4348L55.2432 40.2005L55.4133 40.1115L55.8246 39.9053L56.2027 39.7226L56.5336 39.582L56.8125 39.4883L57.0394 39.4368L57.2332 39.4087L57.4175 39.3899L57.5735 39.404L57.7626 39.4368L57.9328 39.5211L58.0557 39.5914L58.1927 39.7273L58.2873 39.8678L58.3771 40.0365L58.4622 40.2333L58.5425 40.4676L58.6371 40.7346L58.7552 41.0298L58.8971 41.3297L59.053 41.6249L58.4669 41.817L58.968 41.4562L59.1381 41.7233L59.3319 41.9575L58.8309 42.323L59.1948 41.8263L59.417 42.0184L59.6723 42.173L59.313 42.6697L59.5021 42.084L59.7999 42.1871L60.1402 42.248L59.9559 42.8243L59.9512 42.2152L60.3435 42.2386L60.7831 42.2105V42.7868L60.5987 42.2386L61.0951 42.1403L61.6245 41.9809L62.1728 41.7701L62.7306 41.5218L62.8865 41.995L62.5888 41.5921L63.1371 41.3156L63.6665 41.0158L64.1817 40.6972L64.678 40.3504L65.1696 39.9616L65.6518 39.5399L65.7321 39.5024L65.8172 39.4883L65.9023 39.5024L65.9827 39.5399L66.0441 39.6008L66.0819 39.6758L66.0961 39.7648L66.0819 39.8491L66.0441 39.9288L65.9827 39.9897L65.5572 40.491L65.1224 40.9502L64.6686 41.3625L64.2006 41.7373L63.7043 42.084L63.1843 42.4026L63.0425 42.4729L62.5037 42.7634L61.9648 43.0164L61.4496 43.2132L60.9627 43.3397L60.7831 43.3678L60.3435 43.424L59.9559 43.4287L59.7668 43.3959L59.4217 43.3491L59.1192 43.2507L58.949 43.1663L58.6891 43.0164L58.4669 42.8196L58.3298 42.6838L58.1408 42.4448L57.9659 42.1777L57.8808 42.0044L57.7201 41.7092L57.5782 41.4093L57.4648 41.1188L57.3703 40.8518L57.2852 40.6128L57.2001 40.4207L57.791 40.2286L57.2899 40.5894L57.1906 40.4488L57.6917 40.0881L57.3277 40.5847L57.2096 40.5144L57.5735 40.0178V40.6316L57.4223 40.6128L57.2332 40.6316V40.0225L57.4223 40.6035L57.1954 40.6503L56.9165 40.744L56.5856 40.8893L56.2075 41.0673L55.7962 41.2781L55.6071 40.6972L55.9711 41.1891L55.5315 41.4234L55.073 41.6764L54.6003 41.9341L54.1276 42.1918L53.6597 42.4401L53.4895 42.5245L53.031 42.754L52.5772 42.9602L52.1423 43.1289L51.7453 43.2273L51.5562 43.2601L51.2064 43.2929L50.9086 43.2694L50.7195 43.2366L50.469 43.1617L50.2941 43.0726L50.0909 42.9461L49.9538 42.8103L49.7931 42.6275L49.7033 42.4542L49.604 42.2199L49.5709 42.0278L49.5284 41.7467L49.5236 41.4328L49.5425 41.0767L49.5851 40.6925L49.6182 40.5004L49.6938 40.1021L49.7978 39.6992L49.9349 39.3103L50.0767 38.9448L50.2185 38.6028L50.3367 38.2795L50.4123 37.989L50.9984 38.1764H50.3792L50.4076 37.9328L50.4028 37.7594L51.0173 37.7548L50.4312 37.9469L50.3934 37.8531L50.9795 37.661L50.7904 38.242L50.7148 38.2186L50.9039 37.6329V38.2467L50.7904 38.2608V37.647L50.9795 38.2327L50.8283 38.2842L50.6345 38.3779L50.4406 37.7969L50.8046 38.2936L50.5683 38.4482L50.2752 38.6871L49.9349 39.0151L49.5709 38.5185L50.0719 38.8792L49.6985 39.3009L49.292 39.8023L48.8619 40.3692L48.427 40.9502L47.9968 41.5218L47.5667 42.0606L47.146 42.5432L46.7395 42.9742L46.6024 43.1101L46.2054 43.4896L45.8319 43.8176L45.4869 44.1034L45.1749 44.3377L44.896 44.5064L44.7211 44.5907L44.4753 44.661L44.2862 44.6891L44.0735 44.6797L43.8844 44.6469L43.7096 44.5626L43.5441 44.4689L43.407 44.333L43.2747 44.1503L43.1896 43.9816L43.0951 43.6911L43.0667 43.5037L43.0147 43.0867L43.0052 42.5245L43.0336 41.817L43.0998 40.9595L43.218 39.9569L43.251 39.7695L43.4212 38.6497L43.6481 37.4361L43.9317 36.1008L44.2626 34.7046L44.6266 33.3411L45.0094 32.0058L45.4018 30.708L45.7847 29.4851L46.1486 28.3934L46.489 27.4376L46.8104 26.6177L47.1176 25.9336L47.2027 25.7696L47.5005 25.2027L47.7889 24.7435L48.0819 24.3827L48.2001 24.2609L48.4932 23.9938L48.791 23.8299L48.928 23.7596L49.2258 23.708L49.3771 23.6799L49.6796 23.694L50.001 23.7315Z" fill="white"/>
<path d="M66.4081 32.9474L66.5216 33.0083L66.6161 33.0973L66.6775 33.2145L66.6965 33.341L66.6775 33.4675L66.6161 33.5846L66.5263 33.6783L66.4081 33.7346L66.2805 33.758L66.1481 33.7346L65.8362 33.6971L65.5478 33.669L65.6991 33.2145V33.6924L65.4202 33.6971L65.1602 33.7158L64.9617 33.7346L64.7868 33.7627V33.2004L64.9617 33.7346L64.8341 33.7955L64.6497 33.2426L64.9948 33.7111L64.9144 33.7955L64.5646 33.3176L65.1318 33.5003L65.0893 33.5987L64.5315 33.4206L65.1177 33.416L65.0846 33.5378L65.0562 33.6736H64.5268L65.0326 33.5097L65.0515 33.6549L64.5741 33.8142L64.9806 33.519L65.0798 33.6783L64.6922 33.9595L64.9759 33.5706L65.1177 33.7486L65.2784 33.936L65.4769 34.1516L65.7085 34.4186L65.9732 34.7185L66.0347 34.7794L66.0725 34.8544L66.0867 34.9387L66.0772 35.0277L66.0347 35.1027L65.9732 35.1636L65.8976 35.2011L65.8125 35.2151L65.7227 35.2058L65.6471 35.1636L65.3256 34.9434L65.0326 34.756L64.7915 34.606L64.5883 34.4702L64.4134 34.3437L64.3046 34.2406L64.1628 34.1047L64.0919 33.9688L64.0258 33.8376L63.9974 33.6736L63.9643 33.5425L63.9407 33.4206L63.969 33.2379L63.9927 33.1348L64.0778 32.9662L64.2101 32.835L64.3046 32.7694L64.4654 32.6897L64.6119 32.6663L64.7868 32.6382L64.957 32.6476L65.1602 32.6663L65.4155 32.6944L65.6943 32.7366L65.8456 32.76L66.115 32.8443L66.4081 32.9474Z" fill="white"/>
<path d="M71.4895 36.7285L71.6739 36.7566L71.8441 36.841L71.9764 36.9721L72.0615 37.1408L72.0946 37.3235L72.0662 37.511L71.9811 37.675L71.8441 37.8061L71.6786 37.8952L71.4895 37.9233L71.3997 37.928H71.2721L71.0783 37.9326L70.8231 37.9467L70.4969 37.9936V37.3798L70.686 37.9608L70.3173 38.0545L69.906 38.195L69.457 38.3778L68.9843 38.598L68.7905 38.017L69.1545 38.5089L68.6629 38.7713L68.1665 39.0806L67.6844 39.4413L67.2401 39.849L66.8761 39.3523L67.3771 39.7131L67.0132 40.1582L66.7579 40.6174L66.2569 40.2566L66.843 40.444L66.7012 40.8797L66.1103 40.6923H66.7296L66.6776 41.0906L66.7154 41.4373H66.0962L66.6823 41.2499L66.8241 41.5451L66.238 41.7372L66.739 41.3717L67.0037 41.6341L66.5027 41.9948L66.8666 41.4982L67.2448 41.709L66.8808 42.2057L67.0699 41.62L67.5473 41.77L68.0956 41.8543L67.9066 42.44V41.8262L68.5211 41.859L69.2112 41.8496L69.9675 41.7934L70.7521 41.6669L70.5583 41.6997L71.3477 41.5029L72.1277 41.2686L72.8934 41.0016L73.6592 40.7111L74.4533 40.3878L75.2616 40.0504L76.0604 39.7131L76.8215 39.3757L77.5211 39.0571L78.1497 38.7666L78.7075 38.4949L79.1802 38.2559L79.374 38.8369L79.01 38.3403L79.3882 38.1388L79.6765 37.9795L79.8845 37.8483L80.0263 37.7546L80.1067 37.6843L80.4754 38.1763L79.9743 37.8155L80.0027 37.7733L80.5037 38.1294L80.1445 38.6261L80.1067 38.6027L80.4706 38.106V38.7198L80.3383 38.7245L80.3336 38.1107L80.5274 38.6917L80.291 38.7432L79.9743 38.865L79.5962 39.0431L79.1707 39.2633L78.9817 38.6776L79.3456 39.1743L78.8966 39.4226L78.4381 39.6897L77.9796 39.9708L77.5352 40.266L77.1193 40.5705L76.7695 40.8563L76.4859 41.1187L76.1266 40.6267L76.6229 40.9828L76.4102 41.2265L76.2543 41.4467L76.1503 41.6481L75.6492 41.2874L76.2353 41.4795L76.1739 41.6575L75.5878 41.4701H76.207L76.1881 41.6294L75.5688 41.6341L76.1597 41.442L76.2117 41.5825L75.6208 41.77L75.9848 41.278L76.1503 41.3858L75.791 41.8824L75.9801 41.3014L76.2732 41.3764L76.0841 41.9574V41.3436L76.4953 41.3811L77.0247 41.3951L77.644 41.3764L78.3435 41.3155L79.0809 41.2171L78.8966 41.2499L79.6671 41.1234L80.4659 40.9781L81.3073 40.8141L82.125 40.6502L82.8813 40.5002L83.5526 40.369L84.1671 40.2519L84.7154 40.1441L85.2212 40.0176L85.6986 39.8677L85.7837 39.8536L85.8687 39.8677L85.9491 39.9052L86.0106 39.9661L86.0484 40.0457L86.0625 40.1301L86.0484 40.2144L86.0106 40.2941L85.9491 40.355L85.8687 40.3925L85.4244 40.6408L84.947 40.8516L84.427 41.0344L83.8362 41.2171L83.1791 41.4045L82.437 41.606L81.6334 41.8121L80.8062 42.0136L80.0216 42.1916L79.2605 42.3509L79.0809 42.379L78.3435 42.5056L77.6487 42.5852L77.0247 42.6133L76.5 42.6086L76.0841 42.5712L75.895 42.543L75.5972 42.4681L75.427 42.379L75.2616 42.2666L75.1245 42.1307L75.0347 41.9621L74.9827 41.8215L74.9544 41.6341L74.9685 41.4701L74.9969 41.2827L75.0583 41.0999L75.1482 40.9313L75.2521 40.7298L75.4129 40.5049L75.6256 40.266L75.7579 40.1301L76.0415 39.8677L76.3913 39.5772L76.8073 39.2727L77.2516 38.9775L77.7101 38.6964L78.1686 38.4293L78.6177 38.1857L78.7879 38.0966L79.2133 37.8764L79.5914 37.6984L79.9081 37.5812L80.1445 37.5297L80.3336 37.4969H80.4659L80.6597 37.525L80.8299 37.6094L80.8677 37.6328L81.0048 37.7687L81.0946 37.942L81.1229 38.1294L81.0946 38.3215L81.0048 38.4902L80.9717 38.5371L80.8346 38.6729L80.7542 38.7432L80.6124 38.8416L80.4045 38.9681L80.1161 39.1274L79.738 39.3336L79.5678 39.4179L79.0904 39.6615L78.5326 39.9286L77.9087 40.2238L77.2044 40.5424L76.4433 40.8797L75.6492 41.2171L74.8409 41.5544L74.0421 41.8777L73.2763 42.1682L72.5153 42.4306L71.7306 42.6695L70.9459 42.8616L70.7521 42.8944L69.9675 43.0209L69.2112 43.0772L68.5258 43.0865L67.9066 43.0537L67.7175 43.0209L67.1644 42.9366L66.6917 42.7867L66.5169 42.7023L66.1387 42.4915L66.0016 42.3556L65.7369 42.0979L65.6518 41.9246L65.5053 41.6294L65.4769 41.4373L65.4438 41.0906L65.4911 40.6923L65.5242 40.5049L65.666 40.0692L65.7558 39.8958L66.0158 39.4413L66.375 38.9915L66.5121 38.8557L66.9565 38.448L67.4386 38.0919L67.9349 37.7827L68.4265 37.5203L68.5967 37.4313L69.0694 37.2111L69.5232 37.0284L69.9344 36.8925L70.3031 36.7941L70.4922 36.766L70.8183 36.7191L71.0783 36.7051L71.2674 36.7098L71.3997 36.7191L71.4895 36.7285Z" fill="white"/>
<path d="M36.1749 32.7507L36.1371 32.821L36.0804 32.8819L36.0047 32.9194L35.9244 32.9288L35.844 32.9194L35.7684 32.8819L35.7117 32.821L35.6738 32.7507L35.6597 32.6711L35.6738 32.5914L35.7448 32.0058L35.8015 31.8933L36.1702 31.0546L36.2694 30.9562L37.2054 30.1035L37.3424 30.0332L38.8078 29.3211L40.6087 28.7775L42.5798 28.3887L42.75 28.3606L44.7258 28.1122L46.8057 27.9857L49.1124 27.9482L51.5326 27.967L53.9953 28.0373L56.5005 28.2013L59.0625 28.4308L61.6717 28.7026L64.3283 29.0306L67.0699 29.4101L67.1738 29.4241L67.2637 29.471L67.3393 29.5413L67.3818 29.635L67.4007 29.7334L67.3866 29.8364L67.3393 29.9255L67.2637 30.0004L67.1738 30.0473L67.0699 30.0613L64.3283 29.7755L61.6717 29.5272L59.0625 29.3257L56.5053 29.1524L53.9953 29.0399L51.5326 29.0165L49.1124 29.0399L46.8057 29.1055L44.7306 29.2367L42.7547 29.4522L42.9249 29.4241L40.9349 29.7708L39.1245 30.2769L37.6402 30.9469L37.7773 30.8766L36.813 31.6872L36.9123 31.5888L36.4491 32.3572L36.5058 32.2447L36.1749 32.7507Z" fill="white"/>
<path d="M113.11 11.5494L113.091 11.6759L113.029 11.7884L112.94 11.8821L112.821 11.9383L112.694 11.9617L112.566 11.9383L112.453 11.8821L112.358 11.7931L112.302 11.6759L112.278 11.5494L112.226 11.3808L112.155 11.2308H112.67L112.368 11.6431L112.283 11.615L112.604 11.1746L112.774 11.69L112.67 11.7509L112.495 11.2168L112.831 11.6713L112.694 11.8259L112.349 11.3573L112.821 11.6994L112.661 11.943L112.453 12.2991L112.179 12.7864L111.819 13.447L111.366 14.2904L110.808 15.3633L110.108 16.7408L110.198 16.5675L109.404 18.2214L108.558 20.0955L107.622 22.3117L106.653 24.7715L105.712 27.3953L104.894 30.0098L104.2 32.6945L103.623 35.2902L103.108 37.8952L102.687 40.4159L102.72 40.2238L102.422 42.529L102.262 44.5016L102.191 46.1368L102.172 47.5236L102.181 48.7559L102.224 49.8382L102.304 50.78L102.418 51.6233L102.536 52.3589L101.926 52.3636L102.507 52.1715L102.635 52.8134L102.772 53.3803L102.928 53.877L103.103 54.2893L102.583 54.458L103.023 54.1394L103.216 54.4908L103.424 54.7859L103.018 55.0811L103.311 54.6735L103.543 54.9218L103.807 55.1233L103.543 55.4887L103.68 55.0624L103.987 55.2217L104.318 55.3388L104.2 55.6902V55.3201L104.564 55.4044L104.668 55.4231L104.762 55.47L104.833 55.5403L104.88 55.634L104.899 55.7324L104.88 55.8355L104.833 55.9245L104.762 55.9994L104.668 56.0463L104.568 56.0604L104.204 56.065L104.086 56.0463L103.732 56.0088L103.401 55.9151L103.278 55.8495L102.975 55.6949L102.72 55.4887L102.607 55.3763L102.366 55.1092L102.139 54.7812L102.058 54.6266L101.85 54.2284L101.661 53.7411L101.491 53.1835L101.345 52.551L101.316 52.3636L101.184 51.6233L101.066 50.78L100.985 49.8382L100.943 48.7559L100.933 47.5283L100.952 46.1368L101.023 44.5016L101.189 42.529L101.482 40.2285L101.51 40.0364L101.931 37.5157L102.446 34.9153L103.023 32.3149L103.717 29.6349L104.535 27.0205L105.476 24.3967L106.445 21.9369L107.381 19.7207L108.227 17.8466L109.021 16.1926L109.106 16.0193L109.806 14.6418L110.363 13.5735L110.817 12.7255L111.181 12.0695L111.46 11.5916L111.687 11.2449L111.871 11.0153L112.004 10.8888L112.16 10.7576L112.316 10.678L112.434 10.6545L112.604 10.6311L112.774 10.6545L112.925 10.7342L112.973 10.8138L113.086 10.931L113.157 11.0715L113.185 11.2308L113.157 11.3808L113.11 11.5494Z" fill="white"/>
<path d="M101.089 22.1899L101.17 22.232L101.231 22.2929L101.269 22.3679L101.283 22.4522L101.269 22.5413L101.231 22.6162L101.17 22.6771L101.089 22.7193L101.004 22.7334L100.919 22.7193L100.47 22.6865L100.073 22.5647L99.9453 22.5038L99.5955 22.3023L99.293 22.068L99.1796 21.9556L98.8912 21.7026L98.6076 21.4496L98.324 21.1872L98.0404 20.9014L97.7426 20.5781L97.4353 20.1986L97.1234 19.7582L96.8114 19.2381L96.7216 19.0694L96.4238 18.4744L96.1402 17.8044L95.8707 17.05L95.6391 16.216L95.4453 15.3118L95.417 15.1243L95.2704 14.1498L95.1901 13.1378L95.157 12.0835L95.1995 10.9778L95.3508 9.84863L95.3839 9.65653L95.6722 8.5133L96.1024 7.38413L96.1922 7.21077L96.7689 6.11908L97.4968 5.07893L98.3854 4.09969L98.5225 3.96381L99.553 3.05954L100.669 2.25834L101.827 1.58365L101.997 1.49932L103.207 0.951128L104.507 0.520075L105.878 0.220212L106.067 0.187414L107.423 0.0281122L108.742 0L110.037 0.103078L110.226 0.13119L111.46 0.3842L112.661 0.810567L112.836 0.899589L114.017 1.49932L115.18 2.25834L116.272 3.14388L116.409 3.27975L117.421 4.27305L118.352 5.36474L119.236 6.57356L120.091 7.92763L120.89 9.36135L120.98 9.53002L121.689 11.0012L122.294 12.4818L122.79 13.9296L123.187 15.3539L123.49 16.7595L123.523 16.9469L123.731 18.2682L123.849 19.4677L123.882 20.5875L123.811 21.6464L123.783 21.8338L123.57 22.8411L123.187 23.8344L123.102 24.0031L122.568 24.9683L121.911 25.9054L121.145 26.8237L120.29 27.7139L120.158 27.8498L119.24 28.7025L118.276 29.5084L117.269 30.2674L116.215 30.9796L115.152 31.6543L114.121 32.2821L113.152 32.8678L112.268 33.4019L111.521 33.8845L110.921 34.325L110.467 34.7466L110.103 34.2547L110.604 34.6108L110.278 35.0512L109.777 34.6951L110.368 34.8825L110.17 35.3651L109.579 35.1777H110.198L110.141 35.7352L109.522 35.7399L110.113 35.5478L110.236 36.1944L110.586 36.93L110.496 36.7567L111.082 37.5625L111.876 38.4293L111.739 38.2935L112.732 39.2258L113.913 40.2191L115.237 41.2359L116.669 42.2479L118.186 43.2318L119.76 44.1876L121.353 45.106L122.923 45.9821L124.459 46.7927L125.938 47.5424L127.342 48.2358L128.685 48.8917L129.975 49.5289L131.237 50.1708L132.424 50.8174L133.502 51.4734L134.494 52.1762L135.421 52.9446L136.271 53.7833L136.385 53.891L137.17 54.7719L137.916 55.6855L138.63 56.6179L139.311 57.5597L139.982 58.5061L140.02 58.5811L140.034 58.6701L140.02 58.7544L139.982 58.8294L139.921 58.8903L139.84 58.9325L139.755 58.9465L139.67 58.9325L139.59 58.895L139.528 58.8341L138.781 57.9439L138.025 57.0583L137.245 56.1728L136.437 55.306L135.586 54.4673L135.695 54.5751L134.806 53.7879L133.851 53.057L132.835 52.387L131.734 51.7592L130.533 51.136L130.703 51.2204L129.432 50.5925L128.136 49.9694L126.794 49.3181L125.381 48.6247L125.211 48.5356L123.736 47.786L122.2 46.9707L120.625 46.0993L119.037 45.1809L117.463 44.2251L115.946 43.2412L114.514 42.2292L113.19 41.2124L112.008 40.2145L111.016 39.2867L110.879 39.1509L110.08 38.2841L109.498 37.4782L109.409 37.3095L109.059 36.5786L108.936 35.9273L108.903 35.7399L108.96 35.1777L108.993 34.9903L109.191 34.503L109.276 34.3343L109.602 33.8939L109.739 33.758L110.193 33.3363L110.794 32.8959L111.54 32.4133L112.424 31.8745L113.393 31.2935L114.424 30.6657L115.487 29.9863L116.541 29.2741L117.548 28.5198L118.513 27.7139L119.425 26.8612L119.292 26.997L120.143 26.1068L120.909 25.1885L121.566 24.2467L122.1 23.2862L122.01 23.4549L122.393 22.4663L122.606 21.459L122.573 21.6464L122.644 20.5875L122.615 19.4677L122.497 18.2729L122.285 16.9516L122.313 17.139L122.01 15.7334L121.618 14.3138L121.122 12.8613L120.517 11.3807L119.803 9.90954L119.893 10.0829L119.094 8.64917L118.238 7.29511L117.354 6.0816L116.419 4.99459L115.412 4.0013L115.549 4.13717L114.452 3.25164L113.294 2.49261L112.108 1.89289L112.283 1.97722L111.082 1.55085L109.848 1.29784L110.037 1.32596L108.742 1.22756L107.428 1.25568L106.071 1.41498L106.26 1.38218L104.894 1.68673L103.59 2.1131L102.384 2.66128L102.555 2.57695L101.396 3.25164L100.281 4.04815L99.2505 4.95711L99.3875 4.82124L98.4989 5.80048L97.7662 6.83594L97.1895 7.93232L97.2794 7.75896L96.8492 8.89281L96.5609 10.036L96.5892 9.84394L96.438 10.9778L96.3954 12.0835L96.4238 13.1331L96.5089 14.1451L96.6507 15.1197L96.6223 14.9322L96.8161 15.8365L97.0477 16.6705L97.3124 17.4249L97.6008 18.0902L97.8986 18.6899L97.3124 18.8773L97.8135 18.5165L98.1207 19.0366L98.4233 19.4864L98.7116 19.8753L98.9858 20.2173L99.241 20.5219L99.4963 20.8077L99.7468 21.0841L100.007 21.3559L99.5955 21.6557L99.8933 21.2481L100.167 21.5199L100.47 21.7822L100.21 22.143L100.347 21.7213L100.702 21.965L101.089 22.1899Z" fill="white"/>
<path d="M130.098 35.5198L129.971 35.5011L129.852 35.4402L129.758 35.3511L129.701 35.234L129.678 35.1075L129.701 34.9763L129.758 34.8592L129.852 34.7702L129.966 34.7092L130.098 34.6905L130.268 34.6624L130.453 34.653L130.604 34.6765L130.817 34.6858L131.048 34.7186L131.289 34.7702L131.554 34.8358L131.824 34.906L132.084 34.9763L132.329 35.0419L132.552 35.0888L132.362 35.6697V35.0607L132.556 35.0841L132.736 35.0888H132.897L133.034 35.0747V35.6885L132.84 35.1075L132.949 35.0747L133.142 35.6557L132.778 35.159L132.863 35.1028L133.227 35.5995L132.726 35.2387L132.788 35.1637L132.83 35.0747L133.331 35.4308L132.745 35.2434L132.769 35.145L133.36 35.3324L132.741 35.3371L132.75 35.2246L132.736 35.1028H133.355L132.764 35.2949L132.712 35.1637L133.298 34.9716L132.797 35.3324L132.684 35.2059L133.18 34.8451L132.821 35.3418L132.637 35.22L132.996 34.7233L132.807 35.3043L132.556 35.2012L132.235 35.1262L132.424 34.5406L132.429 35.1544L132.032 35.1216L131.568 35.1075L131.039 35.1262L130.439 35.1872V34.5734L130.632 35.1544L129.975 35.2762L129.285 35.4636L128.609 35.7025L127.962 35.9977L127.768 35.4167L128.132 35.9087L127.489 36.2648L126.832 36.6865L126.184 37.1644L125.589 37.6845L125.726 37.5439L125.192 38.0968L124.738 38.6731L124.369 39.2868L123.868 38.9261L124.454 39.1135L124.161 39.7882L123.958 40.4957L123.372 40.3083H123.991L123.887 41.0298V41.7373H123.268L123.854 41.5499L123.972 42.1871L124.251 42.7306L123.66 42.918L124.024 42.4214L124.483 42.8618L125.102 43.1804L124.932 43.0914L125.679 43.2835L125.49 43.2507L126.336 43.3209L127.262 43.2694L127.073 43.3022L128.075 43.1148L129.125 42.7915L130.155 42.3698L131.129 41.8638L130.954 41.9528L131.871 41.3953L132.741 40.8002L133.568 40.1677L134.357 39.5071L135.057 38.8652L134.92 39.001L135.511 38.3826L135.974 37.8016L136.295 37.2628L136.796 37.6235L136.21 37.4361L136.399 36.9161L136.48 36.396L137.066 36.5834H136.446L136.404 36.0867H137.023L136.432 36.2788L136.22 35.8197L136.806 35.6323L136.309 35.993L135.903 35.5854L136.399 35.2246L136.04 35.7213L135.459 35.3605L135.629 35.4495L134.92 35.1544L134.107 34.9248L133.261 34.7748L133.431 34.803L132.589 34.728L131.776 34.7514L131.932 34.728L131.171 34.8873L130.472 35.2012L130.595 35.1356L129.942 35.5807L130.032 35.487L129.465 36.0211L129.002 36.5787L128.59 37.1222L128.529 37.1831L128.449 37.2206L128.363 37.2347L128.278 37.2206L128.198 37.1831L128.137 37.1222L128.099 37.0472L128.085 36.9582L128.099 36.8739L128.137 36.7989L128.467 36.1945L128.86 35.5854L129.361 35.0044L129.451 34.9107L130.065 34.4141L130.193 34.3485L130.873 33.983L131.62 33.7722L131.776 33.7487L132.585 33.6785L133.431 33.7066L133.601 33.7347L134.461 33.8378L135.288 34.0299L136.007 34.2969L136.177 34.3813L136.763 34.728L136.9 34.8639L137.307 35.2715L137.397 35.4402L137.609 35.8946L137.642 36.0867L137.685 36.5787L137.657 36.7708L137.576 37.2909L137.387 37.811L137.297 37.9843L136.976 38.5184L136.513 39.1041L135.922 39.7226L135.785 39.8585L135.085 40.5004L134.296 41.161L133.469 41.7888L132.599 42.3886L131.682 42.9414L131.512 43.0304L130.538 43.5318L129.507 43.9581L128.458 44.2814L127.456 44.4689L127.267 44.497L126.336 44.5438L125.49 44.4782L125.3 44.4501L124.549 44.258L124.379 44.1737L123.755 43.8504L123.301 43.4146L123.164 43.2788L123.074 43.1101L122.795 42.5713L122.677 41.9294L122.649 41.7373L122.653 41.0345L122.753 40.3083L122.781 40.1208L122.984 39.4087L123.277 38.7387L123.367 38.5653L123.736 37.9515L124.19 37.3752L124.724 36.827L124.861 36.6912L125.456 36.1758L126.104 35.6979L126.761 35.2715L127.404 34.9201L127.574 34.8311L128.226 34.5406L128.902 34.2969L129.588 34.1142L130.25 33.9877L130.439 33.9596L131.039 33.8987L131.564 33.8846L132.032 33.894L132.424 33.9315L132.618 33.9596L132.934 34.0346L133.185 34.1376L133.36 34.2267L133.544 34.3485L133.681 34.4843L133.799 34.6109L133.884 34.7842L133.941 34.9154L133.974 35.1028L133.984 35.2246L133.974 35.3324L133.946 35.5245L133.922 35.6229L133.833 35.7916L133.79 35.8806L133.729 35.9556L133.591 36.0914L133.506 36.1523L133.336 36.2414L133.223 36.2695L133.034 36.3023L132.897 36.3116L132.736 36.3163L132.561 36.307L132.362 36.2788L132.173 36.2507L131.956 36.1945L131.715 36.1102L131.46 36.0118L131.204 35.904L130.954 35.8056L130.722 35.7166L130.505 35.6369L130.306 35.5807L130.458 35.1262V35.6042L130.273 35.5573L130.098 35.5198Z" fill="white"/>
<path d="M140.19 36.3443L140.308 36.4053L140.403 36.4943L140.46 36.6114L140.483 36.7379L140.464 36.8691L140.403 36.9862L140.308 37.0753L140.195 37.1362L140.062 37.1549L139.935 37.1362L139.613 37.0987L139.316 37.0753L139.462 36.6255V37.0987L139.212 37.1034L138.999 37.1409V36.6161L139.164 37.1127L139.008 37.2065L138.838 36.6864L139.283 37.0097L139.169 37.1737L138.711 36.841L139.254 37.0144L139.174 37.258L139.122 37.5672L138.55 37.3845H139.15L139.127 37.7406L139.117 38.1295V38.5512L139.131 39.0103L139.174 39.4976L139.245 40.0036L138.63 40.0083L139.216 39.8162L139.306 40.3128L139.405 40.772L139.505 41.2031L139.604 41.5873L139.694 41.9246L139.769 42.2151L139.836 42.4494L139.883 42.618L139.916 42.7305L139.94 42.782L139.353 42.9741L138.989 42.4775L139.004 42.4681L139.368 42.9648H138.748L138.758 42.8757V42.7258L138.748 42.5384L138.715 42.3322H139.335L138.748 42.5197L138.678 42.2948L138.583 42.0417L138.47 41.7606L138.351 41.4326L138.238 41.0484L138.139 40.5846L138.11 40.3972L138.025 39.8349L137.964 39.1602L137.935 38.3731L137.954 37.4641L138.054 36.4755L138.082 36.2834L138.295 35.2433L138.626 34.1844L139.056 33.1958L139.141 33.0224L139.642 32.1556L140.176 31.4294L140.734 30.8297L140.871 30.6938L141.466 30.2018L142.1 29.7895L142.27 29.7005L142.922 29.3772L143.565 29.1429L144.184 28.993L144.373 28.9649L144.964 28.8946L145.522 28.8853L146.028 28.9462L146.222 28.9743L146.657 29.1242L146.831 29.2085L147.191 29.4334L147.328 29.5693L147.607 29.8504L147.805 30.1644L147.895 30.3377L148.008 30.6844L148.041 30.8765L148.075 31.2701L148.046 31.4622L147.98 31.8979L147.777 32.3618L147.687 32.5305L147.332 33.0084L147.2 33.1442L146.718 33.6222L146.132 34.0907L145.461 34.5639L144.742 35.0324L144.009 35.4869L143.291 35.9227L142.61 36.3256L141.982 36.6864L141.41 37.005L140.932 37.2627L140.762 37.3517L140.398 37.5391L140.148 37.6703L139.987 37.75L139.793 37.169L140.157 37.6656L140.072 37.7218L139.708 37.2252L140.299 37.4126L140.289 37.4501L139.703 37.2627L139.892 36.677L139.992 36.6957L139.798 37.2767V36.663L140.044 36.6676H140.426L140.942 36.663H141.57L142.289 36.6583L143.059 36.6676L143.863 36.7004L144.666 36.7707L144.86 36.8035L145.645 36.9113L146.406 37.0565L147.096 37.2205L147.715 37.4126L148.254 37.6188L148.424 37.7031L148.864 37.9233L149.181 38.1482L149.318 38.2841L149.53 38.523L149.616 38.6917L149.729 38.9588L149.757 39.1462L149.767 39.4367L149.738 39.6288L149.625 39.938L149.54 40.1114L149.289 40.444L149.152 40.5799L148.784 40.9313L148.316 41.3155L147.767 41.7185L147.167 42.1355L146.543 42.5337L145.929 42.9085L145.314 43.2646L144.704 43.602L144.123 43.9159L143.584 44.2064L143.107 44.4594L142.714 44.6702L142.393 44.8295L142.138 44.9514L141.953 45.0357L141.821 45.0872L141.717 45.12L141.589 45.1856L141.447 45.2044L141.31 45.1856L141.183 45.12L141.083 45.0216L141.017 44.8951L140.994 44.7546L141.017 44.6187L141.083 44.4922L141.183 44.3938L141.254 44.3188L141.358 44.2298L141.518 44.108L141.745 43.9534L142.043 43.7566L142.416 43.5223L142.875 43.2459L143.404 42.9413L143.981 42.6134L144.586 42.2713L145.201 41.9199L145.815 41.5451L146.434 41.1422L147.039 40.7298L147.588 40.3269L148.056 39.9427L148.424 39.5866L148.788 40.0833L148.287 39.7225L148.538 39.3898L149.039 39.7506L148.448 39.5632L148.561 39.2493L149.148 39.4414H148.528L148.524 39.1462H149.138L148.552 39.3383L148.443 39.0759L149.029 38.8838L148.528 39.2446L148.32 39.0056L148.821 38.6449L148.457 39.1415L148.136 38.9166L148.5 38.42L148.311 39.0009L147.871 38.7854L147.332 38.5746L146.713 38.3872L146.023 38.2232L145.267 38.0779L144.477 37.9702L144.671 37.9983L143.868 37.9233L143.064 37.8905L142.289 37.8858H141.57L140.946 37.8905L140.426 37.8952H140.044L139.803 37.8905L139.609 37.8624L139.509 37.8437L139.339 37.7546L139.202 37.6188L139.112 37.4501L139.084 37.2627L139.112 37.0706L139.122 37.0378L139.212 36.8644L139.344 36.7285L139.429 36.6723L139.604 36.588L139.765 36.5037L140.015 36.3771L140.379 36.185L140.568 36.7707L140.204 36.2741L140.682 36.0164L141.254 35.6978L141.882 35.3323L142.563 34.9294L143.281 34.4983L144.014 34.0438L144.733 33.5753L145.404 33.1021L145.985 32.6289L146.472 32.151L146.836 32.6476L146.335 32.2868L146.685 31.8136L147.186 32.1697L146.6 31.9823L146.803 31.5184L146.869 31.0874L147.455 31.2748H146.841L146.803 30.8765H147.422L146.836 31.0686L146.718 30.7172L147.304 30.5251L146.808 30.8859L146.609 30.572L146.33 30.2909L146.827 29.9301L146.467 30.4267L146.103 30.2018L146.467 29.7052L146.278 30.2909L145.839 30.1409L146.033 29.5599V30.1737L145.522 30.1128L144.969 30.1175L144.378 30.1925V29.5787L144.567 30.1597L143.953 30.3096L143.31 30.5392L142.658 30.8672L142.464 30.2815L142.828 30.7781L142.194 31.1905L141.599 31.6871L141.736 31.5512L141.173 32.151L140.644 32.8725L140.143 33.7393L140.233 33.5706L139.803 34.5592L139.472 35.6181L139.259 36.663L139.292 36.4708L139.193 37.4641L139.169 38.3731L139.202 39.1602L139.264 39.8303L139.349 40.3972H138.729L139.316 40.2051L139.415 40.6689L139.524 41.0531L139.642 41.3764L139.755 41.6622L139.854 41.9152L139.921 42.1401L139.954 42.3322L139.987 42.5384L139.996 42.7258V42.8757L139.987 42.9601L139.958 43.1522L139.869 43.3208L139.732 43.4567L139.717 43.4661L139.543 43.5551L139.353 43.5879L139.164 43.5551L138.989 43.4708L138.852 43.3349L138.763 43.1615L138.739 43.11L138.706 43.0022L138.659 42.8289L138.597 42.5946L138.517 42.3041L138.427 41.9715L138.328 41.5826L138.228 41.1515L138.134 40.6924L138.039 40.1957L138.011 40.0083L137.935 39.4976L137.893 39.0103L137.879 38.5558L137.883 38.1295L137.907 37.7406L137.95 37.3845L137.978 37.2018L138.058 36.9019L138.172 36.6676L138.252 36.513L138.394 36.3678L138.512 36.246L138.668 36.171L138.838 36.1194L138.999 36.0913L139.207 36.1007L139.462 36.1476L139.609 36.171L139.892 36.2506L140.19 36.3443Z" fill="white"/>
<path d="M153.841 36.0539L153.926 36.0399L154.012 36.0539L154.087 36.0914L154.149 36.1523L154.186 36.2273L154.201 36.3069L154.186 36.3913L154.149 36.4662L154.087 36.5271L154.012 36.5646L153.596 36.8364L153.17 37.1081L153.028 36.6817L153.298 37.0425L152.896 37.3471L152.523 37.6985L152.225 37.2955L152.636 37.5907L152.31 37.9749L152.026 38.3732L151.776 38.7714L151.563 39.179L151.086 38.837L151.643 39.0151L151.468 39.4227L151.317 39.8397L151.19 40.2239L151.09 40.5472L151.019 40.8095L150.977 41.0063L150.944 41.1469L150.925 41.2453L150.339 41.0579L150.925 40.8658L150.934 40.9033L150.348 41.0954L149.984 40.5987L150.055 40.5284L150.419 41.0251L149.918 40.6643L150.074 40.4628L150.291 40.1536L150.575 39.7413L150.92 39.2353L151.322 38.6637L151.766 38.0546L152.263 37.3939L152.839 36.6724L153.477 35.918L154.201 35.1028L154.981 34.2735L155.118 34.1376L155.931 33.327L156.777 32.5446L157.637 31.823L158.493 31.1858L159.325 30.6423L160.048 30.2394L160.218 30.155L160.818 29.8927L161.333 29.738L161.797 29.6678L161.972 29.6396H162.383L162.756 29.7006L162.917 29.724L163.21 29.8786L163.352 29.9536L163.465 30.0613L163.659 30.3097L163.73 30.4455L163.834 30.7735L163.858 30.9094L163.872 31.2983L163.791 31.7574L163.773 31.8652L163.617 32.3712L163.579 32.4509L163.517 32.5118L163.437 32.5493L163.352 32.5633L163.267 32.5493L163.186 32.5118L163.125 32.4509L163.082 32.3712L163.073 32.2869L163.082 32.2025L163.106 31.6497L163.442 31.7574H163.087L163.049 31.2983L162.955 30.9141H163.404L162.974 31.0499L162.813 30.7407L163.271 30.5955L162.879 30.8766L162.643 30.6517L163.054 30.3565L162.898 30.8344L162.591 30.722L162.756 30.2206V30.7454L162.383 30.7267L161.976 30.7688V30.2066L162.151 30.7407L161.697 30.8438L161.192 31.0218L160.596 31.303L160.407 30.7267L160.766 31.2186L160.048 31.6262L159.221 32.1744L158.37 32.8116L157.505 33.5379L156.663 34.3156L155.846 35.1262L155.983 34.9903L155.203 35.8196L154.475 36.6349L153.841 37.3939L153.265 38.1108L152.768 38.7714L152.324 39.3805L151.922 39.9521L151.577 40.4581L151.294 40.8705L151.076 41.1844L150.92 41.3812L150.783 41.517L150.712 41.5873L150.542 41.6763L150.348 41.7045L150.159 41.6763L149.984 41.5873L149.847 41.4514L149.762 41.2828L149.748 41.2453L149.719 41.0579L149.748 40.8658L149.767 40.7721L149.8 40.6315L149.842 40.4347L149.913 40.1677L150.013 39.8444L150.154 39.4649L150.325 39.0572L150.528 38.659L150.613 38.495L150.854 38.1155L151.138 37.736L151.454 37.3611L151.814 37.0004L151.922 36.8879L152.319 36.5646L152.759 36.3163L152.887 36.2507L153.354 36.1101L153.841 36.0539Z" fill="white"/>
<path d="M152.163 38.4575L152.248 38.4716L152.319 38.5091L152.381 38.5653L152.419 38.6403L152.428 38.7199L152.419 38.8043L152.381 38.8745L152.319 38.9355L152.248 38.9729L152.163 38.9823L151.544 39.1041L151.034 39.151L150.887 39.1276L150.575 39.1135L150.433 39.0385L150.315 38.9261L150.244 38.7808L150.216 38.6215L150.178 38.5559L150.206 38.3873L150.282 38.2373L150.405 38.1155L150.556 38.0359L150.778 37.9468L151.123 37.8391L151.53 37.7126L152.007 37.558L152.603 37.3612L153.293 37.1316L153.988 36.8926L154.645 36.6724L155.264 36.485L155.864 36.3304L156.422 36.2086L156.611 36.1805L157.15 36.0961L157.628 36.0586L158.081 36.054L158.502 36.068L158.875 36.0868L159.192 36.143L159.358 36.1664L159.618 36.2789L159.759 36.3491L159.953 36.4991L160.062 36.6068L160.185 36.7896L160.251 36.9161L160.289 37.1269L160.308 37.2534L160.27 37.4924L160.251 37.6095L160.161 37.8672L160.114 37.9609L160.043 38.0312L159.948 38.078L159.849 38.0968L159.745 38.078L159.651 38.0312L159.58 37.9609L159.532 37.8672L159.518 37.7688L159.532 37.6657V37.3799L159.892 37.4924H159.518L159.476 37.2534H159.892L159.495 37.3799L159.391 37.1925L159.821 37.0519L159.457 37.3143L159.282 37.1691L159.674 36.888L159.391 37.2722L159.159 37.1644L159.462 36.7568L159.301 37.2347L159.027 37.1831L159.192 36.6771V37.2066L158.88 37.2112L158.507 37.23L158.081 37.244L157.632 37.2722L157.15 37.319L156.616 37.4033L156.611 36.7942L156.805 37.3752L156.247 37.4924L155.647 37.6517L155.028 37.8391L154.371 38.0593L153.676 38.2982L152.986 38.5231L152.39 38.7106L151.903 38.8464L151.487 38.9448L151.133 39.0198L150.901 39.076L150.731 38.5559H151.279L151.26 38.6215H150.736L150.896 38.1296L151.175 38.2467L151.034 38.6871V38.2233L151.539 38.3264L152.163 38.4575Z" fill="white"/>
<path d="M151.502 42.3321L151.629 42.3134L151.762 42.3321L151.875 42.393L151.97 42.482L152.031 42.5992L152.05 42.7257L152.031 42.8569L151.97 42.9693L151.88 43.063L151.762 43.1239L151.653 43.1942L151.511 42.7678L151.776 43.1286L151.733 43.2036L151.45 42.8194L151.837 42.5383L151.899 42.5851L151.492 42.8803L151.648 42.4024L151.828 42.4446L152.14 42.4774L151.974 42.9927L151.97 42.4492L152.376 42.4633L152.858 42.4586L153.407 42.4258L154.035 42.3415V42.9459L153.846 42.3696L154.555 42.215L155.311 41.9807L156.106 41.6762L156.938 41.3154L157.793 40.9218L158.639 40.5236L159.471 40.1253L160.279 39.7411L161.045 39.3756L161.778 39.0196L162.492 38.6541L162.317 38.7431L162.997 38.3777L163.626 38.0122L164.207 37.6514L164.742 37.2719L165.233 36.8783L165.663 36.466L166.027 36.9627L165.526 36.6019L165.876 36.1755L166.141 35.7304L166.642 36.0912L166.051 35.8991L166.231 35.4353L166.335 34.9574L166.921 35.1495H166.306L166.344 34.6528V34.1374L166.306 33.622L166.24 33.1301L166.164 32.6896H166.784L166.193 32.8817L166.122 32.4835L166.093 32.2961L166.037 31.9587L165.989 31.6729L165.956 31.4433L165.933 31.2793H166.552L165.961 31.4668L165.947 31.3684L166.533 31.181L166.032 31.5417L166.023 31.5277L166.524 31.1669H167.138L167.133 31.2747V31.5183L167.138 31.8838L167.152 32.3429L167.185 32.8724L167.218 33.4627L167.247 34.1187L167.261 34.8355V35.5899L167.242 36.3583L167.185 37.1126L167.096 37.8295L167.062 38.0216L166.954 38.6869L166.845 39.2773L166.746 39.7786L166.661 40.1909L166.595 40.5236L166.538 40.7813L166.495 40.978L166.462 41.1186L166.439 41.2076L166.42 41.2545L166.33 41.4232L166.32 41.4372L166.183 41.5731L166.008 41.6621L165.819 41.6902L165.63 41.6621L165.455 41.5731L165.318 41.4372L165.228 41.2685L165.2 41.0811V41.053L165.233 40.8656L165.262 40.7906L165.351 40.6173L165.418 40.4954L165.512 40.3315L165.621 40.1394L166.122 40.5001L165.531 40.3127L165.64 40.0878L165.739 39.8348L165.833 39.5396L165.904 39.207L165.961 38.8321L166.552 39.0196H165.933L165.975 38.5838L166.013 38.0637L166.056 37.4453L166.103 36.7472L166.169 35.9881L166.264 35.201L166.292 35.0089L166.415 34.2358L166.585 33.4955L166.798 32.8115L167.058 32.2211L167.148 32.0524L167.445 31.5605L167.767 31.1622L167.904 31.0263L168.254 30.7218L168.641 30.4922L168.811 30.4032L169.232 30.2533L169.686 30.1642L169.88 30.1361L170.348 30.0986H170.811L171.255 30.1314L171.449 30.1595L171.889 30.2392L172.324 30.3657L172.735 30.525L173.108 30.703L173.283 30.7921L173.595 30.9842L173.841 31.1856L173.978 31.3215L174.162 31.5511L174.252 31.7198L174.38 31.9728L174.446 32.2445L174.479 32.4366L174.488 32.7318L174.455 32.9239L174.394 33.2378L174.238 33.5752L174.148 33.7438L173.898 34.1093L173.562 34.4982L173.16 34.9152L173.023 35.0511L172.565 35.4915L172.064 35.9647L171.539 36.452L171.005 36.9486L170.471 37.4547L169.951 37.9419L169.459 38.4058L168.982 38.8462L168.537 39.2679L168.14 39.6615L167.776 39.1648L168.277 39.5209L167.932 39.8817L167.658 40.205L167.46 40.4861L167.337 40.7157L166.836 40.3596L167.422 40.547L167.36 40.725L166.769 40.5376H167.389L167.379 40.6735H166.76L167.346 40.4861L167.398 40.5845L166.812 40.7719L167.001 40.1909L167.143 40.2471L166.954 40.8328V40.219L167.214 40.2331L167.597 40.1768L167.601 40.7906L167.408 40.2096L167.928 40.0597L168.589 39.8161L169.402 39.4928L170.329 39.1273L171.34 38.7338L172.442 38.3261L173.657 37.9044L175.008 37.45L176.474 36.9721L177.977 36.5035L179.452 36.0772L180.832 35.7304L182.094 35.4774L182.25 35.454L183.418 35.2947L184.509 35.2057L185.502 35.1776L186.4 35.1822L187.256 35.1963L187.36 35.2104L187.454 35.2572L187.525 35.3322L187.572 35.4259L187.591 35.5243L187.572 35.6274L187.525 35.7211L187.454 35.7913L187.36 35.8382L187.261 35.8569L186.4 35.9272L185.502 36.0022L184.509 36.1006L183.418 36.2458L182.255 36.4567L182.411 36.4332L181.163 36.7284L179.792 37.1126L178.331 37.5765L176.838 38.0778L175.382 38.5838L174.039 39.057L172.825 39.4928L171.723 39.9004L170.712 40.294L169.785 40.6594L168.972 40.9827L168.31 41.2264L167.79 41.3716L167.601 41.4044L167.214 41.4559L166.954 41.4466L166.765 41.4138L166.618 41.3576L166.448 41.2685L166.311 41.1327L166.221 40.964L166.174 40.8656L166.141 40.6735L166.155 40.5376L166.183 40.3502L166.245 40.1675L166.335 39.9988L166.457 39.7692L166.656 39.4881L166.93 39.1648L167.275 38.804L167.412 38.6682L167.809 38.2793L168.254 37.8576L168.731 37.4172L169.223 36.9533L169.743 36.4614L170.277 35.9553L170.811 35.4587L171.336 34.9761L171.837 34.5029L172.295 34.0624L172.659 34.5544L172.158 34.1983L172.56 33.7813L172.895 33.3878L173.146 33.027L173.647 33.3878L173.061 33.1957L173.217 32.863L173.278 32.5444L173.869 32.7365H173.25L173.241 32.4366H173.86L173.274 32.6287L173.203 32.3523L173.075 32.0993L173.666 31.9119L173.165 32.2726L172.981 32.0431L173.477 31.6823L173.118 32.1789L172.867 31.9728L172.555 31.7854L172.919 31.2887L172.73 31.8697L172.357 31.6917L171.941 31.5324L171.506 31.4058L171.066 31.3262L171.255 30.7405L171.26 31.3543L170.811 31.3215H170.352L169.88 31.359V30.7452L170.069 31.3309L169.615 31.4152L169.194 31.5698L169.005 30.9889L169.369 31.4808L168.982 31.7104L168.632 32.0149L168.268 31.523L168.769 31.8838L168.443 32.2773L168.15 32.7693L167.649 32.4132L168.235 32.6006L167.975 33.191L167.757 33.8703L167.592 34.6106L167.469 35.3884L167.497 35.1963L167.408 35.9834L167.337 36.7425L167.289 37.4453L167.252 38.0637L167.214 38.5838L167.171 39.0196L167.138 39.207L167.081 39.5865L167.011 39.9145L166.916 40.2096L166.817 40.4673L166.708 40.6875L166.623 40.8609L166.514 41.0483L166.42 41.2123L166.349 41.3388L165.848 40.978L166.439 41.1655L166.41 41.2404L165.819 41.053H166.439V41.0764L165.819 41.0811L165.318 40.7203L165.328 40.7063L165.829 41.0671L165.243 40.875L165.262 40.8281L165.285 40.7391L165.318 40.6032L165.361 40.4064L165.418 40.1487L165.484 39.8161L165.569 39.4038L165.668 38.9024L165.777 38.3074L165.886 37.6421L166.476 37.8295H165.857L165.947 37.1173L166.004 36.3583L166.027 35.5899L166.023 34.8355L166.008 34.1234L165.98 33.4674L165.947 32.8771L165.919 32.3476L165.9 31.8884L165.895 31.523L165.9 31.2747L165.904 31.1669L165.933 30.9795L166.023 30.8061L166.155 30.6702L166.33 30.5859L166.519 30.5531L166.713 30.5859L166.883 30.6702L167.02 30.8061L167.034 30.8155L167.119 30.9889L167.138 31.0872L167.171 31.2747L167.195 31.4433L167.228 31.6682L167.27 31.954L167.327 32.2961H166.713L167.299 32.104L167.37 32.4975L167.398 32.6896L167.474 33.1301L167.54 33.6173L167.578 34.1374L167.582 34.6528L167.54 35.1448L167.512 35.3369L167.408 35.8148L167.228 36.2786L167.143 36.4473L166.878 36.8924L166.528 37.3235L166.391 37.4593L165.961 37.867L165.47 38.2652L164.935 38.64L164.354 39.0055L163.725 39.3663L163.045 39.7317L162.874 39.8208L162.161 40.1815L161.428 40.5423L160.662 40.9078L159.854 41.292L159.022 41.6855L158.176 42.0838L157.32 42.482L156.493 42.8428L155.694 43.1474L154.933 43.3723L154.224 43.5175L154.035 43.5503L153.411 43.6159L152.858 43.6206L152.376 43.5925L151.974 43.5409L151.804 43.5128L151.506 43.4425L151.336 43.3582L151.194 43.2879L151.081 43.1755L151.062 43.1005L150.996 42.9693L150.972 42.8194L150.996 42.6741L151.062 42.543L151.166 42.4352L151.246 42.4071L151.369 42.3462L151.502 42.3321Z" fill="white"/>
<path d="M179.556 32.6007L179.57 32.685L179.556 32.7647L179.518 32.8396L179.456 32.8959L179.386 32.9334L179.3 32.9474L179.22 32.938L179.144 32.8959L179.083 32.8396L179.045 32.7647L178.828 32.2587L178.809 32.1368L178.743 31.6121L178.766 31.4715L178.922 31.003L178.988 30.8718L179.097 30.764L179.508 30.3611L180.109 30.0097L180.26 29.9347L180.983 29.6302L181.82 29.3491L182.765 29.0867L183.829 28.8243L185.011 28.5666L186.23 28.3042L187.45 28.0559L188.669 27.8216L189.86 27.6155L190.049 27.5874L191.17 27.4093L192.191 27.2875L193.103 27.2125L193.949 27.1797L194.724 27.175L195.414 27.1844L196.048 27.2078L196.587 27.236L196.988 27.2875L197.154 27.3109L197.423 27.3906L197.565 27.4655L197.735 27.578L197.844 27.6811L197.915 27.831L197.981 27.9528L198 28.0934L197.981 28.2293L197.91 28.3839L197.853 28.501L197.759 28.59L197.504 28.7446L197.4 28.7962L196.97 28.9602L196.421 29.1335L196.336 29.1476L196.251 29.1335L196.175 29.0914L196.114 29.0305L196.071 28.9555L196.057 28.8711L196.071 28.7868L196.109 28.7072L196.171 28.6463L196.251 28.6088L196.762 28.337L197.168 28.0887L197.282 28.4401L197.064 28.1402L197.267 27.9247L197.513 28.2574L197.116 28.1309L197.121 27.9575L197.551 28.0934L197.182 28.3558L197.069 28.2433L197.456 27.9622L197.173 28.3511L196.974 28.2761L197.272 27.8685L197.116 28.3464L196.828 28.3089L196.988 27.8123V28.337L196.587 28.3276L196.053 28.3464L195.414 28.3698L194.724 28.3839L193.949 28.4026L193.103 28.4401L192.195 28.5151L191.174 28.6369L190.054 28.8102L190.243 28.7821L189.052 28.9883L187.837 29.2179L186.613 29.4662L185.389 29.7192L184.202 29.9582L183.129 30.1877L182.17 30.422L181.324 30.661L180.586 30.9327L180.733 30.8577L180.109 31.1717L179.669 31.5418L179.386 31.1529L179.844 31.2982L179.636 31.748L179.201 31.6121L179.655 31.6074L179.594 32.1368H179.201L179.575 32.015L179.556 32.6007Z" fill="white"/>
<path d="M190.281 30.3097L190.361 30.2957L190.442 30.3097L190.517 30.3472L190.574 30.4034L190.612 30.4784L190.626 30.558L190.612 30.6377L190.574 30.7127L190.517 30.7689L190.446 30.8064L189.695 31.3217L188.887 31.8137L189.014 31.7528L188.149 32.2682L187.312 32.8304L186.523 33.4676L185.781 34.2267L185.899 34.1095L185.152 35.0513L184.467 36.1008L183.871 37.2066L183.956 37.0426L183.446 38.1389L183.025 39.165L182.685 40.1115L182.401 41.0158L182.174 41.817L181.999 42.4448L181.867 42.9414L181.768 43.3444L181.286 43.1898H181.791L181.725 43.5084L181.678 43.7707L181.645 43.9816L181.602 44.1596L181.546 44.3143L181.527 44.4126L181.479 44.5063L181.409 44.5766L181.314 44.6235L181.215 44.6422L181.111 44.6235L181.021 44.5813L180.945 44.5063L180.898 44.4173L180.884 44.3143L180.846 44.1596L180.808 43.9816L180.775 43.7707L180.761 43.5131L180.78 43.1898L180.804 43.0351L180.86 42.6181L180.955 42.1121L181.097 41.4702L181.286 40.6597L181.536 39.746L181.858 38.7949L182.283 37.7641L182.812 36.6771L182.898 36.5084L183.521 35.4214L184.231 34.3907L185.01 33.4676L185.133 33.3505L185.904 32.6196L186.717 32.0199L187.577 31.4904L188.475 31.0172L188.603 30.9516L189.449 30.5815L190.281 30.3097Z" fill="white"/>
<path d="M8.38081 64.1894L8.49898 64.2456L8.59352 64.3393L8.65024 64.4564L8.67388 64.5829L8.65024 64.7095L8.59352 64.8266L8.49898 64.9203L8.38554 64.9765L8.25319 64.9999L8.12556 64.9765L7.82304 64.9625L7.56306 64.8922L7.43071 64.8266L7.23218 64.7048L7.11873 64.5923L6.97693 64.4471L6.9013 64.3018L6.80203 64.1472L6.73585 63.9879L6.70749 63.8145L6.66968 63.6412V63.4631L6.69804 63.2757L6.78312 63.1117L6.88711 62.8962L7.01947 62.765L7.27472 62.5026L7.70487 62.1934L8.33827 61.8373L8.50844 61.753L9.36401 61.3407L10.4559 60.8721L11.8173 60.338L13.4575 59.743L15.3861 59.0917L17.5368 58.4264L19.9144 57.7423L22.5568 57.0629L25.4354 56.3976L28.4512 55.7651L31.7127 55.1373L35.1303 54.5329L35.3194 54.5047L38.8456 53.9378L42.509 53.4037L46.333 52.8977L50.3225 52.4198L54.468 51.9746L58.7647 51.5623L63.2033 51.1734L67.7978 50.808L72.5436 50.466L77.4454 50.1567L82.489 49.8803L87.6697 49.646L92.978 49.4492L98.4139 49.2759L103.992 49.1213L109.716 48.9948L115.573 48.887L121.566 48.812L127.702 48.7605L133.984 48.7371H140.431L147.025 48.7511L153.733 48.7886L160.525 48.8683L167.37 49.0088L174.224 49.2009L181.059 49.4492L187.842 49.7444L194.611 50.0724L194.715 50.0864L194.805 50.1333L194.88 50.2083L194.928 50.2973L194.946 50.4004L194.928 50.5034L194.88 50.5925L194.809 50.6674L194.715 50.7143L194.611 50.7283L187.847 50.4894L181.059 50.2739L174.229 50.0958L167.37 49.9599L160.525 49.8803L153.737 49.8569L147.03 49.8709L140.431 49.899L133.988 49.9318L127.702 49.974L121.571 50.0349L115.577 50.1146L109.716 50.2176L103.992 50.3488L98.4139 50.5034L92.978 50.6768L87.6697 50.8736L82.489 51.1079L77.4454 51.3843L72.5483 51.6935L67.7978 52.0309L63.208 52.3963L58.7647 52.7852L54.468 53.1975L50.3225 53.6426L46.3377 54.1205L42.5137 54.6266L38.8456 55.1654L35.3194 55.7276L35.5132 55.6995L32.1004 56.2992L28.8341 56.9271L25.8183 57.5643L22.9396 58.2296L20.2973 58.909L17.9197 59.5884L15.7689 60.2584L13.8404 60.9096L12.2049 61.5047L10.8435 62.0388L9.74688 62.5073L8.89132 62.915L9.06621 62.8306L8.43281 63.1867L7.99793 63.4913L7.73796 63.7396L7.37871 63.2523L7.87503 63.6084L7.75686 63.8099L7.26999 63.4631L7.87031 63.4585L7.84195 63.6412L7.84667 63.8145H7.27945L7.81831 63.6412L7.84667 63.8099L7.90812 63.9785L7.40707 64.1425L7.83249 63.8333L7.93649 64.002L7.52997 64.2971L7.82777 63.8942L7.99321 64.0535L7.71432 64.4424L7.86085 63.9879L8.0972 64.1097L8.38081 64.1894Z" fill="white"/>
</g>
<defs>
<clipPath id="clip0_1_92">
<rect width="198" height="65" fill="white"/>
</clipPath>
</defs>
</svg>
